<svg width="132" height="78" viewBox="0 0 132 78" fill="none" xmlns="http://www.w3.org/2000/svg">
<path d="M105.693 73.0497L106.602 62.4079L111.696 64.227L113.06 67.2285L111.696 70.5939L105.693 73.0497Z" fill="white"/>
<path d="M2.64023 65.9551L5.45985 64.6818L19.0123 70.0481L18.4665 74.414H12.0996L5.00508 74.0502L2.64023 70.0481V65.9551Z" fill="white"/>
<path d="M49.141 0.0232751C52.4613 -0.383554 56.3299 4.6477 58.4112 6.91404L59.2172 7.08654C68.529 9.04935 76.8034 14.3478 82.4811 21.985C83.8065 23.7612 85.0778 26.1705 86.3408 28.1302C91.8267 28.2915 96.2843 29.3728 100.721 32.7102C101.058 32.9632 101.445 33.2164 101.792 33.4599C104.104 33.2519 106.25 32.9856 108.208 34.5104C110.032 35.9308 110.494 38.173 110.752 40.3635C111.41 40.3244 112.997 40.2023 113.606 40.0217C116.073 39.2915 119.752 38.3235 120.396 41.9655C120.818 44.3489 119.498 47.4057 118.119 49.4044C121.312 49.3728 124.332 49.6112 126.859 51.8372C129.7 54.3399 131.391 58.2778 131.624 62.034C131.737 63.8577 131.389 65.7857 130.117 67.1734C127.445 70.0877 117.495 70.7248 113.582 70.8803C112.109 72.6295 110.691 73.64 108.401 74.1197C103.734 75.0986 98.8325 74.8304 94.0815 74.8313L77.8531 74.8304C74.3241 74.8322 70.4402 74.9691 66.9093 74.5649C66.5759 74.5267 64.5855 74.9393 64.1427 75.0148C62.4879 75.3016 60.8262 75.5466 59.159 75.7487C50.5251 76.7267 40.8717 76.8654 32.3147 75.3473C30.0707 77.3749 28.1999 77.4913 25.3976 76.4817C21.9929 78.7524 19.7906 78.4581 16.8085 75.7198C13.7684 76.0505 9.67653 76.3411 6.66331 75.9909C4.85903 75.7077 2.14879 74.6841 1.13572 73.0468C-1.006 69.5857 -0.001127 65.9012 3.16326 63.6593C-1.79134 57.2849 0.409335 50.6953 3.67673 44.2734C4.39362 42.8642 5.33767 41.2474 5.87434 39.7711C6.6499 37.6382 7.22307 35.3748 8.00935 33.235C9.43111 28.8624 11.475 24.9108 14.1419 21.1266C16.1242 18.3137 20.2966 14.7805 23.0837 12.6729C23.4662 12.3836 25.131 11.5296 25.6285 11.2556C28.3805 9.73941 30.8104 8.57256 33.8143 7.62423C34.8227 7.31175 35.8455 7.04844 36.8794 6.83525C37.5309 6.69526 39.7924 6.32336 40.142 6.02969C41.1338 5.19629 42.5221 4.15994 43.5761 3.37264C45.4294 1.98841 46.758 0.490086 49.141 0.0232751ZM13.96 72.8605C14.5877 72.8093 15.298 72.7357 15.9196 72.7264C15.9789 71.8602 16.0716 71.3004 16.3548 70.464C13.5857 69.7906 10.8674 68.9254 8.26697 67.7425C7.60401 67.4407 5.86903 66.1787 5.47039 66.0576C4.58958 66.4944 3.61423 67.1734 3.39778 68.1914C2.09505 74.3209 10.5884 73.1203 13.96 72.8605ZM106.535 71.4597C107.326 71.184 108.651 70.7304 109.36 70.329C113.408 67.9102 109.889 64.7891 107.114 63.4628C107.316 66.6118 107.494 68.4252 106.535 71.4597Z" fill="#0E2E2B"/>
<path d="M40.9564 26.7802C46.0147 26.3538 55.0458 27.4466 59.8221 29.1579C65.4845 31.1591 70.4302 34.2193 73.0437 39.8522C74.4463 42.8754 75.482 45.6174 76.6407 48.7227C77.94 52.2033 79.8269 55.5106 78.5733 59.4336C78.2026 60.5941 76.3594 61.3215 75.3554 61.777C75.1579 60.3678 74.953 58.9335 74.8785 57.5122C74.8003 56.0201 74.9204 54.3725 74.6037 52.9167C74.5106 52.4874 74.3634 52.0496 74.0253 51.7478C73.7757 51.5252 73.3659 51.3557 73.0269 51.4107C72.8071 51.447 72.6124 51.5858 72.4746 51.7553C71.4575 53.0061 72.2073 60.6668 72.442 62.5538C69.6394 63.3082 66.8704 64.2321 65.0589 66.7515C63.9247 68.3274 64.2018 70.0887 64.5559 71.8583C59.6553 72.5969 55.705 73.1511 50.6802 73.3364C44.7302 73.6419 39.8186 73.3262 34.0039 72.5289C34.2172 70.0077 34.1446 69.1005 32.6491 66.9695C33.6003 66.0791 34.2442 65.0042 34.5012 63.731C35.4479 59.0424 31.1577 62.8649 29.7138 62.3787C27.4947 61.6261 26.8555 59.4578 24.1494 59.3181C19.3252 59.0685 16.6049 62.3964 16.0885 66.8549C15.9692 66.7608 15.8516 66.664 15.7356 66.5653C13.8093 64.9214 12.587 61.0645 12.4557 58.5935C12.3574 56.7447 12.5239 54.596 12.8665 52.763C13.0329 51.5941 13.594 50.4038 13.8272 49.2731C14.3307 46.4101 15.5225 43.6615 16.3677 40.9205C17.4892 37.2835 19.7487 34.306 22.7407 32.0002C25.1416 30.1498 29.7245 28.2501 32.7527 27.6982C35.187 27.2546 38.4722 26.945 40.9564 26.7802Z" fill="#FCFEFD"/>
<path d="M41.3384 51.4395C44.6772 50.9329 48.2734 53.1915 46.3874 57.0157C45.8036 58.1995 44.6525 58.5842 43.4396 58.872C43.4087 60.4637 43.7775 60.6947 44.1156 62.1756C44.199 62.5407 43.9019 62.8229 43.6575 63.0726C41.248 63.962 41.1168 60.3417 41.11 58.8338C40.1474 58.6764 39.6705 58.6289 38.7769 58.1064C37.1564 57.1601 36.8647 54.8298 37.8312 53.3163C38.5935 52.1222 39.975 51.6808 41.3384 51.4395Z" fill="#0E2E2B"/>
<path d="M54.2616 48.9024C54.7625 48.9192 55.4098 49.1017 55.8745 49.2554C58.0994 49.9949 60.3473 49.8468 62.5781 49.2219C63.2503 49.0337 64.4275 48.9024 64.8818 49.5758C65.5692 50.5947 64.562 51.3166 63.8848 51.827C61.4334 53.1197 55.3922 53.3386 53.2942 51.0688C52.5399 50.252 53.4928 49.3187 54.2616 48.9024Z" fill="#0E2E2B"/>
<path d="M30.7538 48.9145C31.2567 48.9005 31.8535 49.057 32.0943 49.5339C33.3764 52.071 29.1693 52.6344 27.6048 52.7313C25.8124 52.8412 24.0032 52.7751 22.3345 52.1874C21.0655 51.5866 19.3629 49.4705 21.8395 49.0197C22.5565 49.0458 23.5044 49.4202 24.1835 49.572C26.5534 50.0992 28.5239 49.5683 30.7538 48.9145Z" fill="#0E2E2B"/>
<path d="M11.0771 65.6544C7.62773 63.9816 5.31221 62.2352 3.99486 58.519C2.66521 54.7683 4.08809 51.0623 5.74279 47.7187C6.25971 46.6746 6.59426 45.4768 7.15542 44.4392C7.87706 43.0254 8.70413 41.3526 9.24899 39.8661C11.6043 33.439 13.3782 26.6828 18.0539 21.4538C18.9794 20.3891 20.1246 19.508 21.1462 18.5417C23.5895 16.2309 26.9522 13.8545 30.0245 12.4344C32.6214 11.234 37.2314 9.84803 40.0929 9.51292C47.6662 8.62605 55.9883 9.19951 63.2452 11.6058C64.3525 11.9808 65.6856 12.3579 66.726 12.9033C73.9889 16.712 79.1236 22.0597 83.2208 29.1111C83.8281 30.1558 84.3878 31.6674 84.9225 32.7754C86.1537 35.327 87.2286 37.8509 88.2689 40.4855C89.2348 42.9313 90.5527 45.5327 91.3798 48.0279C92.6567 51.882 93.2984 56.4998 91.39 60.2626C89.992 63.0195 86.7182 65.2641 83.8309 66.2179C82.5148 66.6528 79.8464 66.8978 78.9662 67.7882C78.7287 68.3833 78.7846 69.5848 79.5511 69.7161C81.7977 70.1017 84.7893 68.9077 86.9026 68.0685C90.8414 66.5057 93.6756 63.7376 95.1332 59.7112C96.6542 55.5088 95.843 51.5476 94.5288 47.4337C93.9699 45.2291 92.2953 42.5476 91.635 39.9593C91.1991 39.0218 90.4689 37.1285 90.1364 36.1724C89.2888 34.612 88.7262 32.8564 87.8843 31.3467C91.2326 31.733 93.5462 32.4202 96.5219 34.0111C101.615 36.0103 106.569 42.42 108.896 47.239C109.22 47.9087 109.877 50.8248 110.113 51.0092C112.819 53.1347 117.908 52.2759 120.926 52.4697C125.151 52.7398 127.296 57.3566 128.373 60.8074C127.617 60.8875 125.258 60.8857 124.844 61.4892C123.088 64.0459 127.217 63.651 128.523 63.5746C128.213 64.5162 127.915 65.2678 126.962 65.7252C125.01 66.6631 116.75 67.5423 114.354 67.5488C114.062 63.6053 110.412 60.9378 106.828 60.0921C105.553 59.7913 100.454 58.5414 100.465 61.1101C100.471 62.2837 103.015 62.6218 103.953 62.8602C104.704 65.3666 104.53 68.7391 103.255 71.0797C103.139 71.2976 103.015 71.5109 102.884 71.7205L79.8613 71.7317L72.5872 71.7391C71.436 71.741 69.6766 71.7931 68.5627 71.7074L68.4658 71.6273C67.0603 70.4352 67.187 68.972 68.3736 67.655C69.3841 66.5327 70.8129 66.3781 72.1792 65.9962C77.9166 64.356 82.3323 63.7525 82.2689 56.7745C82.2568 55.33 82.0566 53.8938 81.6719 52.5023C81.2947 51.1601 80.6465 49.6681 80.1137 48.3548C79.1767 46.0114 78.2034 43.6839 77.1938 41.3713C76.5763 39.922 76.0109 38.0562 75.2183 36.7433C73.1041 33.2415 69.8871 30.3152 66.3152 28.3495C65.1733 27.7222 63.8354 27.2938 62.6239 26.8444C56.0818 24.4339 49.1503 23.2541 42.1792 23.3647C36.4187 23.4589 30.7268 24.6303 25.3973 26.8185C24.8104 27.0657 23.4118 27.6374 22.9064 27.9405C21.294 28.9073 19.2909 30.5052 18.0056 31.8321C17.042 32.8268 15.2706 35.086 14.6485 36.3533C14.0567 37.5589 13.322 39.8205 12.8708 41.1626C11.6222 44.877 10.3071 48.7804 9.49059 52.6131C9.20326 53.9617 9.086 56.1691 9.09904 57.5615C9.12782 60.6221 9.67454 62.9338 11.0771 65.6544Z" fill="#69BA87"/>
<path d="M87.8843 31.3467C91.2327 31.733 93.5462 32.4202 96.522 34.0111C96.5378 34.0682 96.5527 34.1253 96.5686 34.1824C96.7567 34.7039 97.5419 35.2225 97.8325 35.7001C99.1774 37.9162 99.6505 40.7687 98.5133 43.1726C98.1957 43.8432 97.8781 44.4607 97.5521 45.0996C96.5732 42.2533 93.3022 36.7374 90.1364 36.1724C89.2889 34.612 88.7263 32.8565 87.8843 31.3467Z" fill="#B8E9B5"/>
<path d="M91.6349 39.9595C92.8551 39.7946 96.4614 45.5692 95.7945 47.01C95.4229 47.2904 95.001 47.3211 94.5288 47.4338C93.9699 45.2292 92.2953 42.5478 91.6349 39.9595Z" fill="#B8E9B5"/>
<path d="M36.1819 16.3006C37.982 16.3705 37.4794 18.0722 37.3516 19.3868C35.4559 21.7378 32.8565 22.689 30.2781 20.6436C30.0616 20.4238 29.8267 20.1459 29.6181 19.9123C29.4693 19.25 29.2947 17.9418 29.8703 17.4573C31.3899 17.0071 32.5942 19.7319 34.0559 18.6149C34.9815 17.9075 35.0819 16.854 36.1819 16.3006Z" fill="#0E2E2B"/>
<path d="M53.6239 16.3055C55.3914 16.2722 54.8146 18.2207 55.9645 18.8962C57.5897 19.9042 57.8208 17.9606 59.0436 17.6092C59.7263 17.413 60.3933 18.3381 60.4304 18.9525C60.4693 19.5986 60.121 19.9686 59.7598 20.4429C57.4042 22.8827 54.8712 22.064 52.8818 19.7091C52.8297 18.4979 52.2797 16.8579 53.6239 16.3055Z" fill="#0E2E2B"/>
<path d="M22.5352 61.5889C27.0399 61.2452 26.3304 65.605 31.9071 64.5116C31.4198 65.2036 30.329 66.3529 30.0981 66.9807C30.135 68.0788 31.425 68.9403 31.6383 70.1465C32.1541 73.0626 30.3082 75.4693 27.2344 74.6693C26.2066 74.3219 25.0154 73.8888 24.0664 74.6823C22.0235 76.3905 19.1554 76.0356 18.2417 73.3113C17.8331 72.094 18.7559 70.7556 19.4216 69.6789C19.1492 69.148 18.8946 68.6581 18.6984 68.1095C17.8877 65.8425 19.0928 63.3203 21.1245 62.1757C21.6203 61.8962 21.9944 61.763 22.5352 61.5889Z" fill="#A9EFFF"/>
<path d="M116.875 42.5775L117.027 42.5822C117.981 43.4446 115.001 48.5114 114.394 49.2686C113.837 49.1764 113.559 49.0888 113.022 48.9212C112.859 48.516 112.701 48.0364 112.553 47.6191C111.986 45.9799 111.445 44.8492 110.508 43.3962C112.918 43.2612 114.55 43.223 116.875 42.5775Z" fill="#69BA87"/>
<path d="M49.4919 3.15775C50.6742 3.11146 52.689 5.1836 53.4014 6.08025C52.1875 6.02884 50.9386 5.91102 49.7064 5.85188C48.5978 5.74104 46.5396 5.68758 45.4269 5.72698C46.8891 4.55352 47.8455 4.02375 49.4919 3.15775Z" fill="#69BA87"/>
<path d="M105.352 36.3472C106.676 36.8381 106.872 37.2998 107.338 38.5931C106.867 38.4099 105.478 36.8067 105.352 36.3472Z" fill="#69BA87"/>
<path d="M88.0521 31.3906L94.5718 47.4104L95.3169 47.9692L99.0424 44.9888L100.16 40.8907L98.6699 35.3024C95.2424 32.62 90.1632 31.5768 88.0521 31.3906Z" fill="#69BA87"/>
</svg>
