<svg width="199" height="179" viewBox="0 0 199 179" fill="none" xmlns="http://www.w3.org/2000/svg">
<path d="M61.1433 0.0146647C61.7052 -0.000446885 62.5384 -0.00759902 63.084 0.0116653C66.5503 0.133711 71.9355 5.23195 74.1302 7.93057C83.8291 8.54288 92.4418 10.3044 100.794 15.9643C101.914 16.7238 103.437 17.9074 104.589 18.4437L104.723 18.5045C105.531 18.0304 106.346 17.3883 107.137 16.8598C113.233 12.7794 119.976 10.6451 127.022 9.60911C129.342 9.26812 131.709 9.22382 134.055 9.15057C136.592 6.79594 139.463 4.36482 142.381 2.6037C144.209 1.50078 146.888 1.10696 148.906 1.85204C152.527 3.18912 155.246 9.25866 156.865 12.8215C157.93 13.0672 159.114 13.5738 160.155 13.9763C164.981 15.8437 169.176 18.1546 173.387 21.3489C176.062 23.378 177.736 25.0718 180.046 27.4947C186.196 33.9489 190.228 41.4149 192.321 50.4618C193.363 54.9959 194.087 59.5895 194.976 64.1656C195.88 68.8301 197.911 73.1829 198.767 77.7815C199.447 81.4336 198.613 86.0391 196.617 89.0991C192.928 94.7515 187.095 97.9803 181.129 99.8756C179.038 100.519 174.909 101.094 172.696 101.481C175.191 104.208 183.538 107.945 186.748 110.365C189.602 112.453 192.795 115.578 193.377 119.509C195.036 130.719 182.991 133.803 175.433 130.622C174.713 130.32 173.145 129.073 172.617 129.183C172.116 130.941 175.249 133.567 176.427 134.443C179.707 132.894 183.009 131.926 186.393 133.847C187.765 134.608 188.798 135.947 189.253 137.559C191.297 135.948 194.116 132.217 196.876 134.643C197.716 135.381 197.877 137.101 197.873 138.245C197.839 151.457 182.642 160.171 172.055 160.848C170.044 160.975 167.77 160.904 165.769 160.933C165.495 162.332 165.341 163.826 165.05 165.249C164.305 168.77 162.563 171.944 160.072 174.314C153.877 180.3 141.3 180.713 135.081 174.614C134.308 173.856 133.43 172.692 132.729 171.822C130.425 174.264 128.298 174.963 125.303 175.633C119.343 176.677 112.007 176.41 106.536 173.281C101.974 170.67 100.676 165.513 103.259 160.569C102.961 159.19 102.317 157.911 101.84 156.59C101.136 154.643 100.416 152.647 99.8772 150.638C99.7214 150.059 99.6804 149.415 99.5005 148.845C99.4047 148.541 99.4415 148.574 99.2016 148.454C98.8028 148.754 98.4219 150.461 98.2367 151.051C97.1481 154.507 95.4429 157.552 93.9247 160.773C95.0377 162.232 95.723 164.019 95.6753 165.928C95.4475 175.04 85.4659 176.206 79.1834 176.248C73.6507 176.285 68.5419 175.447 64.5992 171.11C63.7408 172.158 62.2842 174.07 61.193 174.775C51.7731 180.857 33.6672 178.549 33.1311 163.681C33.1053 162.966 33.2856 159.649 33.1181 159.304C32.5174 158.904 29.4289 159.097 28.4193 159.015C26.6459 158.854 24.883 158.574 23.1407 158.178C21.8646 157.885 20.1187 157.492 18.8945 157.072C11.9358 154.692 5.95481 149.721 1.98707 143.016C0.451254 140.409 -0.0626606 137.683 0.00597857 134.613C0.0590337 132.24 -0.083538 130.846 1.95861 129.449C2.48876 129.426 3.03435 129.378 3.60015 129.51C5.93576 130.059 7.03033 133.93 9.04078 134.6C9.40118 134.72 10.7822 132.284 11.2532 131.957C11.3871 131.864 12.1247 131.03 12.4452 130.904C14.8304 129.966 17.6532 130.134 20.0712 130.805C20.7148 130.982 21.9832 131.818 22.4579 131.833C23.2799 131.342 26.6429 127.9 27.2412 127.004C23.4462 128.338 20.2067 129.348 16.2563 128.187C5.04355 124.893 5.14983 112.666 14.9825 107.126C20.3113 104.123 27.1627 102.417 31.9671 99.1189L32.1348 99.0024C29.204 98.2883 24.6418 97.1925 21.8732 95.8739C15.9356 92.9878 9.89459 88.6319 7.42271 81.7421C5.49244 76.3615 7.67452 71.2601 9.31142 66.2489C11.056 60.908 12.2898 55.4403 13.4533 49.9154C14.1859 46.4367 15.6108 42.7416 16.8554 39.4238C22.108 27.4581 32.1441 18.0387 43.402 13.3534C46.0747 12.242 48.9554 11.5813 51.6478 10.4853C53.8522 6.90887 57.0328 0.840724 61.1433 0.0146647Z" fill="#132221"/>
<path d="M105.307 90.7695C105.893 90.6876 107.42 91.69 107.968 92.0534C106.195 96.2985 100.654 100.724 96.9184 102.918C96.2844 103.29 96.0361 103.709 95.7143 104.388C95.6978 106.329 96.1254 108.105 96.4814 109.997C97.0518 113.03 97.8422 116.269 98.0231 119.37C98.6965 130.888 98.2346 140.718 93.8805 151.389C93.0502 153.421 92.148 155.417 91.176 157.372C90.6417 158.435 89.8063 159.65 89.4603 160.79C89.0714 162.071 91.0119 163.193 91.4293 164.463C92.6517 168.181 89.9855 169.899 87.3851 171.135C87.0106 169.948 86.8199 168.007 85.8873 167.395C83.9943 166.154 82.8481 168.51 83.5949 170.316C83.7284 170.638 83.933 171.578 84.0223 171.923C82.6973 172.17 81.5912 172.325 80.251 172.349C80.2023 170.872 80.266 168.857 79.1344 167.83C78.5415 167.256 77.4048 167.119 76.9209 167.931C76.2925 168.985 76.8044 171.081 76.981 172.275C74.0408 172.08 70.2429 171.335 68.0122 169.031C66.5598 167.532 66.6994 165.725 66.671 163.712C67.6897 163.537 71.7187 162.699 70.2207 160.338C69.7 159.517 67.7771 159.63 66.8317 159.649C66.8301 158.686 66.8441 157.774 66.9534 156.81C67.1399 155.161 68.28 150.9 67.02 149.566C64.2547 146.64 63.1762 150.962 63.1119 153.304C63.0713 154.782 62.862 156.401 62.7359 157.545C60.9494 155.492 58.7496 154.547 56.2556 153.961C56.2002 153.768 56.1832 153.655 56.1276 153.426C55.8004 151.947 52.675 150.834 52.0636 152.479C51.9028 152.911 52.7005 156.139 52.8989 156.665C54.0993 157.085 55.4752 157.218 56.8044 157.674C60.7585 159.034 63.2163 163.111 61.8573 167.615C61.0769 170.201 58.8108 171.72 56.588 172.807C55.4548 173.312 54.7027 173.499 53.4885 173.717C46.8975 174.903 38.5074 172.979 37.1094 164.58C36.6603 161.881 37.0017 160.119 37.3171 157.422C36.7186 156.746 36.0626 156.123 35.4546 155.454C32.8975 152.644 31.4327 148.711 30.5811 144.92C28.9072 137.466 30.0478 128.959 33.2701 122.154C34.5065 119.544 40.8699 110.02 40.8056 108.319C40.7913 107.94 40.6381 107.624 40.3799 107.381C39.9845 107.008 39.4279 106.799 38.9076 106.87C38.4464 106.931 38.0487 107.194 37.7361 107.563C36.8643 108.594 36.2322 109.958 35.5395 111.138C33.9978 113.764 32.4316 116.587 30.6471 119.019L30.5665 119.126C25.274 117.843 23.5499 113.44 21.9043 108.314C25.7284 106.834 34.9561 102.886 37.8807 99.7661C40.8797 99.7788 43.419 99.7176 46.4186 99.3889C48.0023 99.322 49.9746 98.6944 51.525 98.7348C66.1077 99.112 80.8777 98.2169 95.1032 94.4863C98.5208 93.5888 102.016 92.1503 105.307 90.7695Z" fill="#69BA87"/>
<path d="M48.781 114.831C49.3329 115.325 50.1658 115.742 50.8255 116.04C54.3046 117.618 58.2362 117.808 61.6663 115.915C62.7804 116.449 64.4009 117.31 65.4739 117.751C67.8376 118.722 71.6669 118.705 74.0784 117.923C75.1218 117.584 76.5989 116.796 77.6157 116.272C79.9787 117.797 81.4693 118.279 84.255 118.263C86.5224 118.251 87.9918 118.008 90.0287 116.831C90.9015 120.468 90.849 124.656 90.1085 128.306C89.5853 128.627 88.7992 128.945 88.225 129.198C85.5185 130.579 82.2175 130.876 79.6629 129.172C76.9869 127.388 77.0446 127.86 74.3519 129.17C73.4886 129.59 72.1822 130.073 71.1949 130.262C67.3556 131 64.6303 129.514 61.5661 127.147C59.2746 126.881 58.5162 128.348 56.162 128.722C52.6887 129.275 49.5724 128.057 46.7946 125.834C46.8286 121.484 47.146 118.721 48.781 114.831Z" fill="#C0E9BA"/>
<path d="M69.3653 100.98C73.7962 100.871 79.4383 101.917 83.2437 104.521C86.3994 106.681 88.9054 110.421 89.7058 114.422C87.1534 115.604 86.7331 115.957 83.9298 116.133C80.0515 116.376 78.7887 112.452 75.1997 114.928C73.9803 115.769 71.8821 116.354 70.4489 116.39C68.5107 116.376 68.343 116.34 66.5018 115.788C64.9316 115.316 62.9314 113.36 61.741 113.454C61.0035 113.513 59.8713 114.558 58.4009 114.806C55.0035 115.378 52.2161 114.638 49.4241 112.594C50.3157 110.914 50.9101 109.654 52.101 108.195C56.5969 102.687 62.9265 101.318 69.3653 100.98Z" fill="#C0E9BA"/>
<path d="M47.0417 128.544C47.8691 129.011 49.6191 130.054 50.4569 130.31C54.1157 131.426 57.3546 131.165 60.7004 129.329C65.3669 132.59 69.7583 133.742 75.0848 131.3C75.7699 130.985 76.3805 130.678 77.1034 130.463L77.2695 130.416C81.9886 133.124 84.7461 133.211 89.6845 130.956C89.1558 132.845 88.1049 135.18 86.9776 136.737C78.4937 149.572 49.9208 146.986 47.0417 128.544Z" fill="#C0E9BA"/>
<path d="M46.5589 152.049C47.9396 152.044 48.462 153.109 48.8169 154.418C49.4609 156.791 49.0737 157.263 47.1906 157.804C43.3898 158.177 44.3427 152.557 46.5589 152.049Z" fill="#132221"/>
<path d="M39.9542 155.954C40.6082 155.897 40.8584 155.786 41.3313 156.333C41.4588 156.951 42.4 160.718 42.3632 160.901C42.0971 161.231 41.8487 161.294 41.4749 161.459C39.2751 161.402 38.871 159.789 39.0644 157.488C39.1193 156.833 39.4575 156.322 39.9542 155.954Z" fill="#132221"/>
<path d="M111.308 93.7203C118.146 96.4577 126.328 97.7866 133.544 98.6829C137.462 99.1986 141.393 99.5919 145.332 99.863C150.262 100.178 154.93 100.071 159.816 101.038C161.801 101.432 164.496 101.42 166.499 101.468C167.64 102.399 168.611 103.52 169.803 104.441C173.013 106.922 177.254 109.499 180.824 111.264C179.662 114.468 178.761 117.452 176.221 119.724C174.949 120.86 172.672 122.247 170.96 121.967C169.449 121.721 165.62 111.22 164.222 109.399C163.817 108.871 163.27 108.424 162.621 108.382C162.192 108.355 161.846 108.528 161.546 108.862C161.116 109.338 160.955 110.034 161.128 110.678C161.364 111.536 163.153 115.194 163.617 116.174C166.719 122.732 168.713 127.874 168.899 135.418C169.074 142.517 168.204 149.451 164.475 155.488C163.69 156.76 162.54 157.955 161.579 159.076C161.712 163.148 161.231 166.154 158.914 169.566C156.597 172.9 152.977 174.522 149.227 175.052C144.26 175.754 135.946 173.381 135.284 166.807C135.065 164.635 135.749 163.045 137.011 161.378C138.431 159.829 139.916 159.052 141.837 158.491C142.45 158.235 144.119 158.029 144.128 157.09C144.141 155.899 145.465 153.188 143.58 153.069C142.103 152.519 140.306 155.415 140.344 155.408C138.19 155.846 136.286 157.003 134.553 158.597C134.452 157.361 134.342 156.103 134.284 154.864C134.214 153.394 134.268 152.076 134.012 150.62C133.54 150.142 132.988 149.74 132.326 149.695C131.79 149.658 131.266 149.875 130.886 150.291C129.363 151.965 130.32 156.252 130.546 158.348C130.659 159.399 130.699 160.053 130.711 161.129C130.132 161.111 129.543 161.11 128.959 161.094C127.811 161.062 126.026 161.895 127.057 163.436C127.995 164.838 129.747 165.109 131.218 165.334C130.962 166.899 130.761 168.037 129.685 169.233C127.216 171.977 122.573 172.291 119.278 172.34C119.344 171.877 119.536 170.88 119.671 170.407C120.251 168.387 119.15 166.261 117.222 168.024C116.164 168.991 116.015 170.556 115.958 172.04C114.783 171.872 113.625 171.727 112.464 171.461C112.894 170.372 113.29 168.427 112.721 167.363C112.252 166.488 111.309 166.364 110.592 166.969C109.577 167.825 109.435 168.992 109.222 170.272C109.073 170.201 108.925 170.125 108.779 170.044C107.539 169.367 106.462 168.248 106.026 166.827C105.222 164.219 107.157 162.54 107.755 160.759C107.872 160.413 106.365 157.093 106.059 156.346C103.152 149.262 101.133 141.667 101.502 133.824C101.72 127.751 102.554 122.436 104.911 116.84C105.723 114.916 106.747 113.068 107.567 111.093C107.898 110.038 109.837 106.533 109.419 105.582C108.694 103.935 106.801 104.298 106.025 105.905C105.216 107.578 104.525 108.945 103.851 110.588C103.116 112.374 101.87 114.225 101.334 115.99C100.593 112.189 100.039 109.401 99.5384 105.571C100.461 104.724 102.122 103.586 103.141 102.833C105.19 101.321 110.411 96.069 111.308 93.7203Z" fill="#CEEAEE"/>
<path d="M113.195 115.321C117.254 118.261 121.309 118.397 125.676 116.296C128.748 118.441 130.54 119.169 134.255 119.316C137.109 119.43 138.451 118.398 141.126 117.929C141.812 117.809 143.348 118.736 144.105 118.899C147.418 119.612 151.371 118.938 154.33 117.177C155.094 120.019 155.446 124.689 154.85 127.672C154.634 128.748 153.814 129.122 152.986 129.573C150.082 131.137 146.693 131.747 143.549 130.22C142.769 129.84 141.84 128.794 140.918 128.818C139.806 128.847 138.908 129.517 137.902 129.973C135.436 131.091 133.327 131.204 130.705 130.729C128.386 130.308 126.867 128.231 124.857 127.594C123.999 127.549 122.911 128.366 122.17 128.661C118.802 130.005 114.269 129.384 111.626 126.563C111.508 123.972 111.743 121.377 112.321 118.862C112.582 117.74 112.969 116.565 113.174 115.445L113.195 115.321Z" fill="#E0FCF3"/>
<path d="M130.906 101.552C139.457 101.127 149.534 103.761 153.27 112.882C153.506 113.458 153.653 113.809 153.806 114.424C153.165 115.112 151.797 115.911 150.932 116.17C146.98 117.353 144.897 117.05 141.441 115.227C139.816 115.405 138.566 116.314 136.725 116.713C132.867 117.522 130.109 116.614 127.041 114.27C125.463 113.064 124.317 114.575 122.749 115.046C119.676 115.968 116.691 115.094 113.982 113.365C115.477 107.44 120.986 103.414 126.241 102.225C127.733 101.887 129.386 101.674 130.906 101.552Z" fill="#E0FCF3"/>
<path d="M149.297 153.079C152.279 152.946 153.306 158.056 150.232 158.826C149.259 158.765 147.969 158.571 147.71 157.348C147.421 155.978 148.13 153.735 149.297 153.079Z" fill="#132221"/>
<path d="M156.171 156.296C157.988 156.299 158.449 157.73 158.132 159.549C157.923 160.745 157.519 161.265 156.61 161.91C156.013 162.075 155.515 162.144 155.054 161.631C154.702 160.699 155.201 159.783 155.313 158.834C155.464 157.537 155.011 157.051 156.171 156.296Z" fill="#132221"/>
<path d="M70.4826 32.2224C74.7485 32.001 79.7205 32.0367 83.9451 32.6014C86.4064 32.9303 88.7995 33.6498 91.2321 34.142C91.9961 34.9523 93.0346 35.5234 93.8959 36.2138C96.2123 38.0709 98.0315 40.6751 99.4131 43.4129C102.027 48.5904 102.653 54.3599 103.276 60.1372C103.415 61.4229 103.479 62.7507 103.676 64.0246C103.855 65.1745 104.422 66.2883 104.754 67.4C105.877 71.1588 105.98 75.078 104.962 78.8833C103.637 83.8327 100.273 86.4813 96.302 88.8269C86.6735 94.5128 65.3523 96.5268 54.5083 94.7631C52.972 94.5127 51.4915 94.0629 50.0069 93.5772C41.0415 90.6022 36.6104 83.9421 37.7396 73.5157C38.1045 70.1464 35.2663 71.2322 34.855 72.2667C33.2813 76.2262 33.9471 81.6114 34.973 85.6539C35.486 87.8706 33.655 88.8338 32.1966 87.2987C30.5914 85.6096 29.9732 82.2748 29.8073 79.9541C29.6889 78.1558 29.7366 76.349 29.9495 74.5613C30.5854 68.9974 33.1242 57.377 34.8944 52.2151C39.5703 38.5809 58.357 33.2127 70.4826 32.2224Z" fill="#FEFEFE"/>
<path d="M72.6788 63.253C75.9221 62.8832 79.8226 65.0744 78.3749 69.4109C77.7838 71.1812 75.8264 71.6947 74.3438 72.2353C74.5403 73.4019 74.8623 74.7579 74.9368 75.9276C75.0495 77.6987 74.3181 78.861 72.7443 77.5414C72.1343 76.2934 71.9517 74.0671 71.7553 72.5887C70.1429 72.6942 68.6121 72.6815 67.2463 71.5875C65.4931 70.183 64.9765 67.6823 66.4332 65.8029C67.9395 63.8593 70.5062 63.4541 72.6788 63.253Z" fill="#132221"/>
<path d="M49.9729 60.6877C54.0611 60.2905 56.2896 64.2205 54.7566 68.349C54.2643 69.6745 53.006 70.4722 51.7891 70.9162C46.1116 71.9001 44.2855 62.3887 49.9729 60.6877Z" fill="#132221"/>
<path d="M90.2848 54.8121C94.1545 54.6468 95.9465 59.517 94.2896 62.9176C93.5876 64.3585 92.4031 64.8128 91.061 65.1814C85.6863 64.9938 84.2364 55.8908 90.2848 54.8121Z" fill="#132221"/>
<path d="M128.73 33.9616C132.287 33.8002 135.849 33.9224 139.389 34.3272C143.857 34.8718 148.634 36.1325 152.849 37.7289C160.919 40.7995 170.02 46.3705 172.711 55.8925C173.661 59.2549 174.377 63.3506 174.763 66.8395C175.333 71.9986 176.737 77.3572 176.129 82.5609C175.824 85.0428 174.728 90.7937 171.622 90.4592C169.763 90.2596 171.147 87.0859 171.355 86.2626C172.215 82.8565 172.745 79.2702 171.921 75.7973C171.698 74.8575 171.311 73.6818 170.273 73.5609C167.844 73.3439 168.643 76.418 168.59 78.0985C168.404 83.951 166.803 88.4162 162.322 91.8919C155.585 97.1924 143.604 96.5614 135.766 95.6455C127.879 94.7238 119.82 93.3696 112.535 89.8455C110.777 88.9953 106.983 86.6283 106.029 84.835C109.34 79.3442 110.287 73.684 108.517 67.249C107.986 65.3178 107.008 63.7852 106.738 61.6898C106.174 57.3088 106.098 52.3188 104.768 48.1081C107.683 41.7895 111.907 37.956 118.094 35.9049C121.884 34.6481 124.784 34.1348 128.73 33.9616Z" fill="#FEDEB0"/>
<path d="M132.564 63.818C135.487 63.6885 141.143 64.2158 141.241 68.5515C141.263 69.6811 140.877 70.7744 140.166 71.5926C138.828 73.1347 137.254 73.1386 135.503 73.2107C135.322 74.3531 135.154 75.4981 135.001 76.6454C134.804 77.8175 133.665 79.4222 132.688 78.1554C132.021 77.2904 132.72 74.0128 132.913 72.7496C130.738 72.102 127.947 71.0998 128.266 67.8514C128.526 65.2105 130.344 64.1328 132.564 63.818Z" fill="#132221"/>
<path d="M155.514 61.4939C156.525 61.4162 157.481 61.5828 158.347 62.1899C159.297 62.8684 159.959 63.9373 160.184 65.1562C160.77 68.2183 159.395 71.1588 156.438 71.6894C155.453 71.7331 154.712 71.7451 153.813 71.2127C152.838 70.633 152.125 69.6375 151.842 68.4618C151.066 65.3111 152.516 62.27 155.514 61.4939Z" fill="#132221"/>
<path d="M115.79 55.4035C121.702 54.8083 121.671 64.5092 116.266 65.46C110.283 65.9217 110.179 56.1633 115.79 55.4035Z" fill="#132221"/>
<path d="M132.536 13.1895C137.24 13.0171 144.052 13.6856 148.679 14.7312C159.73 17.2295 168.611 21.275 176.76 29.9074C179.051 32.3037 181.11 34.9523 182.905 37.8113C184.84 40.9434 186.388 44.3432 187.508 47.9216C188.469 50.9079 189.138 55.1733 189.705 58.3045C190.223 60.9457 190.836 63.6309 191.406 66.2481C192.492 71.2348 195.81 77.856 194.627 83.0034C191.667 95.8959 170.464 99.7418 160.344 97.5236C162.12 97.0656 164.027 97.0494 165.843 96.7818C170.522 96.092 175.863 94.1287 178.533 89.5571C179.605 87.7218 179.951 85.9345 180.249 83.8301C180.559 80.3045 180.126 76.1508 179.604 72.6466C177.819 60.7731 176.927 49.1685 167.116 41.6195C153.631 31.2444 134.247 27.8349 118.335 32.0551C111.988 33.7382 107.122 37.6229 103.269 43.3382C101.951 39.8038 99.4636 36.7261 96.9687 34.1426C98.0283 31.8835 99.3468 29.7825 100.894 27.8911C106.176 21.3455 114.658 16.623 122.329 14.6617C125.66 13.81 129.133 13.424 132.536 13.1895Z" fill="#CEEAEE"/>
<path d="M157.419 23.5415C158.143 23.461 158.523 23.415 159.209 23.7219C160.044 24.0922 160.695 24.8336 161 25.7613C161.332 26.7501 161.269 28.0337 160.813 28.951C160.16 30.2595 159.736 30.5167 158.582 30.9645C154.547 31.7053 153.27 25.6259 157.419 23.5415Z" fill="#132221"/>
<path d="M128.426 18.8057C132.952 18.4831 133.637 24.3733 129.727 26.1374C129.089 26.2157 128.586 26.2596 127.976 26.0064C127.126 25.6544 126.45 24.9242 126.119 23.9965C125.302 21.7498 126.401 19.589 128.426 18.8057Z" fill="#132221"/>
<path d="M67.7443 12.0363C67.7509 12.0353 67.7576 12.0342 67.7643 12.0332C78.5873 11.2096 93.144 14.0044 101.511 21.6015C100.998 22.2659 99.6973 23.492 99.0343 24.2221C97.0119 26.408 95.3027 28.9171 93.9654 31.6641C90.5563 30.1397 85.5484 28.9541 81.8465 28.7499C67.1386 27.9383 48.6646 30.4084 37.371 41.7372C35.3619 43.7526 33.6218 46.05 32.3587 48.7023C29.5991 54.4964 25.9537 71.5372 25.7324 77.9944C25.5824 82.3745 26.3719 86.1064 29.1419 89.3587C32.5361 92.9486 37.1753 94.2117 41.666 95.1138C42.7824 95.3387 44.0512 95.6052 45.1244 95.9997L45.2643 96.0516C35.4989 96.806 23.2034 93.996 15.6185 87.0443C9.78654 81.6996 9.92986 75.7 12.6453 68.6466C14.7631 63.1457 15.8529 56.4544 17.4481 50.7283C18.2416 47.8797 18.7649 45.3866 19.8984 42.5965C21.6236 38.3582 23.9384 34.4391 26.7604 30.9795C37.2361 17.987 52.4061 13.057 67.7443 12.0363Z" fill="#69BA87"/>
<path d="M49.7327 21.3675C54.2954 21.1299 54.5947 27.7831 50.9829 28.7585C50.1846 28.7867 49.6604 28.8333 48.9402 28.4067C48.1252 27.916 47.529 27.081 47.2905 26.0957C46.7424 23.9149 47.6468 21.8465 49.7327 21.3675Z" fill="#132221"/>
<path d="M78.7743 17.4365C80.4111 17.3953 81.6201 18.1266 82.0714 19.9279C82.3444 20.9849 82.2193 22.1178 81.7239 23.0727C81.2146 24.0358 80.555 24.4914 79.6101 24.789C77.9525 24.8581 76.7807 23.961 76.2877 22.1951C75.9912 21.1517 76.1066 20.02 76.6057 19.0739C77.1714 18.0058 77.7883 17.7491 78.7743 17.4365Z" fill="#132221"/>
<path d="M3.68362 134.721C4.21996 135.404 4.74662 136.076 5.36146 136.657C10.4083 141.419 17.8418 139.792 23.0985 136.371C24.2616 135.613 25.2307 134.621 26.3332 133.789C26.295 137.435 26.1355 142.479 26.9825 145.919C27.6595 149.208 28.9523 152.308 30.7791 155.021C21.77 155.01 12.8376 151.318 6.98805 143.617C4.82154 140.7 3.89723 138.412 3.68362 134.721Z" fill="#69BA87"/>
<path d="M6.98801 143.617C8.12782 143.239 20.5319 151.066 26.9825 145.919C27.6594 149.209 28.9522 152.308 30.7791 155.021C21.77 155.01 12.8375 151.318 6.98801 143.617Z" fill="#C0E9BA"/>
<path d="M172.608 136.298C173.055 136.637 173.808 137.48 174.357 137.936C178.839 141.65 184.685 143.556 190.139 141.394C191.651 140.794 192.723 139.904 193.992 138.802C193.696 140.912 193.077 143.216 191.976 144.991C190.714 147.024 188.67 149.429 186.771 150.762C181.723 155.235 174.311 157.155 167.946 156.833C168.521 155.528 169.161 154.388 169.716 153.045C171.915 147.728 172.529 142.086 172.608 136.298Z" fill="#CEEAEE"/>
<path d="M18.4747 109.813L18.5635 109.834C18.8219 110.326 19.6223 113.26 20.0223 114.237C21.4798 117.75 24.1464 120.486 27.439 121.85C25.2416 123.446 23.8163 124.158 21.1162 124.574C19.2493 124.647 18.1521 124.635 16.3896 124.009C10.8087 122.027 10.6665 115.396 15.0229 111.922C16.1904 110.991 17.1815 110.504 18.4747 109.813Z" fill="#FEFEFE"/>
<path d="M183.994 113.297C192.67 117.864 190.82 129.57 179.782 127.728C176.802 127.006 176.47 126.713 173.896 124.907C179.092 123.308 182.455 118.855 183.994 113.297Z" fill="#FEDEB0"/>
<path d="M146.568 5.55823C149.221 5.85942 150.86 9.45562 151.991 11.8214C149.802 11.2803 148.167 10.8665 145.945 10.5676C143.773 10.2563 141.725 9.94796 139.538 9.77642C140.996 8.40024 144.674 5.80751 146.568 5.55823Z" fill="#CEEAEE"/>
<path d="M62.4542 3.95105C64.4132 4.12824 67.5156 6.90645 68.9425 8.40515C66.9135 8.57656 64.8855 8.76125 62.8585 8.95919C60.7139 9.17537 58.9356 9.48845 56.8184 9.87419C57.9011 7.71059 60.1196 4.3729 62.4542 3.95105Z" fill="#69BA87"/>
<path d="M181.866 136.371C184.032 136.246 185.025 136.847 185.816 139.132L183.735 138.851C182.427 138.599 180.553 137.744 179.345 137.096C180.246 136.735 180.929 136.54 181.866 136.371Z" fill="#CEEAEE"/>
<path d="M15.5083 133.708C17.1219 133.549 17.7787 133.639 19.2632 134.346C18.2304 134.927 17.4474 135.277 16.3468 135.66C14.9959 136.053 14.335 136.019 12.9472 136.043C13.763 134.737 14.1306 134.244 15.5083 133.708Z" fill="#69BA87"/>
<path d="M111.107 129.392C111.934 129.859 113.684 130.902 114.522 131.158C118.181 132.274 121.42 132.012 124.766 130.177C129.432 133.438 133.823 134.59 139.15 132.147C139.835 131.833 140.446 131.526 141.169 131.311L141.335 131.264C146.054 133.972 148.811 134.059 153.75 131.804C153.221 133.693 152.17 136.028 151.043 137.585C142.559 150.42 113.986 147.833 111.107 129.392Z" fill="#E0FCF3"/>
<path d="M191.859 145.174C190.719 144.796 177.968 152.418 171.517 147.271C170.84 150.56 169.544 153.806 167.818 156.838C178.174 157.135 186.558 153.312 191.859 145.174Z" fill="#E0FCF3"/>
</svg>
