<svg width="149" height="171" viewBox="0 0 149 171" fill="none" xmlns="http://www.w3.org/2000/svg">
<path d="M59.0552 0.0964831C65.6741 -0.773354 69.1948 4.43123 73.6974 7.94763L73.8785 8.08768C83.7377 8.19018 90.6331 9.13822 99.8099 13.2656C112.635 19.0342 122.483 28.4902 128.55 41.1894C130.587 45.7351 132.274 50.2261 134.232 54.8291C138.002 63.7664 146.085 74.2812 141.452 84.3311C138.218 91.3408 131.044 96.6145 124.355 100.017C121.854 101.289 118.716 102.349 116.049 103.332C116.723 104.33 117.385 105.336 118.036 106.349C123.293 105.784 125.475 106.181 124.965 111.783C125.852 112.968 129.992 111.938 131.964 113.927C135.073 117.065 128.824 122.913 128.87 123.792C131.7 124.808 133.894 120.504 140.321 122.506C141.553 121.101 143.228 119.029 145.217 118.932C148.192 118.788 148.92 123.415 148.987 125.569C149.215 132.816 146.395 140.421 141.503 145.757C136.969 150.704 130.672 153.824 124.172 155.215C122.224 155.632 118.509 155.793 116.859 156.561C114.823 157.509 112.406 159.626 110.281 160.776C103.445 164.475 92.543 168.13 84.8343 168.452C83.8129 168.495 80.4126 168.591 79.6488 168.879C69.2921 172.782 59.9137 172.113 55.8726 159.88C55.254 159.696 54.4757 159.51 53.8412 159.384C49.2285 158.466 44.9912 157.112 40.5688 155.517C39.5722 156.024 36.0635 157.846 35.0931 157.966C30.8586 158.476 26.8363 161.497 23.2712 162.533C11.8016 165.868 -0.839873 151.188 0.0438311 140.497C0.70769 132.468 8.24007 129.37 15.5094 130.239C15.007 129.973 14.4616 129.643 13.9551 129.393C7.44743 126.18 2.74757 117.984 7.3917 111.255C7.77781 110.696 8.22133 110.124 8.64613 109.569C8.8357 107.59 8.94095 105.352 10.4301 103.97C13.174 101.424 18.6672 98.8655 22.3964 100.074C23.7916 100.526 25.2316 101.557 26.5891 101.545L26.8428 101.233C26.4949 100.671 23.9776 99.5818 23.1595 99.1597C14.6785 94.7851 4.66057 87.0694 5.58079 76.3404C6.08752 70.433 7.91307 64.271 9.33738 58.4788C10.791 52.567 12.0058 46.4139 14.1754 40.7296C18.5014 29.4662 28.7743 19.7858 39.6791 14.8751C41.2874 14.1508 47.7631 11.7167 48.5339 11.0348C52.4395 7.57997 53.6086 2.40306 59.0552 0.0964831Z" fill="#132221"/>
<path d="M10.3295 78.1894C9.54796 72.3291 13.502 62.5109 14.6162 56.4206C15.2452 52.9824 16.2831 48.0285 17.2538 44.7118C17.8576 42.6228 18.6375 40.5886 19.5849 38.6316C21.8879 33.9155 24.7917 30.639 28.457 27.1026C40.0953 15.8734 53.5078 13.7312 68.9726 12.9066C73.1362 12.6845 76.4762 12.0314 80.8651 12.1688C93.558 12.5663 106.642 19.5881 115.165 28.8777C117.911 31.6587 120.292 34.7788 122.25 38.1624C125.691 44.206 127.536 50.6835 130.22 57.0101C132.197 61.6726 134.934 65.8656 136.652 70.742C139.141 77.8111 137.75 83.6622 132.253 88.8697C120.511 99.9955 102.837 102.38 87.5645 105.155C83.5751 105.859 79.3478 106.014 75.3625 106.677C74.4236 106.834 74.1605 107.2 73.6905 107.875C74.1631 109.955 81.5102 108.604 83.3012 108.531L83.3781 108.739C82.2087 109.187 77.349 109.324 76.5629 109.811C78.7224 110.862 90.3492 107.868 93.4607 108.323C90.0614 109.236 84.7397 109.683 81.1354 110.129C78.3841 110.47 76.147 109.92 73.277 110.831L72.3097 111.296C70.8167 111.142 69.5271 111.641 68.1468 112.12C66.8854 111.059 65.7276 110.11 64.4147 109.114C59.6065 105.962 52.4756 105.703 46.9723 104.169C34.6244 100.726 11.8959 93.0649 10.3295 78.1894Z" fill="#132221"/>
<path d="M10.3295 78.1894C9.54796 72.3291 13.502 62.5109 14.6162 56.4206C15.2452 52.9824 16.2831 48.0285 17.2538 44.7118C17.8576 42.6228 18.6375 40.5886 19.5849 38.6316C21.8879 33.9155 24.7917 30.639 28.457 27.1026C40.0953 15.8734 53.5078 13.7312 68.9726 12.9066C73.1362 12.6845 76.4762 12.0314 80.8651 12.1688C93.558 12.5663 106.642 19.5881 115.165 28.8777C115.089 31.4335 117.916 34.6296 118.99 37.2598C121.364 42.9019 122.981 49.2573 124.994 54.9482C128.99 66.2441 134.912 79.0282 124.235 88.6394C122.762 89.9655 118.766 93.2367 116.731 92.9285L116.83 92.2545C120.616 87.5757 119.588 81.7084 117.603 76.4396C116.003 72.1941 113.609 68.3873 111.618 64.4409C106.361 54.0223 99.3919 45.155 88.2279 40.7796C72.7419 34.5332 53.9371 33.698 38.5677 39.8523C22.1226 46.4371 20.0006 53.5921 19.5587 69.9847C19.4362 74.5336 16.7798 81.9226 18.7413 86.6774L18.607 87.1276L18.157 87.3009C15.3466 86.8244 12.1313 79.4894 10.3295 78.1894Z" fill="#69BA87"/>
<path d="M75.2561 21.2351C80.5847 21.0946 80.9771 28.2087 76.5691 30.1553C70.9082 30.2845 70.9671 23.3809 75.2561 21.2351Z" fill="#132221"/>
<path d="M42.9064 23.1173C47.1142 24.3772 46.836 30.3253 42.9076 32.057C41.5732 31.7986 40.361 31.1783 39.937 29.8469C38.8923 26.5671 39.9192 24.3305 42.9064 23.1173Z" fill="#132221"/>
<path d="M115.165 28.8772C117.911 31.6583 120.292 34.7784 122.25 38.162C125.691 44.2056 127.536 50.683 130.22 57.0096C132.197 61.6721 134.934 65.8651 136.652 70.7415C139.141 77.8107 137.75 83.6618 132.253 88.8693C120.511 99.995 102.837 102.38 87.5645 105.155C83.5751 105.859 79.3478 106.013 75.3625 106.677C74.4235 106.833 74.1604 107.2 73.6905 107.875C74.1631 109.954 81.5102 108.603 83.3012 108.531L83.3781 108.738C82.2087 109.186 77.349 109.324 76.5629 109.811C78.7224 110.861 90.3492 107.867 93.4606 108.322C90.0613 109.235 84.7397 109.682 81.1354 110.129C78.3841 110.47 76.147 109.919 73.277 110.831L72.3097 111.296C70.8166 111.141 69.5271 111.641 68.1468 112.12C66.8854 111.059 65.7275 110.11 64.4147 109.114C59.6065 105.962 52.4756 105.702 46.9722 104.168C34.6244 100.726 11.8958 93.0644 10.3295 78.1889C12.1313 79.489 15.3466 86.824 18.157 87.3004L18.607 87.1272L18.7413 86.677C21.5409 91.5218 22.4597 90.8736 27.0219 93.5158C27.9527 94.0551 30.401 96.5257 31.4755 97.3607C34.9053 99.9274 39.8459 101.501 43.9283 102.575C60.8857 107.037 78.8769 106.002 95.7204 101.547C103.173 99.5763 110.862 97.3804 116.83 92.254L116.731 92.928C118.766 93.2362 122.762 89.965 124.235 88.639C134.912 79.0277 128.99 66.2436 124.994 54.9478C122.981 49.2569 121.364 42.9014 118.99 37.2594C117.916 34.6292 115.089 31.4331 115.165 28.8772Z" fill="#69BA87"/>
<path d="M64.4147 109.115C65.4291 108.564 72.2337 110.172 73.2769 110.832L72.3096 111.297C70.8166 111.143 69.5271 111.642 68.1467 112.121C66.8853 111.06 65.7275 110.111 64.4147 109.115Z" fill="#C0E9BA"/>
<path d="M25.5642 89.0433C18.5313 83.5817 22.9791 77.3439 23.7148 70.2374C24.0913 66.6019 23.686 62.8018 24.1697 59.2621C24.3078 58.2248 24.5382 57.2019 24.8585 56.2058C26.7458 50.3233 31.0233 47.4857 36.339 44.8091C49.695 38.0843 68.1391 37.906 82.2438 42.4813C101.087 48.5943 105.103 60.8381 113.015 76.5537C114.826 80.9207 115.689 84.111 114.548 88.8917C112.135 91.7454 110.705 92.1078 107.616 89.9088C103.659 86.2011 102.364 73.6155 99.9042 74.1453C97.3021 76.7298 101.39 86.4511 102.702 89.5851C99.4479 95.1716 94.8626 97.6706 88.4232 99.225C72.4836 103.073 49.9612 103.257 35.2729 95.5426C30.7977 93.0007 28.1432 88.7023 28.0164 83.5451C27.9743 81.8437 28.0894 77.6011 26.6624 76.7635C23.2672 76.9854 25.1762 86.7129 25.5642 89.0433Z" fill="white"/>
<path d="M113.015 76.5524C114.826 80.9194 115.689 84.1097 114.548 88.8903C112.135 91.7441 110.705 92.1065 107.616 89.9074C108.456 89.1853 109.219 89.3275 110.775 87.7219C114.408 83.9726 111.985 82.1299 112.66 77.8818C112.636 78.0312 112.943 77.0492 113.015 76.5524Z" fill="white"/>
<path d="M56.9085 78.7812C67.0307 78.1727 68.9168 85.9314 59.8104 88.7161L60.8458 91.6798C60.717 92.3302 60.4202 92.5828 59.9933 93.0954C59.3241 93.3035 59.5642 93.2561 58.7576 92.9404C57.4001 91.4692 57.3559 90.3862 57.0229 88.4567C55.2012 87.7688 54.3917 87.0527 52.9688 85.8178C51.3761 81.6782 52.6502 79.5952 56.9085 78.7812Z" fill="#132221"/>
<path d="M79.0395 70.37C87.3749 69.3264 88.4933 78.3249 83.047 81.9852C82.2471 82.2554 81.2969 82.4255 80.4545 82.3141C79.2039 82.1519 78.0765 81.4775 77.3411 80.4515C75.1013 77.3836 75.9478 72.6253 79.0395 70.37Z" fill="#132221"/>
<path d="M38.7004 70.3582C41.6607 70.0952 42.4507 70.5413 44.1001 73.0088C44.5314 76.1722 44.6881 76.9292 44.0641 80.0399C43.0977 80.9945 42.7573 81.3412 41.5867 82.0604C35.8899 82.385 35.3477 78.1516 35.5473 73.4864C36.5543 71.7112 36.9092 71.3223 38.7004 70.3582Z" fill="#132221"/>
<path d="M111.627 103.469C118.557 112.219 121.332 129.351 120.076 140.297C119.444 146.046 116.53 151.299 111.99 154.873C104.816 160.541 92.006 164.484 82.6836 164.582C79.9696 164.611 81.526 160.758 81.8165 159.201C78.6479 162.964 76.9511 166.843 70.948 167.365C68.3281 167.593 65.7253 166.771 63.7097 165.079C62.9925 164.475 62.2671 163.578 61.7611 162.784C58.3623 158.783 56.6956 145.956 63.0475 143.413L63.3181 143.587C63.2306 144.001 62.8911 145.669 63.0237 145.95C65.1359 150.437 66.795 143.822 67.1743 142.802L70.2152 143.016C70.0244 144.809 69.3627 147.271 71.2808 148.31L71.8673 148.085C73.0539 146.791 73.0402 145.978 73.1183 144.283C76.4143 146.316 76.701 148.055 78.8982 150.972C79.4088 151.65 79.7663 151.851 80.5277 151.944C82.7769 149.626 78.6327 144.646 76.9874 142.99L77.1822 142.944C81.1284 142.029 87.9984 141.929 91.4885 144.115C91.6771 143.887 91.6761 143.833 91.8066 143.563C91.0896 142.077 87.8059 141.167 86.259 140.711C87.2288 140.064 91.2725 140.355 92.9716 140.149C96.6516 140.106 112.912 137.305 114.612 134.182L114.446 133.797C113.599 133.234 112.955 133.262 111.931 133.171C112.755 132.136 113.643 131.103 114.155 129.882L114.227 129.707C114.914 128.071 115.083 126.507 115.356 124.755C113.826 127.854 112.572 130.018 109.852 132.267C103.644 137.401 90.3746 137.733 82.8098 136.871C83.7091 135.353 84.0005 134.594 84.6334 132.939L84.6817 132.779C85.9861 128.314 85.5964 121.967 83.3398 117.801C87.5339 117.284 89.9044 117.619 94.1417 118.283C95.6924 118.526 98.8642 119.148 100.187 118.966C99.3486 117.413 96.8474 116.467 95.2773 115.872C93.383 115.26 92.9022 115.274 90.8876 115.098C92.4005 114.212 96.0456 112.61 96.8015 111.584C95.0012 110.743 93.0034 111.459 91.1845 112.096C89.9241 112.835 88.3717 113.695 87.2079 114.52C86.5889 114.523 85.1255 114.581 84.6135 114.418C83.4828 114.504 82.2451 114.572 81.1272 114.695C80.1505 114.779 79.73 114.888 78.7759 115.142C76.2935 112.936 75.4463 112.237 72.3096 111.297L73.2769 110.832C76.1469 109.92 78.384 110.471 81.1353 110.13C84.7396 109.683 90.0613 109.237 93.4606 108.323C90.3491 107.868 78.7223 110.862 76.5628 109.812C77.349 109.325 82.2086 109.187 83.378 108.74L83.3011 108.532C84.5346 108.141 90.7799 107.312 92.4724 107.032C98.8743 105.939 105.26 104.751 111.627 103.469Z" fill="#69BA87"/>
<path d="M93.6932 142.162C96.4502 141.11 103.768 139.854 106.252 141.114C111.798 143.925 108.353 151.05 103.367 152.249C101.174 152.776 99.832 152.888 97.6657 152.891C92.5269 156.524 89.988 158.652 83.5942 159.013C82.7516 158.492 81.5313 157.49 80.4917 157.72C77.8653 158.301 78.4713 164.098 69.9545 164.347C66.4673 164.449 64.2448 162.906 61.7611 162.783C58.3623 158.782 56.6956 145.955 63.0475 143.412L63.3181 143.586C63.2306 144 62.8911 145.668 63.0237 145.95C65.1359 150.436 66.795 143.821 67.1743 142.801L70.2152 143.015C70.0244 144.808 69.3627 147.271 71.2808 148.309L71.8673 148.084C73.0539 146.79 73.0402 145.977 73.1183 144.282C76.4143 146.315 76.701 148.054 78.8982 150.971C79.4088 151.649 79.7663 151.85 80.5277 151.943C82.7768 149.625 78.6327 144.645 76.9874 142.989L77.1822 142.943C81.1284 142.028 87.9983 141.928 91.4885 144.114C92.3099 145.535 97.1501 148.231 98.8709 147.329C99.4843 145.56 95.0694 142.952 93.6932 142.162Z" fill="#69BA87"/>
<path d="M93.4606 108.323C102.414 106.612 111.69 103.705 112.167 117.499C112.28 120.769 111.809 123.59 109.902 126.37C105.479 132.724 91.8429 135.31 84.9215 133.228L84.6334 132.939L84.6817 132.778C85.9861 128.314 85.5964 121.967 83.3398 117.801C87.5339 117.284 89.9044 117.618 94.1418 118.283C95.6925 118.526 98.8642 119.148 100.187 118.965C99.3486 117.413 96.8474 116.467 95.2773 115.872C93.383 115.26 92.9022 115.274 90.8876 115.097C92.4006 114.212 96.0457 112.61 96.8015 111.584C95.0012 110.743 93.0034 111.459 91.1846 112.096C89.9241 112.835 88.3717 113.694 87.2079 114.52C86.589 114.523 85.1255 114.581 84.6135 114.418C83.4828 114.504 82.2452 114.572 81.1272 114.694C80.1505 114.779 79.73 114.888 78.7759 115.142C76.2935 112.936 75.4463 112.237 72.3096 111.297L73.2769 110.832C76.1469 109.92 78.3841 110.471 81.1354 110.13C84.7396 109.683 90.0613 109.237 93.4606 108.323Z" fill="#69BA87"/>
<path d="M90.3264 111.105C92.2833 110.091 95.3672 109.036 97.2199 110.688L97.3205 111.088L96.8016 111.583C95.0012 110.742 93.0034 111.458 91.1846 112.095C91.0722 112.005 90.4619 111.264 90.3264 111.105Z" fill="#69BA87"/>
<path d="M95.2773 115.871C97.3972 114.612 101.365 116.618 101.491 118.752C100.84 119.093 101.067 118.987 100.187 118.964C99.3486 117.412 96.8474 116.466 95.2773 115.871Z" fill="#69BA87"/>
<path d="M90.3264 111.106C90.4619 111.265 91.0722 112.006 91.1846 112.096C89.9242 112.835 88.3718 113.695 87.208 114.52C86.589 114.523 85.1256 114.581 84.6136 114.418C85.1265 114.138 85.2875 113.762 85.6049 113.26C87.1642 112.959 88.8949 111.889 90.3264 111.106Z" fill="#69BA87"/>
<path d="M81.1272 114.695C81.6383 112.584 83.9122 113.07 85.6048 113.26C85.2875 113.762 85.1265 114.138 84.6135 114.418C83.4828 114.504 82.2452 114.572 81.1272 114.695Z" fill="#69BA87"/>
<path d="M10.3807 133.958C11.349 133.668 12.689 133.393 13.6988 133.153C13.3514 135.03 12.6474 137.925 15.2382 138.325C16.5859 137.445 16.4283 135.904 17.0477 134.224C22.4559 134.917 23.7225 142.153 26.4393 141.547C28.0599 139.711 25.8407 137.225 24.7703 135.573C23.9986 134.62 23.231 134.119 22.2552 133.4L27.7607 133.778C29.989 134.134 34.173 135.773 35.395 135.769C35.3565 135.034 33.5783 134.123 32.9116 133.719C36.4728 134.456 40.1182 134.645 43.4358 135.314C52.1049 136.56 54.0073 136.259 61.7523 140.351C60.162 141.07 59.6834 141.476 58.3232 142.542C56.2257 145.139 55.4643 147.405 55.0916 150.728L55.2031 155.483C51.071 154.623 44.3382 152.978 41.1244 150.375C37.6045 152.241 33.8022 154.506 29.8924 155.284C29.8446 154.094 29.748 151.451 28.9027 150.563C27.3218 153.201 28.3451 158.017 23.0349 159.053C20.2411 159.599 16.3576 159.578 14.1388 157.592C9.24859 154.755 1.49347 143.936 4.59629 137.845C4.92329 137.203 5.60732 136.225 6.33053 136.013C7.86488 136.848 7.08114 139.514 8.8584 139.273C10.5028 137.858 9.94417 136.485 10.3807 133.958Z" fill="#69BA87"/>
<path d="M22.2552 133.4L27.7607 133.778C29.989 134.134 34.173 135.773 35.395 135.769C35.3565 135.034 33.5783 134.123 32.9116 133.719C36.4728 134.456 40.1182 134.645 43.4358 135.314C52.1049 136.56 54.0073 136.259 61.7523 140.351C60.162 141.07 59.6834 141.476 58.3232 142.542C56.2257 145.139 55.4643 147.405 55.0916 150.727L55.2031 155.483C51.071 154.623 44.3382 152.978 41.1244 150.374C37.6045 152.24 33.8022 154.506 29.8924 155.284C29.8446 154.093 29.748 151.451 28.9027 150.563C27.3218 153.201 28.3451 158.017 23.0349 159.053C20.2411 159.599 16.3576 159.578 14.1388 157.592C15.4566 156.584 19.3778 157.671 22.4335 155.735C26.7689 152.989 24.6454 148.646 26.4623 147.513C27.397 147.557 28.6007 148.628 29.4469 149.14C32.0442 150.713 37.16 144.741 39.6537 145.997C42.5163 147.439 45.4492 149.815 48.4312 151.505C42.6859 144.225 38.3995 138.282 29.3958 135.515C27.9517 135.277 26.0894 134.902 24.7704 135.573C23.9986 134.62 23.231 134.119 22.2552 133.4Z" fill="#69BA87"/>
<path d="M43.4357 135.315C52.1048 136.562 54.0072 136.26 61.7523 140.353C60.1619 141.071 59.6833 141.478 58.3232 142.544C56.2256 145.141 55.4642 147.406 55.0916 150.729C54.1218 150.708 51.4445 149.365 50.6055 148.757C47.0049 146.146 44.6896 143.203 43.8139 138.833C43.4864 138.116 43.4518 136.167 43.4357 135.315Z" fill="#C0E9BA"/>
<path d="M43.4357 135.315C52.1048 136.562 54.0072 136.26 61.7523 140.353C60.1619 141.071 59.6833 141.478 58.3232 142.544C57.0353 140.727 46.8561 138.955 44.2923 138.488L43.8139 138.833C43.4864 138.116 43.4518 136.167 43.4357 135.315Z" fill="#C0E9BA"/>
<path d="M23.0186 109.144C23.1336 108.161 22.964 108.492 23.5964 107.848C26.3458 106.973 36.0699 109.516 38.9975 109.524C39.7193 109.413 40.3913 109.411 40.8947 108.937C40.5172 108.867 40.2104 108.813 39.8368 108.708C40.048 108.41 39.9079 108.505 40.2803 108.433C43.8654 109.036 48.5104 109.866 51.9994 110.822C51.9011 111.847 52.0686 111.588 51.479 112.308L51.6618 112.419C53.1476 119.289 54.4873 127.373 55.8799 134.411C53.9403 134.312 47.0924 133.244 44.8742 132.888C40.9151 132.253 33.0456 131.572 29.518 130.586C27.7864 127.744 23.9852 113.024 23.0186 109.144Z" fill="#3E4D51"/>
<path d="M23.0186 109.144C23.1336 108.161 22.964 108.492 23.5964 107.848C26.3458 106.973 36.0699 109.516 38.9975 109.524C39.7193 109.413 40.3913 109.411 40.8947 108.937C40.5172 108.867 40.2104 108.813 39.8368 108.708C40.048 108.41 39.9079 108.505 40.2803 108.433C43.8654 109.036 48.5105 109.866 51.9994 110.822C51.9011 111.847 52.0686 111.588 51.479 112.308L51.6618 112.419C51.6969 113.189 51.8206 113.8 51.4494 114.443C44.2198 112.523 30.4455 109.524 23.0186 109.144Z" fill="#839098"/>
<path d="M40.2802 108.434C43.8653 109.037 48.5104 109.867 51.9993 110.822C51.901 111.848 52.0685 111.588 51.4789 112.308C47.2939 111.391 43.211 110.407 38.9974 109.525C39.7192 109.413 40.3912 109.412 40.8946 108.938C40.5171 108.868 40.2103 108.813 39.8367 108.709C40.0479 108.411 39.9078 108.505 40.2802 108.434Z" fill="#132221"/>
<path d="M145.121 122.679C145.126 126.014 145.443 132.411 143.535 135.283C139.271 145.44 130.941 150.726 120.198 151.899C120.741 150.939 122.577 147.584 122.858 146.631C122.906 146.048 123.069 145.485 123.214 144.92C124.016 141.794 124.22 138.596 124.41 135.386C124.393 135.166 124.379 134.945 124.367 134.724C124.343 134.346 124.256 133.087 124.67 133.038C132.377 132.132 137.43 131.771 143.053 125.432L145.121 122.679Z" fill="#69BA87"/>
<path d="M126.337 145.73C134.922 143.879 141.524 135.744 143.535 135.282C139.271 145.44 130.941 150.725 120.198 151.899C120.741 150.939 122.577 147.584 122.858 146.63C123.966 146.207 125.177 145.983 126.337 145.73Z" fill="#C0E9BA"/>
<path d="M143.053 125.432C143.617 125.233 143.788 125.14 144.143 124.657L144.429 124.785C143.519 128.538 143.144 129.25 139.972 131.641C135.595 134.942 131.575 134.945 126.402 135.765C126.03 135.625 124.867 135.461 124.41 135.386C124.393 135.166 124.379 134.945 124.367 134.724C124.343 134.346 124.256 133.087 124.67 133.038C132.378 132.132 137.43 131.771 143.053 125.432Z" fill="#69BA87"/>
<path d="M124.41 135.384C124.867 135.459 126.03 135.624 126.402 135.763C128.024 139.318 128.906 140.748 127.591 144.765C127.176 145.081 126.743 145.4 126.337 145.728C125.177 145.981 123.966 146.205 122.858 146.629C122.906 146.046 123.07 145.483 123.214 144.918C124.016 141.792 124.22 138.595 124.41 135.384Z" fill="#69BA87"/>
<path d="M71.393 119.162C71.1898 117.735 70.887 116.203 70.648 114.783C70.5867 114.418 70.9855 114.187 71.2462 113.984C74.8005 113.586 77.5131 119.111 80.984 120.119C81.9778 123.174 82.4122 127.846 81.9453 131.01C81.7015 132.129 81.3151 134.152 80.2394 134.639C77.8781 135.707 69.7827 135.087 67.5341 134.493C66.4469 134.218 64.4452 133.584 63.9149 132.521C64.0713 131.643 64.371 131.672 65.2342 130.932C64.3402 130.098 59.6269 130.001 61.3073 127.064C62.0983 126.526 63.6896 126.473 64.7021 126.36C62.9106 125.723 59.8179 124.983 60.3804 122.533C62.0221 120.34 68.3599 119.735 71.393 119.162Z" fill="white"/>
<path d="M67.5341 134.495L68.1396 134.214C67.8666 134.117 67.6516 134.055 67.3748 133.976C70.8135 133.809 74.1739 133.776 77.5919 133.348C81.0278 132.918 79.6126 130.401 81.9453 131.012C81.7015 132.131 81.3151 134.154 80.2395 134.641C77.8781 135.709 69.7828 135.089 67.5341 134.495Z" fill="#DADAD7"/>
<path d="M58.7499 129.532C64.0516 135.008 60.3121 133.648 60.641 136.262C63.2804 139.417 64.9887 134.915 67.2058 136.712C67.5047 137.342 67.6482 137.542 67.5547 138.255C66.0131 140.199 58.6432 137.076 58.1429 135.015C56.7172 129.142 55.6982 123.018 54.3112 117.115C53.8383 115.104 53.26 112.698 54.4183 110.842C55.9133 108.446 59.5516 108.926 61.0209 111.097C61.9108 112.375 61.7361 114.269 60.8046 115.488L61.4644 115.72C61.5653 116.097 61.6333 116.382 61.7861 116.747L61.7506 117.008C63.4279 116.227 62.9502 112.917 62.9202 111.325C63.8455 111.952 66.5504 113.616 66.7587 114.639C65.7832 115.103 64.9951 115.078 64.3707 115.826C64.5401 116.759 65.018 116.4 65.6342 117.422C64.1153 118.793 54.2384 119.17 58.4106 125.538C58.7869 126.112 58.4476 128.214 58.7499 129.532Z" fill="#839098"/>
<path d="M61.7507 117.007C59.6726 116.962 56.5218 116.1 55.5369 114.081L55.9713 113.58C57.6661 113.298 57.6962 114.936 60.8048 115.488L61.4645 115.719C61.5655 116.097 61.6334 116.382 61.7863 116.746L61.7507 117.007Z" fill="#132221"/>
<path d="M12.4647 112.003C15.9253 111.753 17.9515 112.652 19.9173 115.45C19.2417 116.592 18.1103 117.714 17.7501 118.483C18.9878 118.507 19.6341 117.996 20.6716 118.426C21.1492 119.042 21.0226 118.746 21.061 119.636C20.4375 120.702 18.9099 121.865 17.9931 122.796C19.3287 123.752 20.1502 122.212 22.0814 122.687C21.2153 126.057 19.2186 126.015 16.1093 126.432C10.0757 124.252 4.774 112.935 12.4647 112.003Z" fill="white"/>
<path d="M18.2048 102.875C20.5108 102.131 21.8861 102.795 23.9029 103.829L24.1672 103.965C23.6708 104.505 21.6067 106.692 21.3261 107.159C20.4933 109.989 25.6764 124.671 26.659 128.451C27.3753 131.206 26.0173 130.713 23.5091 130.752L23.5353 130.273L24.4022 129.444C24.6776 128.409 24.5889 128.693 24.2761 127.547C23.5065 127.451 23.1271 127.437 22.4027 127.109C22.4981 126.534 23.4479 125.917 23.994 125.453C24.5022 121.903 21.9078 115.677 20.6663 112.216C19.6295 109.326 11.4037 110.731 12.0827 107.925C12.9967 106.783 14.6889 106.51 16.0575 106.215C15.7391 105.429 15.7322 105.529 15.6351 104.816L16.4919 104.035C16.655 103.828 17.9085 103.056 18.2048 102.875Z" fill="#839098"/>
<path d="M17.8946 107.829C18.5123 106.951 18.8122 106.513 19.7682 106.209C20.5688 106.552 20.3408 106.461 20.9114 107.226C20.187 108.025 19.8557 108.472 18.9129 108.981L17.8946 107.829Z" fill="#132221"/>
<path d="M16.0576 106.215C16.7609 107.128 16.838 107.382 17.8947 107.831L18.9129 108.983C17.6037 109.057 16.7147 109.34 15.7539 108.346C15.5206 107.49 15.7594 107.055 16.0576 106.215Z" fill="#132221"/>
<path d="M53.3715 10.564C53.9793 9.43506 55.1439 7.86454 55.9459 6.82098C59.5833 2.08849 62.4118 2.93065 66.4886 6.09455C68.0071 7.2488 69.3819 8.64848 70.6027 10.1134C65.8844 10.5547 61.265 10.7219 56.5802 11.4871C55.9104 11.5963 53.0882 12.0824 52.6574 11.8581C52.7727 11.2055 52.9358 11.0761 53.3715 10.564Z" fill="#69BA87"/>
<path d="M66.4886 6.09412C68.0071 7.24836 69.3819 8.64805 70.6027 10.1129C65.8844 10.5542 61.265 10.7215 56.5802 11.4866C55.9104 11.5959 53.0882 12.0819 52.6574 11.8577C52.7727 11.2051 52.9358 11.0756 53.3715 10.5636C55.1216 10.2438 56.6401 9.27678 58.3205 8.93655C60.4452 8.50656 63.8726 8.77774 65.8423 8.16055C66.4711 7.36097 66.3082 7.2462 66.4886 6.09412Z" fill="#69BA87"/>
<path d="M40.2803 108.433C37.9884 107.896 26.4942 106.717 25.536 105.965C25.8047 105.441 26.7381 104.737 27.0692 104.729C34.7248 104.549 46.4112 107.411 53.3434 108.587C53.0337 109.082 52.194 110.359 51.9993 110.821C48.5104 109.866 43.8653 109.036 40.2803 108.433Z" fill="#839098"/>
<path d="M121.969 118.486C121.907 118.048 121.69 116.974 122.113 116.695C123.862 115.538 127.546 115.101 129.074 116.753C127.313 120.074 126.193 120.831 123.12 122.858C122.692 121.574 121.991 119.789 121.969 118.486Z" fill="#69BA87"/>
<path d="M121.969 118.486C121.907 118.048 121.69 116.974 122.113 116.695C123.862 115.538 127.546 115.101 129.074 116.754C127.505 117.075 123.411 117.962 121.969 118.486Z" fill="#69BA87"/>
<path d="M123.531 126.844L123.798 126.274C125.446 125.781 128.913 127.233 130.102 128.479L130.205 129.014C129.703 129.408 129.42 129.338 128.769 129.344C127.541 129.766 125.477 129.792 124.302 129.184C123.682 128.637 123.663 127.704 123.531 126.844Z" fill="#69BA87"/>
<path d="M24.2761 127.546C24.5889 128.692 24.6776 128.407 24.4022 129.443L23.5354 130.272L23.5092 130.75C20.4323 130.732 19.9609 130.563 17.7358 128.56C18.7358 128.272 20.5798 127.564 21.4599 127.847C21.9282 127.516 23.5877 127.576 24.2761 127.546Z" fill="#839098"/>
<path d="M24.2761 127.546C24.5889 128.692 24.6776 128.407 24.4022 129.443L23.5354 130.272C22.7093 130.096 21.7437 129.994 21.1682 129.414C20.9344 128.57 21.0027 128.824 21.4599 127.847C21.9282 127.516 23.5877 127.576 24.2761 127.546Z" fill="#132221"/>
<path d="M73.5485 138.057C75.2929 138.501 77.3236 139.072 79.0788 139.295L79.0108 139.879C77.1934 139.752 72.8445 140.918 72.1624 139.81C72.2547 139.075 72.9776 138.575 73.5485 138.057Z" fill="#C0E9BA"/>
<path d="M138.108 125.104L138.348 125.294C138.029 126.24 135.109 127.645 134.153 128.162C133.627 127.363 133.793 126.908 134.141 126.14C135.292 125.097 136.642 125.129 138.108 125.104Z" fill="#69BA87"/>
<path d="M119.021 109.343C120.196 109.271 121.07 109.031 121.923 109.896C122.087 110.74 121.686 111.269 121.272 112.036C120.859 112.303 120.885 112.3 120.4 112.316C119.908 111.659 119.41 110.205 119.021 109.343Z" fill="#69BA87"/>
<path d="M79.0787 139.296C81.4893 139.399 83.5919 139.794 85.9655 140.005C88.2438 140.208 90.6993 140.054 92.9717 140.15C91.2726 140.356 87.2289 140.065 86.2591 140.713C83.8127 140.599 82.5792 139.835 79.0107 139.88L79.0787 139.296Z" fill="#3E4D51"/>
</svg>
