<svg width="94" height="131" viewBox="0 0 94 131" fill="none" xmlns="http://www.w3.org/2000/svg">
<path d="M47.2421 0.00163343C49.4797 -0.062872 51.0136 1.79594 52.4362 3.30801C53.2516 4.16668 54.0491 5.0415 54.8285 5.93174C57.4397 8.90859 57.3832 7.93662 60.9228 8.92555C64.2327 9.85034 68.7043 11.8383 71.6034 13.7862C74.1949 15.5268 78.4207 19.5828 80.421 22.0404C82.4123 24.4865 84.4871 28.2235 85.8344 31.0775C87.2149 34.1944 88.041 37.3672 89.1632 40.5098C90.4926 43.6174 91.8192 46.7578 93.0284 49.9002C97.0425 60.3359 87.8742 68.6374 79.1526 72.3538C77.9085 72.8849 76.2939 73.3272 74.9403 73.8036C76.3952 75.7065 76.9568 77.0325 77.5102 79.3202C77.5667 79.5535 79.0988 81.1585 79.4128 81.5443C80.7897 83.2327 81.5028 85.245 82.3818 87.217C83.2824 89.2805 83.4896 92.2375 82.4805 94.3216C81.0166 97.3432 79.3715 98.6764 76.2966 99.8355C76.598 100.334 76.7128 100.488 77.0814 100.929C79.315 100.805 82.041 100.174 84.0054 101.689C85.4047 102.768 85.5483 103.938 85.7519 105.515C87.5746 104.69 88.7281 103.44 90.454 102.747C91.8183 102.199 93.0364 103.313 93.1862 104.77C93.5199 108.003 91.8766 111.329 90.0324 113.891C89.3704 114.811 88.5452 115.831 87.7289 116.625C85.2083 118.679 81.684 120.484 78.583 121.457C77.4358 121.818 75.9647 122.021 74.8075 122.201C76.7792 131.472 65.145 131.252 59.1342 130.858C58.683 130.809 58.2318 130.758 57.7815 130.703C54.5299 130.309 51.3446 129.477 49.0187 127.02C48.4212 126.389 47.5888 125.168 47.008 124.427C45.191 127.001 43.436 128.938 40.3358 129.862C37.5337 130.697 34.7549 131.006 31.8283 130.983C27.6165 130.948 21.0073 130.865 19.3528 126.056C18.5478 123.644 19.612 121.583 20.729 119.501C18.5444 115.349 18.9085 104.945 19.4397 100.316C17.5472 99.927 15.5917 99.36 14.1418 98.0358C9.00831 93.3482 10.8401 87.3901 14.222 82.2907C14.7696 81.4644 15.5402 80.6642 16.2261 79.907C16.5827 77.2003 17.3818 75.7845 18.8576 73.4771C18.0434 73.2797 15.9335 72.8185 15.2158 72.5234C12.5665 71.4342 9.75372 69.735 7.46429 68.0061C6.68237 67.4155 6.1491 66.7395 5.46962 66.1278C2.68604 63.622 0.524888 60.3471 0.0824849 56.5207C-0.104989 54.7876 0.0277668 53.0347 0.474027 51.3497C1.48495 47.5667 3.80317 43.3927 5.18474 39.7036C6.50907 36.1678 7.30929 32.3958 9.05836 29.0002C10.4422 26.3139 12.3229 23.578 14.1507 21.1689C14.5905 20.5893 16.0944 19.2206 16.6681 18.6355C18.3307 16.9397 20.3623 15.3212 22.249 13.8761C23.064 13.252 24.5247 12.6147 25.4752 12.0956C29.3005 10.0065 33.5235 8.53914 37.8858 8.06733C38.9718 7.18283 40.4259 5.23618 41.5092 4.18363C43.238 2.50398 44.5719 0.247723 47.2421 0.00163343Z" fill="#0E2E2B"/>
<path d="M44.2092 27.1008C47.7781 26.7291 51.8236 27.2647 55.3685 27.7431C61.7821 28.6084 68.9617 31.6702 72.6493 37.2103C73.4369 38.393 73.9186 41.0309 74.4299 42.5404L76.4006 48.421C77.8349 52.6447 81.3494 61.1045 76.1189 64.0036C76.5728 60.9151 76.5934 56.0426 75.361 53.1539C75.1457 52.6488 74.115 51.9829 73.6441 52.5623C72.8422 53.5472 73.3902 55.7584 73.479 56.96C73.8639 62.1856 73.3301 64.9615 69.856 68.9268C63.9807 65.4291 55.8332 67.0128 50.7436 71.1516C50.0511 71.7141 49.3541 72.2722 48.6616 72.8338C48.0158 73.3173 47.3924 74.036 46.8473 74.6415C45.8099 73.407 44.5676 72.4498 43.3472 71.4073C41.4838 69.8157 39.2775 68.7463 36.9772 67.9422C32.5858 66.4069 28.1953 66.7448 24.0615 68.8464C20.1796 64.6391 20.3328 60.2439 21.0403 54.8209C21.41 51.9876 19.146 52.1384 18.6025 53.3086C17.4148 55.8659 17.5314 61.2423 17.9741 64.0074C16.3387 63.0577 15.4523 61.6244 15.2828 59.7438C15.1601 58.3395 15.2325 56.925 15.4979 55.5406C16.5299 50.3641 19.1195 44.8894 20.471 39.732C20.7468 38.6796 21.6205 36.495 22.3562 35.7051C26.5656 31.1849 32.479 28.4641 38.5696 27.7231C40.5358 27.4736 42.2266 27.2427 44.2092 27.1008Z" fill="#FCFEFD"/>
<path d="M46.0382 51.8528C47.259 51.7146 48.6949 51.7462 49.8323 52.2991C51.4774 53.0988 52.2066 55.2936 51.3016 56.9064C50.6719 58.0291 49.5111 58.3615 48.3495 58.6917C48.3639 59.634 48.4922 61.7094 48.1737 62.5242C45.5086 64.1116 46.1307 60.1811 46.1391 58.7169C44.5408 58.3048 43.0168 57.6015 42.7486 55.7548C42.6204 54.8156 42.8753 53.8645 43.4559 53.1153C44.1877 52.1793 44.9599 52.0049 46.0382 51.8528Z" fill="#0E2E2B"/>
<path d="M61.6127 46.1984C66.4735 45.5949 67.2333 52.6417 63.1968 53.9399C59.1827 54.8861 57.0738 48.132 61.6127 46.1984Z" fill="#0E2E2B"/>
<path d="M31.6255 46.1162C35.9432 46.3097 36.4441 52.9609 32.2277 54.0564C27.7127 54.3284 27.2701 46.7283 31.6255 46.1162Z" fill="#0E2E2B"/>
<path d="M44.6348 10.7716C50.2431 10.4075 60.1362 11.5973 65.2877 13.995C70.7863 16.7007 75.3861 20.9279 79.0289 25.8057C82.4204 30.3467 84.0162 35.5794 85.8856 40.8518C86.4399 42.4145 87.2158 43.9896 87.8554 45.535C88.6125 47.3866 89.3103 49.2619 89.9463 51.1582C91.011 54.3394 90.9366 56.6947 89.4234 59.6614C87.5666 63.3011 86.2076 64.3453 82.9775 66.4726C78.9248 69.1411 76.3827 69.7646 71.8726 71.2664C73.402 70.0463 73.8523 69.1114 74.9296 67.454C79.5195 67.1312 81.8903 63.4613 81.9863 59.1383C82.1155 53.3162 79.9375 48.3322 78.1265 42.9472C77.399 40.783 76.8931 38.5366 75.9252 36.462C71.8708 27.7447 59.0992 24.1291 50.2332 23.8173C49.094 23.7064 47.4731 23.7234 46.318 23.7403C40.1295 23.8305 33.9403 24.8156 28.2806 27.4058C26.2327 28.3431 25.6077 28.5945 23.6572 29.9395C21.5352 31.4029 19.716 33.6866 18.4094 35.8889C17.6792 37.1195 16.8949 40.3052 16.3768 41.8553C14.9397 46.1545 13.2035 50.613 12.3979 55.0789C11.8535 58.0965 11.8835 61.9855 13.7803 64.5617C14.961 66.1652 17.1816 67.1224 19.1246 67.4184C19.8612 68.8229 20.6039 69.6802 21.5812 70.9291C16.6333 69.8704 12.2411 67.6445 8.23503 64.5027C5.88668 62.6609 3.60272 58.8018 3.30438 55.8125C3.00011 52.7642 4.37486 49.829 5.58116 47.1086C6.00858 46.227 6.26216 45.177 6.65828 44.2994C9.96661 36.9695 11.2949 29.3357 16.9125 23.2044C20.8331 18.9251 25.2263 15.3692 30.7167 13.2551C31.499 12.9538 32.5874 12.7361 33.4165 12.5306C37.0958 11.6096 40.8503 11.0209 44.6348 10.7716Z" fill="#6BBD8A"/>
<path d="M58.1709 15.949C61.3499 15.8243 62.0782 20.4604 58.8329 21.6118C58.4247 21.6606 58.0121 21.5924 57.6417 21.4151C55.3426 20.3324 55.5884 16.7695 58.1709 15.949Z" fill="#0E2E2B"/>
<path d="M36.0385 16.0474C39.085 16.3529 39.5823 20.7873 36.3041 21.836C33.355 21.8908 32.5857 16.7961 36.0385 16.0474Z" fill="#0E2E2B"/>
<path d="M31.1283 70.2528C35.2354 70.2348 38.8635 71.908 42.1304 74.4272C43.2972 75.1934 45.2803 78.2123 46.4574 78.5784C47.9441 79.0395 50.9823 74.6058 52.3081 73.7535C55.8252 71.4935 59.6778 69.7019 63.944 70.3631C67.0243 70.8413 70.4069 72.6275 72.3148 75.1028C74.4058 77.8911 74.3851 81.2698 73.9483 84.5507C69.0919 81.8646 63.0595 82.8085 60.5838 88.2766C59.8106 89.9848 59.6859 92.9239 60.3954 94.6635C61.1687 96.5592 62.8389 98.0188 64.7029 98.8128C63.6211 99.9369 62.4917 101.015 61.3194 102.044C59.6949 103.219 58.2283 104.475 56.6271 105.67C53.4948 108.007 50.1992 109.779 46.8486 111.728C45.6056 110.899 44.1496 110.165 42.8465 109.378C38.9636 107.031 35.3572 104.404 31.8511 101.531C30.8679 100.726 29.8166 99.5619 28.9283 98.6406C37.5358 94.7092 33.3717 82.5788 24.6709 83.1045C22.6577 83.2265 21.589 83.7074 19.792 84.531C19.2221 81.2241 19.3696 78.8331 20.9832 75.8322C22.8308 72.3952 27.3976 70.4295 31.1283 70.2528Z" fill="#FEADB9"/>
<path d="M25.6489 100.115C25.6906 100.108 25.8635 100.12 25.8807 100.139C31.3028 106.185 38.1008 110.209 44.9485 114.38C47.9333 116.198 49.9363 113.55 52.3968 112.153C58.1466 108.885 63.3743 104.949 67.8656 100.075C69.2317 100.439 70.5719 100.462 71.9685 100.455C72.3273 105.831 72.5076 111.455 71.4124 116.777C71.267 117.663 70.1996 119.72 70.3781 120.538C70.7656 122.312 72.8996 123.173 71.6178 125.395C71.0482 126.383 70.3171 126.691 69.2317 127.018C69.0703 126.372 68.6532 122.105 66.4143 124.039C65.8285 124.545 66.2887 126.82 66.4259 127.701C65.8922 127.764 64.2875 127.979 63.8838 127.702C63.8318 126.623 63.8937 124.718 63.124 123.949C62.8442 123.671 62.4612 123.523 62.0674 123.541C60.4886 123.616 60.9282 126.699 61.0107 127.748C54.7882 127.201 49.8152 126.62 49.0357 119.348C48.9406 118.463 48.9209 117.204 48.2813 116.549C47.9099 116.164 47.3906 115.958 46.8559 115.982C45.1149 116.071 45.0577 117.909 44.9232 119.215C44.7635 120.767 44.0795 123.428 42.9943 124.562C40.5897 127.076 36.2333 127.556 32.9292 127.756C32.9387 126.792 33.2408 124.664 32.6615 124.094C31.1347 122.59 30.0039 124.646 30.0683 126.124C30.0894 126.61 29.9856 127.479 29.9646 127.839C29.0515 127.826 28.3489 127.816 27.4352 127.717C27.4851 126.581 28.3365 123.85 26.5413 123.575C25.0769 123.352 24.8271 125.916 24.6883 126.959C24.016 126.665 23.2613 126.358 22.7684 125.761C20.9072 123.504 23.9087 121.515 23.7743 120.268C23.6019 118.669 22.7634 116.755 22.5389 114.905C21.967 110.192 22.0622 105.257 22.3479 100.536C23.6078 100.39 24.3623 100.445 25.6489 100.115Z" fill="#6BBD8A"/>
<path d="M74.978 113.89C75.2148 111.568 75.5413 105.987 75.1556 103.677C77.7569 106.545 81.7997 109.439 85.8551 108.77C87.545 108.491 88.6448 107.653 89.8844 106.549C89.2404 108.975 88.5057 111.009 86.7261 112.849C84.5751 115.158 81.9594 117.085 78.8871 117.89C77.2761 118.311 75.6786 118.817 74.0101 118.978C74.5322 117.072 74.7179 115.846 74.978 113.89Z" fill="#6BBD8A"/>
<path d="M74.978 113.89C76.2769 114.013 79.1275 114.138 80.2954 113.819C81.9172 113.378 83.4547 112.526 85.2989 112.564C85.7313 112.573 86.4354 112.563 86.7261 112.849C84.5751 115.158 81.9594 117.085 78.8871 117.89C77.2761 118.311 75.6786 118.817 74.0101 118.978C74.5322 117.072 74.7179 115.846 74.978 113.89Z" fill="#C0E9BA"/>
<path d="M77.251 84.5112C77.2726 84.522 77.295 84.5337 77.3174 84.5444C80.4704 87.8729 81.3575 94.1 76.4276 96.3133C75.3709 96.7879 74.9054 96.8758 74.0128 97.0221C73.4415 97.1199 72.6557 97.1656 72.0619 97.2167C72.9077 94.0991 73.4585 90.7106 72.679 87.5086C73.0288 87.6262 73.3823 87.7329 73.7384 87.8271C76.459 88.5511 76.7667 86.581 77.251 84.5112Z" fill="#6BBD8A"/>
<path d="M16.4388 84.8906L16.5603 85.0037C16.7586 85.9825 17.0076 86.8123 17.6082 87.6108C18.861 88.1886 19.9051 87.9607 21.1309 87.4242C20.7605 90.5867 20.7884 94.0721 21.5759 97.1772C21.1645 97.1592 20.7537 97.1278 20.3444 97.0839C16.0596 96.7806 13.384 93.7734 14.2444 89.4536C14.59 87.7194 15.4502 86.3315 16.4388 84.8906Z" fill="#6BBD8A"/>
<path d="M67.9222 86.3073C68.185 86.2714 68.7537 86.2768 69.0416 86.2705C70.4365 89.5577 69.8767 93.7169 68.707 96.9996C67.7221 96.7314 67.0835 96.5385 66.1658 96.1006C65.798 95.8817 65.4402 95.6646 65.0733 95.4242C62.8397 93.9403 62.6352 90.392 64.1727 88.3483C64.6983 87.6494 65.4697 87.1417 66.2448 86.7595C66.8466 86.4634 67.2754 86.3925 67.9222 86.3073Z" fill="#FCFEFD"/>
<path d="M24.443 86.3736C26.1612 86.3197 27.9274 86.492 29.0757 87.9409C30.9888 90.3542 30.7954 93.5293 28.4653 95.5219C27.3743 96.3033 26.2116 96.5922 24.9437 96.9519C23.7377 93.3732 23.3789 90.0725 24.443 86.3736Z" fill="#FCFEFD"/>
<path d="M47.0682 3.28296C48.6123 3.25057 51.1796 6.49612 52.0452 7.70046C50.6243 7.65228 49.2385 7.54498 47.7988 7.51376C46.1512 7.48784 44.3532 7.62044 42.7015 7.72074C43.8456 6.06208 45.2952 4.3041 47.0682 3.28296Z" fill="#6BBD8A"/>
<path d="M80.169 103.704C81.1207 103.656 82.0993 103.656 82.4061 104.852C82.4698 105.099 82.4564 105.637 82.3182 105.857L82.0509 105.803C81.519 105.567 79.5922 104.425 79.3464 103.958C79.5761 103.755 79.8541 103.754 80.169 103.704Z" fill="#6BBD8A"/>
</svg>
