<svg width="139" height="184" viewBox="0 0 139 184" fill="none" xmlns="http://www.w3.org/2000/svg">
<path d="M72.2947 0.0626018C78.4789 -0.704684 81.5487 5.74182 83.2239 10.5983C86.2448 9.22572 88.9131 8.16682 92.2333 7.73633C101.523 6.53162 102.8 14.7574 103.507 21.8808C104.351 22.5726 106.119 24.0992 107.06 24.4535C111.3 26.0491 116.416 27.0867 118.303 31.8004C119.335 34.3824 119.09 36.9358 118.935 39.6538C119.59 40.7812 120.21 41.9294 120.793 43.0966C126.47 54.6682 131.489 70.5816 127.242 83.2673C123.999 92.9481 116.798 97.6875 108.217 101.914C116.189 107.149 111.976 113.52 106.85 118.906C119.087 124.949 116.143 130.68 109.016 139.469C116.888 138.568 118.104 140.387 119.021 147.865C125.04 145.135 128.69 144.913 131.07 152.21C132.95 152.346 135.684 152.43 137.014 153.846C139.081 156.115 137.765 159.348 135.805 161.184C132.125 164.633 127.485 166.586 122.783 168.164C117.011 170.1 111.471 170.562 105.436 170.485C104.823 173.024 103.327 178.754 101.404 180.202C97.2 183.368 87.6106 183.478 82.5273 182.877C80.2074 182.802 76.2078 181.647 74.6578 179.789C73.2762 178.13 73.5021 176.424 73.7008 174.456C72.4947 172.043 70.6597 169.574 69.2507 166.727L67.1524 166.594C66.3177 169.522 64.0524 177.572 61.9799 179.414C58.9383 182.118 49.0127 182.447 44.8453 182.343C41.3017 182.253 35.1629 182.128 32.6544 179.411C31.7658 178.448 31.5037 177.433 31.5512 176.179C31.6589 173.342 32.8588 172.266 34.7722 170.489C29.4399 154.813 29.2195 140.25 32.7288 124.164C29.4982 122.908 26.3674 121.689 23.5342 120.181C14.1902 115.207 4.75711 106.804 3.25171 95.8021C2.89061 94.8479 2.34387 93.706 1.93672 92.8023C-0.877777 86.5495 -0.836903 78.2621 3.47033 72.6847C4.31686 71.5885 5.11101 71.2038 5.61732 69.7304C7.31557 64.7899 9.56533 60.0661 11.3744 55.169C13.2416 50.0309 14.6425 44.6502 17.3266 39.8235C23.4981 28.8606 33.9597 19.9449 45.6652 15.4334C49.1132 14.1044 51.8232 13.852 55.126 12.8446L55.2681 12.8C58.8678 7.01827 65.2325 0.830176 72.2947 0.0626018Z" fill="#132221"/>
<path d="M76.8955 91.6C82.507 94.8048 87.6665 98.3056 92.0949 103.033C94.2954 105.381 94.792 107.36 97.6776 104.91C97.9467 104.682 98.0575 104.747 98.3367 104.822C99.2434 106.277 101.923 121.253 102.313 123.871C104.609 139.315 105.914 156.032 101.352 171.19C100.923 172.615 100.177 175.835 99.36 176.907C98.0705 178.596 93.3513 178.998 91.3005 179.211C91.3393 178.264 91.4818 173.315 88.7991 175.298C87.9068 175.96 88.0508 178.251 88.0795 179.351C86.3942 179.356 84.9018 179.329 83.2251 179.12C83.359 177.783 83.7922 175.534 82.2134 174.842C80.3395 174.823 80.1049 177.306 80.0704 178.681C76.9013 177.608 76.7387 177.399 77.5633 174.141C76.9877 172.457 75.2333 170.428 74.3467 168.77C73.7739 167.959 71.8799 163.666 71.0179 163.443C68.6475 162.827 65.0596 163.136 62.5237 162.691C61.2471 162.521 60.2347 162.14 58.943 161.903C57.7559 161.643 54.5127 160.465 54.2912 162.592C54.0123 165.27 61.653 166.066 63.5225 166.375C62.8821 168.581 60.9708 174.754 59.62 176.305C57.7198 178.486 50.2566 178.545 47.2368 178.593C47.3939 177.578 48.0258 173.362 45.1474 174.968C44.2142 175.489 44.1027 177.446 44.0067 178.493C42.771 178.458 41.5356 178.411 40.3009 178.35C40.5241 177.025 41.0496 175.033 39.5527 174.242C37.7076 174.084 37.2721 176.615 37.083 177.956C31.9431 175.996 37.776 173.215 38.516 171.678C38.996 170.68 37.0891 165.916 36.6905 164.409C35.8241 161.131 35.2339 157.965 34.7789 154.564C33.6229 146.214 33.8244 137.731 35.3751 129.446C35.8119 127.016 36.3104 124.591 36.8136 122.18C37.118 120.721 38.5681 116.183 37.9011 114.968C37.6823 114.577 37.3167 114.289 36.8857 114.17C34.411 113.468 33.8452 118.942 33.5373 120.653C22.144 116.323 13.4807 111.202 7.72409 99.7103C12.3957 101.721 11.9833 100.594 16.3671 100.283C19.8047 100.039 24.2871 100.5 27.8255 100.509C28.8793 100.511 33.7255 103.882 35.3066 104.171C43.5156 107.195 51.4633 107.591 60.0821 107.816C60.9982 108.968 61.9682 110.064 62.9368 111.173C67.6314 116.022 71.6108 119.152 77.9188 121.786C78.3592 121.971 80.5051 122.83 80.8231 122.876C81.18 123.006 81.537 123.133 81.8953 123.257C83.1561 123.693 86.495 125.005 86.8404 122.831C87.2333 120.363 82.6969 119.956 80.862 119.237C74.0056 116.546 68.2704 112.644 63.7197 106.716C70.6998 105.183 75.6895 98.4081 76.8955 91.6Z" fill="#69BA87"/>
<path d="M62.937 111.172C67.6317 116.021 71.611 119.151 77.919 121.786C78.3594 121.97 80.5053 122.829 80.8234 122.875C81.1429 123.584 81.3127 124.345 81.5156 125.1C76.323 127.511 75.5113 126.32 70.8439 124.113C69.327 124.521 68.121 125.678 66.2256 126.157C60.3297 127.648 57.4965 126.599 52.5729 123.947C48.5293 125.608 47.1514 127.629 42.49 124.612C44.9179 116.428 48.946 112.554 57.7513 111.531C59.4717 111.332 61.2143 111.342 62.937 111.172Z" fill="#C0E9BA"/>
<path d="M52.3846 126.646C53.2038 126.816 55.1701 128.022 56.0663 128.261C61.9107 129.816 65.7418 129.308 70.9215 126.663C74.7483 128.917 77.9362 129.145 81.9127 127.148C82.7704 130.785 82.8712 134.56 82.2092 138.237C78.3248 140.896 75.5888 140.627 71.6627 138.364C70.7186 137.935 70.1587 138.064 69.2981 138.53C64.8121 140.961 59.2452 141.345 54.7491 138.723C54.1864 138.394 53.4091 138.051 52.7693 137.753C48.832 139.724 45.8036 141.167 41.8052 137.82C41.1857 134.101 41.3556 130.424 42.0162 126.724C46.1463 128.95 48.3145 128.614 52.3846 126.646Z" fill="#C0E9BA"/>
<path d="M52.7247 140.343C54.1931 140.882 55.6078 141.82 57.2871 142.235C62.1625 143.436 66.3218 142.851 70.6394 140.465C74.826 142.554 77.1287 143.01 81.5615 141.091C79.3379 146.729 77.2856 149.111 71.6598 151.64L71.5274 151.693C63.7989 154.686 52.8395 154.035 46.6399 148.08C44.3321 145.862 43.4406 143.628 42.3271 140.735C46.226 142.601 48.9704 142.275 52.7247 140.343Z" fill="#C0E9BA"/>
<path d="M66.0785 15.6588C92.4057 14.8324 111.016 26.7477 120.24 51.7268C124.379 62.9362 128.216 75.8419 121.099 86.8947C115.111 96.193 105.572 99.278 95.4151 101.445C94.8524 100.879 94.2623 100.225 93.7096 99.6403C99.3729 97.3536 105.894 94.2888 107.959 87.9479C110.577 79.9085 106.366 70.7123 103.983 63.1128C102.885 59.6152 102.12 56.1408 100.542 52.8196C89.8065 33.2839 54.3244 31.9467 36.3226 40.7521C26.9878 45.3181 24.1873 49.7982 21.0307 59.1596C18.1287 58.966 17.3042 59.9157 16.9854 62.637C14.0708 63.6289 13.1975 64.723 12.404 67.6118C11.727 67.6844 11.0103 67.8421 10.3378 67.972C11.5176 64.6557 13.4151 60.9697 14.5458 57.7974C18.0406 47.9926 19.678 40.9246 27.0533 33.0535C38.4552 20.8856 49.8943 16.4689 66.0785 15.6588Z" fill="#69BA87"/>
<path d="M46.14 25.1447C50.434 24.9195 51.0327 30.7076 47.4847 32.4362C43.317 32.8155 42.3389 26.8397 46.14 25.1447Z" fill="#132221"/>
<path d="M75.6679 24.8536C80.0388 24.6831 80.5151 30.3211 77.1287 32.1364C72.8442 32.6482 72.021 26.8139 75.6679 24.8536Z" fill="#132221"/>
<path d="M53.081 62.4183C51.8961 60.2554 50.8398 57.5006 48.2537 56.786C46.2894 56.2434 34.0512 56.072 31.6446 56.3662C31.2059 56.4175 30.7845 56.5676 30.4119 56.8054C28.9457 57.745 28.4975 59.9415 27.7772 60.3929C27.1847 59.0193 29.2734 53.7414 29.9196 52.2564C30.4378 51.0653 30.809 50.9248 30.3882 49.5567C31.4445 48.4422 32.6538 47.6934 33.9178 46.8334C41.0752 41.9641 50.968 39.9517 59.5586 39.6967C70.7604 39.3642 84.9149 41.9599 93.3141 49.8515C94.6554 51.1115 96.181 53.0378 96.9193 54.7362C98.1354 57.5382 99.0723 60.9756 99.956 63.9608C101.759 70.0501 104.55 76.235 104.75 82.6195C104.841 85.538 103.898 88.0263 101.995 90.2126C101.178 91.0917 100.278 91.8886 99.3069 92.5916C99.5573 91.7991 99.9891 90.7611 100.294 89.9643C101.483 85.9826 101.526 82.3045 100.854 78.2033C100.637 76.8798 99.9128 73.5861 97.8965 74.3255C95.9392 76.6646 101.333 89.6972 90.2256 96.7652C86.7298 93.8361 82.926 90.8016 78.7667 88.8424C76.3056 87.6835 75.4004 87.0118 74.5268 84.3567C73.4834 81.4114 71.6311 78.8579 68.3325 78.2309C68.2317 61.8641 69.1154 62.6154 53.081 62.4183Z" fill="#FEFEFE"/>
<path d="M79.679 66.5754C80.331 66.5341 81.0592 66.4547 81.6925 66.6594C84.6054 67.6014 85.5941 71.3916 84.6313 74.0528C84.0974 75.5251 83.2626 76.2547 81.881 76.9104C76.1674 77.9901 74.5598 68.8898 79.679 66.5754Z" fill="#132221"/>
<path d="M30.7194 68.7193C38.1369 67.7562 44.9236 73.0195 45.8618 80.4627C46.7999 87.9057 41.5325 94.6971 34.1094 95.6167C26.7176 96.532 19.981 91.2757 19.0468 83.8631C18.1126 76.4512 23.333 69.6783 30.7194 68.7193Z" fill="#5E6060"/>
<path d="M31.0916 71.5259C36.9622 70.7957 42.3164 74.9641 43.0679 80.8499C43.8193 86.7356 39.685 92.1228 33.8204 92.9009C27.9225 93.6819 22.5145 89.5069 21.7588 83.5872C21.0031 77.6681 25.1875 72.2602 31.0916 71.5259Z" fill="#132221"/>
<path d="M31.4944 73.4885C36.2549 72.986 40.5331 76.4178 41.0911 81.1867C41.6491 85.9555 38.2793 90.287 33.5321 90.9048C30.4102 91.3105 27.3119 90.0011 25.4208 87.4762C23.5297 84.9518 23.1378 81.6024 24.3948 78.7074C25.6519 75.8125 28.3637 73.819 31.4944 73.4885Z" fill="#2BA1E4"/>
<path d="M28.3918 75.8753C29.1451 75.5569 30.0112 75.6719 30.6558 76.1762C31.3006 76.6806 31.6229 77.4951 31.4986 78.3055C31.3743 79.116 30.8228 79.7957 30.0568 80.0822C28.9062 80.5127 27.6237 79.9415 27.1706 78.7965C26.7174 77.6517 27.2602 76.3536 28.3918 75.8753Z" fill="#FEFEFE"/>
<path d="M26.0421 81.2096C26.4741 80.9685 27.0036 80.9861 27.4187 81.2557C27.8339 81.5252 28.0667 82.0024 28.0244 82.4966C27.9821 82.9906 27.6714 83.4211 27.2164 83.6155C26.5622 83.8953 25.804 83.6122 25.4911 82.9715C25.1784 82.3307 25.4205 81.5564 26.0421 81.2096Z" fill="#FEFEFE"/>
<path d="M31.6882 58.4984C34.5569 58.4884 40.5104 58.3186 43.1615 58.6514C44.5093 60.4123 45.2705 63.1041 46.2034 64.2719C46.8814 65.1204 53.9906 64.5496 55.508 64.6678C56.9394 64.7793 58.3291 64.4577 59.638 65.8134C61.1896 67.4208 60.945 70.1849 60.9464 72.2987C57.1723 72.3156 53.3984 72.3063 49.6247 72.2707C47.4495 69.7072 45.8076 68.4249 42.7334 67.1981C39.4683 65.9765 36.5628 66.055 33.164 66.2827C27.4176 66.6675 24.4358 67.8366 20.6992 72.1864L14.5756 72.1949C14.5424 71.1692 14.459 69.8009 14.529 68.7872C14.8329 64.3826 17.3252 64.6515 20.6497 64.669L25.5538 64.6961C28.231 64.6971 28.653 64.6123 29.649 61.9495C30.1339 60.6531 30.6247 59.4223 31.6882 58.4984Z" fill="#A6A7A8"/>
<path d="M53.5082 66.1695C54.1252 66.1432 55.3049 66.0589 55.8552 66.2278C58.6717 67.0919 58.7864 70.2738 56.0599 71.3591C54.8617 71.4413 53.7141 71.5672 52.6356 70.944C51.9893 70.5779 51.5261 69.9557 51.36 69.2299C51.0102 67.6753 52.0665 66.5338 53.5082 66.1695Z" fill="#132221"/>
<path d="M53.424 67.8776C54.3366 67.8499 55.5902 67.5615 56.1358 68.3221C56.2035 68.8619 56.1347 69.0306 56.0192 69.5527C54.9807 69.718 53.9821 70.0683 53.2962 69.1194C53.1991 68.5291 53.246 68.4708 53.424 67.8776Z" fill="#EEB735"/>
<path d="M68.4923 81.4945C71.2153 82.653 71.5564 85.4858 72.6574 87.9039C72.9798 88.6117 73.3943 89.2214 73.826 89.8652C72.9539 96.5723 68.7226 102.693 61.7713 103.851C60.8223 102.61 60.1428 102.106 58.9076 101.17C58.207 100.658 57.5425 100.098 56.9189 99.4942C49.9746 92.6615 52.9129 82.0045 63.6638 85.7509C64.5043 86.0441 67.2345 87.3968 67.9239 86.5242C68.7716 85.4497 68.5067 82.8691 68.4923 81.4945Z" fill="#FEFEFE"/>
<path d="M108.174 147.078C114.521 153.693 122.311 155.696 131.174 155.926C131.981 155.948 134.331 155.909 134.566 156.681C134.189 157.856 131.584 160.221 130.477 160.727C123.362 165.239 114.695 166.879 106.383 166.851C106.785 164.671 107.149 162.483 107.476 160.29C108.024 155.338 108.195 152.086 108.174 147.078Z" fill="#69BA87"/>
<path d="M107.476 160.291L107.682 160.318C110.796 160.739 113.405 162.446 116.995 162.547C119.686 162.623 128.8 159.808 130.477 160.728C123.362 165.239 114.695 166.879 106.383 166.852C106.785 164.672 107.149 162.483 107.476 160.291Z" fill="#C0E9BA"/>
<path d="M11.7388 70.7567L12.1865 70.7534C12.443 71.0963 12.3199 74.5903 12.3163 75.4228L12.307 88.0308C12.312 90.1244 12.3042 92.235 12.3565 94.3311C12.3926 95.7834 12.8703 96.3782 13.1115 97.4724C11.7048 98.6807 8.37722 96.5673 7.31999 95.4802C1.23017 88.4621 1.45612 73.9233 11.7388 70.7567Z" fill="#FEFEFE"/>
<path d="M72.2757 3.50853C73.3162 3.43794 73.9955 3.36504 74.9684 3.85241C77.808 5.27524 79.5811 9.9009 80.5712 12.6869C77.2107 11.9273 72.3923 11.813 68.9857 11.7383C65.6741 11.7993 62.9281 11.8821 59.6306 12.1801C62.7367 8.37052 67.2831 4.36734 72.2757 3.50853Z" fill="#69BA87"/>
<path d="M14.616 93.3605C16.9404 93.3302 19.378 93.385 21.7108 93.4038C24.7065 95.7569 27.1131 97.521 31.0879 97.6928C37.5544 97.9743 42.3624 97.9859 47.4385 93.6723C48.3391 93.5742 49.3453 93.5987 50.2586 93.5958C50.4002 94.1603 50.5751 94.7536 50.7302 95.3181C51.1621 96.5437 51.5481 97.267 52.1532 98.432C43.5863 98.3367 35.0602 98.4175 26.5013 98.2573C23.4584 98.1375 20.3477 98.3901 17.321 98.0609C14.8391 97.7924 14.6314 95.308 14.616 93.3605Z" fill="#A6A7A8"/>
<path d="M51.5006 74.1361C54.607 74.056 57.8335 74.1582 60.9494 74.2138C60.9897 76.7637 60.9868 79.314 60.9378 81.8635C59.7758 81.8641 58.9682 81.9232 57.8069 82.0348C55.4195 82.6356 54.4676 83.1514 52.7085 84.868C53.0798 82.6173 53.0018 80.3148 52.4788 78.0945C52.2268 77.0099 51.0651 74.7443 51.1543 74.216L51.5006 74.1361Z" fill="#5E6060"/>
<path d="M40.2077 68.5492C40.4892 68.5749 40.7691 68.6175 41.0456 68.6765C44.1877 69.335 47.1451 71.9504 48.8278 74.6131C50.8179 77.7097 51.4686 81.4842 50.6308 85.0713C49.695 89.1913 47.2709 91.771 43.8163 93.9711C42.9213 94.5067 42.2091 94.7319 41.232 95.0885C42.4541 93.9191 43.8922 92.8003 44.8651 91.4433C48.8784 85.8427 48.7837 77.9996 44.5262 72.561C43.1499 70.8028 41.9513 69.8669 40.2077 68.5492Z" fill="#A6A7A8"/>
<path d="M14.521 73.9847C16.205 73.9231 17.6817 73.9329 19.3651 73.9639C16.2161 79.4731 16.5227 84.4445 19.1774 90.0035L20.0746 91.5351L14.5226 91.5149C14.359 86.5009 14.3734 79.0256 14.521 73.9847Z" fill="#5E6060"/>
<path d="M92.4419 11.174C98.4678 10.1284 99.1802 15.1478 99.9343 19.6579C98.4951 18.6215 96.7235 17.7789 95.1288 16.9892C91.8633 15.442 88.4294 14.282 84.8961 13.5329C87.386 12.3497 89.7045 11.5342 92.4419 11.174Z" fill="#69BA87"/>
<path d="M61.8501 64.714C64.4177 64.9112 65.4438 65.3577 65.9446 68.2488C66.2713 70.1374 66.162 72.2184 66.1692 74.1422L66.1663 83.3883C64.9746 82.8997 64.232 82.6255 63 82.2695C62.9468 77.6852 63.0547 73.0525 62.9641 68.4618C62.9396 67.2005 61.8789 65.452 61.8501 64.714Z" fill="#5E6060"/>
<path d="M103.604 103.533C104.954 104.131 106.434 104.71 107.627 105.589C111.018 108.088 108.279 111.971 106.412 114.418C105.852 115.13 105.359 115.643 104.735 116.295C104.02 112.384 103.118 107.808 102.007 104.029L103.604 103.533Z" fill="#69BA87"/>
<path d="M105.839 122.377C106.762 122.704 107.936 123.455 108.793 123.972C113.371 126.738 112.107 129.572 109.643 133.25C108.96 134.233 108.329 135.073 107.592 136.018C107.14 131.454 106.556 126.905 105.839 122.377Z" fill="#69BA87"/>
<path d="M37.9895 100.531C42.6106 100.29 49.033 100.547 53.7912 100.634C54.9487 101.942 55.632 102.642 57.0485 103.647C52.0555 103.821 42.3659 102.778 37.9895 100.531Z" fill="#FEFEFE"/>
<path d="M111.131 142.545C111.744 142.446 113.851 142.317 114.217 142.802C115.093 143.963 115.806 146.714 115.732 148.121L115.591 148.212L114.968 147.914C112.871 146.547 111.022 144.715 109.42 142.802C109.898 142.688 110.626 142.613 111.131 142.545Z" fill="#69BA87"/>
<path d="M45.83 58.6433C48.8464 58.5551 49.5453 60.1724 50.7463 62.6182C49.7511 62.6858 48.5911 62.6983 47.5814 62.7344C47.0437 61.3392 46.3311 60.0038 45.83 58.6433Z" fill="#5E6060"/>
<path d="M124.72 149.315C126.172 149.254 126.99 150.933 127.571 152.065C126.313 151.922 125.427 151.779 124.188 151.524C123.789 151.369 121.345 150.8 120.77 150.653C122.314 149.936 123.056 149.605 124.72 149.315Z" fill="#69BA87"/>
<path d="M19.6216 61.3964C20.9287 61.3683 24.8768 61.0969 25.7757 61.6631C25.9798 62.1741 25.9522 61.9118 25.8158 62.4813L25.4085 62.6234C24.2932 62.6102 19.7658 62.8838 19.2227 62.1991C19.3122 61.6359 19.2191 61.9073 19.6216 61.3964Z" fill="#EEB735"/>
<path d="M112.467 30.3936C114.122 30.9433 114.9 32.2607 115.423 33.8252C114.631 33.3032 113.077 31.2047 112.467 30.3936Z" fill="#719581"/>
</svg>
