<svg width="129" height="159" viewBox="0 0 129 159" fill="none" xmlns="http://www.w3.org/2000/svg">
<path d="M63.5882 0.00683348C68.0382 -0.224708 71.5469 5.48396 74.44 8.59281C75.8982 9.06632 77.5162 9.28465 79.0149 9.64069C82.7302 10.5233 86.292 11.7191 89.6739 13.5196C92.1372 14.8312 94.3364 16.612 96.4778 18.3895C101.913 22.9011 105.926 28.4791 108.599 35.0273C109.786 37.9356 110.751 40.9359 111.972 43.83C113.799 48.1575 116.104 52.3567 117.463 56.868C120.889 68.2395 113.161 76.1297 103.553 80.6919C102.232 81.3193 96.4983 83.2891 96.0761 84.0809C96.147 85.0473 98.4916 86.95 99.37 87.7568C101.797 86.5402 103.449 86.0733 106.206 86.5482C107.765 86.832 109.254 87.4166 110.591 88.2695C116.399 91.9698 113.142 97.1384 115.901 100.531C116.846 101.693 121.021 101.434 122.209 103.206C123.358 104.921 128.35 125.761 128.883 129.016C129.016 129.826 129.058 130.624 128.89 131.431C127.438 133.663 117.872 135.275 115.089 135.984C111.291 143.336 105.372 146.892 97.4955 148.617C97.7918 151.863 97.6433 155.453 94.2284 156.934C86.5902 160.251 72.7144 159.893 66.7083 153.508C66.0683 152.826 64.8562 150.236 64.1793 150.034C62.316 153.831 60.8892 155.592 56.7819 157.1C52.412 158.717 47.7235 158.944 43.0974 158.737C39.0881 158.558 33.3188 157.591 31.7065 153.237C30.6273 150.324 32.0498 148.172 33.2352 145.651C32.6764 143.359 32.2104 141.047 31.8384 138.718C28.3463 137.731 24.4869 137.449 20.898 136.867C17.4463 136.306 1.67287 133.655 0.210304 131.485C-0.10273 131.021 0.00745214 130.16 0.0766264 129.638C0.531405 126.216 1.65169 122.691 2.53828 119.346C3.27372 116.57 3.88827 113.761 4.55121 110.967C4.997 109.088 5.88228 103.981 7.37601 102.869C8.24768 102.22 9.5461 101.881 10.5194 101.28L12.5669 101.317C15.1295 98.122 13.9181 95.2933 15.2791 91.8899C16.7373 88.2435 21.4401 86.2472 25.1609 86.399C26.9615 86.4725 28.0543 86.9565 29.6933 87.6718C30.5051 86.8621 32.5657 84.8895 33.0387 84.0366C32.6121 83.3748 29.5099 82.3817 28.5293 81.989C25.9478 80.9793 23.4666 79.7289 21.118 78.2544C16.806 75.4913 12.1374 70.8211 11.0359 65.6187C9.53439 58.5266 13.7488 51.7078 16.4126 45.4404C17.8179 42.1334 18.8493 38.7775 20.1919 35.5011C21.472 32.4187 23.0334 29.4615 24.8561 26.6671C30.1499 18.4192 40.0422 11.5525 49.5669 9.65259C50.7186 9.42295 53.2221 9.06367 54.0882 8.43585C57.1529 6.2144 59.5924 0.875738 63.5882 0.00683348Z" fill="#132221"/>
<path d="M90.6571 85.1711C91.6809 84.8647 95.5936 89.1742 96.5045 90.0232C96.1744 90.244 95.2519 90.856 95.0222 91.1019C93.3805 92.8608 92.5249 96.2409 91.7727 98.5193C91.5425 97.3288 91.2767 94.9152 90.3251 94.1196C90.0339 93.8761 89.5187 93.7077 89.1335 93.7726C88.7949 93.8297 88.5413 94.0312 88.3834 94.338C87.6137 95.8336 90.1149 103.589 90.6166 105.478C89.395 105.759 87.1453 105.842 86.4774 107.006C86.2628 109.064 86.8008 112.983 86.958 115.232C87.3917 121.437 87.9247 127.694 88.6075 133.876C88.6996 134.708 88.9366 136.046 89.2524 136.819C90.2525 137.719 92.3213 137.8 93.64 137.882C93.3816 139.493 91.9333 146.335 92.3135 147.006C93.6147 149.302 96.866 152.996 90.6 154.46C90.3482 150.762 87.375 147.875 87.0226 153.22C86.9911 153.698 87.1637 154.929 87.2148 155.441L84.6912 155.457C84.6531 153.885 84.3783 150.649 82.4963 150.271C80.9511 150.837 81.3797 154.192 81.4494 155.497C71.9845 154.501 67.4604 152.785 66.6436 142.195C66.5297 140.719 66.908 134.087 63.8475 135.209C62.1914 135.968 62.3216 138.273 62.2241 139.722C61.8618 145.111 61.7454 151.12 56.135 153.687C53.0919 154.936 50.729 155.115 47.4767 155.413C47.4775 154.127 47.7836 150.611 46.1454 150.298C44.4235 150.674 44.3366 154.105 44.2335 155.485L41.5869 155.175C41.7025 153.667 42.2899 151.45 40.8662 150.343C39.0527 149.954 38.3959 153.206 38.116 154.443C36.8624 153.93 35.4436 153.274 35.0112 151.866C34.4016 149.881 36.0913 148.116 36.9401 146.436C36.5312 143.694 35.652 140.772 35.1896 137.872C36.3247 137.818 38.2481 137.656 39.2623 137.11C39.6793 136.884 39.8403 136.521 39.9194 136.057C40.5971 132.049 40.7796 127.945 41.2185 123.903C41.7797 118.734 42.3917 113.567 42.6883 108.374C42.6902 107.992 42.7654 107.099 42.534 106.812C41.7645 105.857 39.7658 105.707 38.5971 105.477C38.9895 103.552 41.4944 95.7531 40.8075 94.5653C40.6105 94.225 40.2964 93.962 39.915 93.859C39.5417 93.7579 39.1626 93.7828 38.8312 93.9939C37.7205 94.7014 37.4536 97.1875 37.23 98.3942C36.4866 96.152 35.7965 93.4844 34.3909 91.5581C33.8157 90.7696 33.2257 90.5683 32.364 90.1885C33.7422 88.9151 36.0655 86.1091 37.6067 85.2929C41.4774 85.9588 46.4717 86.1821 50.4358 86.4274C51.4528 86.4904 52.6805 86.4208 53.7216 86.4288C57.5609 86.4645 61.4003 86.4781 65.2397 86.4696C71.3858 86.4533 77.4003 86.5161 83.5245 85.9431C85.9663 85.7146 88.214 85.6603 90.6571 85.1711Z" fill="#69BA87"/>
<path d="M72.2332 104.219C76.1689 106.15 79.1183 106.637 83.1638 104.466C83.3185 107.363 84.5423 114.753 81.2328 116.039C77.9006 117.334 75.5221 116.414 72.406 115.234C71.0188 115.037 68.6716 117.377 66.0704 117.477C63.9192 117.742 61.4684 117.453 59.573 116.256C56.1656 114.105 54.7674 117.026 51.2469 116.719C49.0119 116.525 47.6595 116.006 46.0806 114.3C45.4005 111.09 45.7801 107.688 46.0299 104.422C50.1455 106.465 52.5361 106.308 56.6647 104.33C57.4434 104.306 59.0272 105.369 59.8867 105.629C65.0041 107.177 67.761 106.359 72.2332 104.219Z" fill="#C0E9BA"/>
<path d="M62.5484 89.8836C66.2961 89.517 72.3716 90.071 75.6811 91.9145C80.099 94.3755 81.3957 97.87 82.7641 102.407C79.9087 104.009 77.3297 104.9 74.2925 103.005C71.7441 101.415 69.6276 103.609 66.9215 104.307C62.5029 105.293 60.4379 103.593 56.8296 102.122C52.474 103.814 51.241 105.44 46.449 102.348C48.7532 93.3548 53.4176 90.2094 62.5484 89.8836Z" fill="#C0E9BA"/>
<path d="M56.754 117.252C58.4148 117.364 60.3677 119.087 62.7279 119.284C66.7262 119.616 68.3252 119.011 71.8998 117.398C72.5117 117.122 75.744 118.638 76.6614 118.56C78.4849 118.607 80.1119 118.234 81.93 117.939C82.1321 118.701 80.575 120.933 80.1442 121.658C78.2327 124.877 75.8594 126.921 72.4084 128.351C65.9447 130.613 57.7857 130.324 52.2626 125.844C49.3612 123.492 48.2122 120.864 46.9081 117.497C50.0405 119.039 53.7185 118.98 56.754 117.252Z" fill="#C0E9BA"/>
<path d="M62.9403 30.1256C63.7575 30.0737 64.5768 30.0664 65.3947 30.1038C74.5026 30.4632 85.5428 32.263 92.1891 39.0169C94.5199 41.3856 96.1234 48.1045 97.3364 51.372C98.4218 53.9149 99.0938 57.0556 100.155 59.5466C100.921 61.3461 102.014 72.2502 98.773 71.756C97.6486 70.5602 98.3843 65.4012 98.0684 63.6512C97.836 62.3643 97.1721 58.387 95.0528 59.7317C94.6265 60.2816 94.8418 63.6001 94.8941 64.4915C95.9088 81.781 79.8012 82.9477 66.279 83.2146C52.8044 83.3651 32.5594 83.2469 34.1009 64.0682C34.1574 63.365 34.5726 59.7223 33.725 59.6489C29.0219 59.2422 31.9697 70.8689 30.0792 71.8135C28.4577 71.2827 28.0189 68.5999 27.9206 67.0994C27.5919 61.7039 29.95 56.2263 31.7347 51.1951C32.8313 48.1042 34.5036 41.6843 36.5324 39.3564C40.8119 34.446 48.6392 31.8021 54.9189 30.846C57.1954 30.4995 60.5654 30.3152 62.9403 30.1256Z" fill="#FEFEFE"/>
<path d="M63.0892 59.017C66.3339 58.8399 71.299 59.5548 69.2481 64.8092C68.8077 65.9377 67.0697 66.4182 65.9165 66.6762C65.9362 67.8451 65.9905 69.337 65.7543 70.455C65.2956 70.9391 64.634 71.0971 64.0329 70.8017C63.2955 69.9508 63.399 67.9552 63.3616 66.7872C61.4899 66.3139 59.7512 65.722 59.321 63.5395C59.1288 62.5927 59.3265 61.6083 59.8695 60.8102C60.7153 59.5823 61.7364 59.2565 63.0892 59.017Z" fill="#132221"/>
<path d="M45.9265 52.3949C47.9266 52.222 49.3638 52.6792 50.2674 54.6424C50.8008 55.8024 50.8463 57.129 50.3941 58.3231C49.8751 59.6773 49.117 60.2988 47.8582 60.861C47.2786 60.9084 46.5415 60.951 45.9875 60.7864C44.9856 60.4791 44.1485 59.7814 43.664 58.8496C43.0935 57.7501 42.9853 56.4673 43.3638 55.2872C43.8174 53.8348 44.6385 53.0758 45.9265 52.3949Z" fill="#132221"/>
<path d="M81.0714 52.4008C82.8949 52.1811 84.2707 52.5905 85.1947 54.3126C85.8056 55.4601 85.9286 56.8065 85.5355 58.0461C85.0718 59.4743 84.2953 60.1902 83.0158 60.8418C82.4273 60.9048 81.7096 60.9549 81.1375 60.7986C80.1482 60.5235 79.3136 59.8557 78.8264 58.9495C77.4372 56.4011 78.5879 53.6858 81.0714 52.4008Z" fill="#132221"/>
<path d="M61.3145 11.7898C69.4041 11.2183 80.9783 12.6277 88.0274 16.7396C95.8132 21.2109 101.905 28.1395 105.354 36.4459C106.653 39.5474 107.631 42.7805 108.906 45.8816C110.662 50.1555 113.027 54.4055 114.318 58.8501C115.848 64.119 113.488 69.1757 109.425 72.5438C108.324 73.4565 107.285 74.5593 106.053 75.3383C101.6 78.1269 96.5112 79.8951 91.4785 81.2248C94.5865 79.2738 98.2094 77.8016 100.865 75.1467C107.482 68.5331 103.226 57.8684 100.505 50.422C98.9854 46.2635 97.3347 39.2605 94.1787 36.2596C87.4575 29.8685 76.5709 27.1699 67.5052 27.0943C62.3844 26.6583 55.4344 27.1847 50.4204 28.4183C44.3582 29.9099 36.5558 32.9966 33.0674 38.558C31.2833 41.4021 30.165 45.6901 29.0455 48.9148C26.7547 55.5129 23.4989 62.5285 25.035 69.6813C26.3638 75.8697 32.5305 78.1953 37.3653 81.1995C28.7677 79.0224 14.5707 73.0455 14.2209 62.6229C14.1729 61.1582 14.3772 59.6962 14.8247 58.3013C16.0512 54.3927 18.6111 49.6969 20.1308 45.7951C21.9342 41.1651 23.1786 36.7917 25.5522 32.3851C27.0885 29.4868 29.0099 26.8109 31.2637 24.4307C39.7768 15.2761 49.1249 12.2075 61.3145 11.7898Z" fill="#69BA87"/>
<path d="M50.5147 18.0301C51.8544 17.9559 52.8917 18.0641 53.6954 19.3079C54.1265 19.9856 54.2646 20.81 54.0781 21.592C53.8226 22.701 53.2341 23.2717 52.3134 23.8455C49.7326 24.086 49.2874 23.3162 48.608 20.9524C49.0144 19.412 49.1286 18.8511 50.5147 18.0301Z" fill="#132221"/>
<path d="M76.5676 18.0367C76.8611 18.0139 77.1552 18.0006 77.4495 17.9966C79.7546 17.9887 80.0239 20.1606 79.9816 21.9322C79.4234 22.9371 79.1413 23.2996 78.1655 23.8975C74.272 24.0622 73.4299 19.787 76.5676 18.0367Z" fill="#132221"/>
<path d="M120.062 104.098C120.206 104.061 120.37 104.091 120.527 104.103C120.633 104.202 120.715 104.303 120.784 104.432C121.353 105.5 121.956 109.094 122.296 110.468C123.759 116.385 125.427 122.354 126.651 128.323C126.742 128.763 126.963 129.685 126.793 130.089C125.515 133.116 101.438 135.746 97.3211 137.02C97.2276 135.844 96.7913 133.679 96.5821 132.445C95.5384 127.983 94.8124 122.497 94.0463 117.935C93.5667 115.079 92.8085 111.632 92.5362 108.832C93.7566 108.766 95.4176 108.409 96.6139 108.157C96.6924 109.544 96.8279 110.601 98.1116 111.383C99.7316 112.371 101.074 111.513 101.94 110.116C101.996 109.296 101.88 108.368 101.784 107.547C102.155 107.001 110.866 105.725 112.249 105.431C112.297 105.895 112.364 106.356 112.451 106.814C112.608 107.604 113.039 108.282 113.719 108.721C114.331 109.109 115.072 109.237 115.778 109.074C116.422 108.93 116.977 108.525 117.312 107.955C117.997 106.769 117.67 105.801 117.34 104.583C118.103 104.498 119.274 104.245 120.062 104.098Z" fill="#D2FCFF"/>
<path d="M8.36002 104.197C9.34368 104.349 10.4919 104.497 11.4394 104.753C12.0965 105.935 9.66694 108.174 13.8456 109.423C16.1144 108.756 16.6021 107.929 16.7846 105.647C20.0792 106.04 24.1274 106.817 27.4927 107.338C27.1788 108.421 26.8529 109.379 27.366 110.44C27.6814 111.105 28.2583 111.609 28.9587 111.83C31.3644 112.591 32.2202 110.51 32.6993 108.663C33.3598 108.242 35.7991 108.81 36.7033 108.955C36.4005 112.024 35.0153 118.218 34.3471 121.371C33.6857 124.64 33.0754 127.92 32.5161 131.209L31.6011 136.724C30.0986 136.314 27.3539 136.049 25.7047 135.73C19.7643 134.582 7.18398 132.956 1.991 130.366C2.61566 126.55 4.39081 120.545 5.32675 116.66C6.24658 112.84 7.26948 107.828 8.36002 104.197Z" fill="#EF9C34"/>
<path d="M24.0359 89.8825C24.4661 89.8072 24.7486 89.8449 25.1635 89.8361C31.8842 89.6941 30.6695 98.8737 26.1708 101.041C25.146 101.535 24.4369 101.461 23.3344 101.419C13.784 98.9889 16.9196 90.2127 24.0359 89.8825Z" fill="#FEFEFE"/>
<path d="M103.029 89.8981C110.33 88.6122 116.142 97.6199 106.961 101.036C102.105 102.321 99.8524 99.3166 99.1639 94.9375C98.7777 92.4815 100.525 90.0737 103.029 89.8981Z" fill="#FEFEFE"/>
<path d="M38.6834 109.035L40.5104 109.045C40.2917 113.58 39.655 118.415 39.1504 122.941C38.7157 126.842 38.5926 131.325 37.9771 135.151C37.1076 135.154 36.0962 135.307 35.223 135.412C35.0137 135.455 34.0228 135.481 33.7517 135.493C35.2915 126.654 36.9355 117.835 38.6834 109.035Z" fill="#EF9C34"/>
<path d="M88.6962 108.949L90.5782 109.072C91.522 113.129 92.1579 118.56 92.85 122.724C93.5512 126.941 94.4303 131.333 94.9922 135.539C93.4368 135.391 92.5123 135.171 90.8542 135.157C90.2615 129.328 89.767 123.491 89.3708 117.644C89.1389 114.649 88.8037 111.972 88.6962 108.949Z" fill="#D2FCFF"/>
<path d="M104.003 137.975C105.866 137.606 108.547 136.965 110.349 136.893C107.347 140.804 102.511 144.156 97.5643 144.811C97.0225 144.877 96.4772 144.912 95.9312 144.915C96.1785 143.481 96.4101 142.105 96.7373 140.684C96.7801 140.137 96.9314 139.278 97.0123 138.712C99.8802 138.741 102.046 137.91 104.003 137.975Z" fill="#C0E9BA"/>
<path d="M97.0122 138.712C99.8802 138.741 102.045 137.91 104.003 137.975C103.068 139.547 98.5124 141.031 96.7373 140.683C96.7801 140.137 96.9314 139.278 97.0122 138.712Z" fill="#69BA87"/>
<path d="M64.0837 3.74147C65.4837 3.67041 68.4823 7.42132 69.4118 8.4601C67.9927 8.29243 66.2492 8.33428 64.7968 8.33002C62.7886 8.3193 61.1132 8.33751 59.1151 8.52471C60.8481 6.70438 62.0168 5.20986 64.0837 3.74147Z" fill="#69BA87"/>
<path d="M33.0112 93.6965C34.3917 94.3605 37.0775 103.931 36.3124 105.207L34.6588 104.898C34.3017 101.856 34.0416 98.5507 32.5821 95.829C32.7203 95.1172 32.8633 94.4064 33.0112 93.6965Z" fill="#EF9C34"/>
<path d="M95.751 93.6892C95.8333 93.729 96.003 93.87 96.0847 93.9329C96.9083 95.8754 95.2348 98.3247 94.935 100.357C94.7296 101.749 94.859 103.388 94.4804 104.69C94.1566 105.02 93.6832 105.016 93.195 105.09C93.0663 105.128 92.9507 105.111 92.8119 105.109C92.6498 104.684 92.8066 103.879 92.8587 103.389C93.2107 100.084 94.1189 96.5969 95.751 93.6892Z" fill="#D2FCFF"/>
<path d="M97.409 98.2568C97.8718 98.5544 98.4905 99.7556 98.7923 100.277C98.5137 102.874 99.5093 106.422 99.9631 109.027C99.8691 109.224 99.7899 109.39 99.7255 109.525C97.2787 108.861 96.5395 100.542 97.409 98.2568Z" fill="#D2FCFF"/>
<path d="M31.4293 98.55L31.6747 98.6361C32.8007 100.003 31.6188 108.161 29.8724 109.637C29.6712 109.43 29.47 109.223 29.2689 109.016C29.3216 107.981 29.6189 106.845 29.8483 105.829C30.2495 104.054 30.3489 102.376 30.1846 100.566C30.5678 99.9096 31.0258 99.2015 31.4293 98.55Z" fill="#EF9C34"/>
<path d="M15.6963 99.5569C16.2207 99.7717 16.6416 100.31 17.0355 100.738C15.3881 103.277 15.3622 104.169 14.281 106.793L13.7387 106.835C11.9338 105.839 15.0058 100.768 15.6963 99.5569Z" fill="#EF9C34"/>
<path d="M113.174 99.4648C113.864 99.7886 116.215 104.937 115.848 106.12C115.704 106.583 115.372 106.699 115.006 106.93C114.431 106.182 113.849 104.129 113.397 103.155C112.927 102.139 112.58 101.551 111.987 100.576L113.174 99.4648Z" fill="#D2FCFF"/>
<path d="M18.59 102.512C19.2398 102.624 22.1452 103.588 22.4581 104.058L22.2755 104.245C21.3747 104.022 18.6057 103.851 18.3202 103.064L18.59 102.512Z" fill="#EF9C34"/>
<path d="M110.239 102.45L110.602 102.571L110.823 103.042L110.743 103.246C110.288 103.438 107.97 103.865 107.272 104.03L106.863 104.083L106.741 103.909C107.091 103.467 109.612 102.668 110.239 102.45Z" fill="#D0CFD1"/>
<path d="M25.3609 104.071C25.6105 104.058 25.8609 104.06 26.1102 104.079C26.8789 104.134 28.0434 104.224 28.5438 104.795L28.4021 105.122C27.6007 104.966 25.7083 104.905 25.1959 104.454L25.3609 104.071Z" fill="#EF9C34"/>
<path d="M103.06 103.965C103.172 103.968 103.54 104.054 103.672 104.082L103.585 104.087L103.801 104.283L103.769 104.37C103.209 104.68 102.595 104.692 101.957 104.756C101.485 104.849 101.337 104.899 100.85 104.799L100.808 104.647C101.522 104.127 102.215 104.072 103.06 103.965Z" fill="#D0CFD1"/>
</svg>
