<svg width="147" height="169" viewBox="0 0 147 169" fill="none" xmlns="http://www.w3.org/2000/svg">
<path d="M78.5772 6.92674C81.4877 4.32973 86.3905 0.00655608 90.5842 0C96.1782 0.545754 96.9022 8.25426 99.7813 11.8093C100.25 12.3881 103.67 14.0193 104.541 14.5433C116.933 21.9945 125.174 33.5796 127.474 47.8539C127.997 51.0979 128.161 55.3624 128.792 58.2952C130.595 66.6684 133.644 75.8356 126.027 82.4659C121.161 86.7011 112.005 88.6932 105.594 88.8587C107.073 89.7489 107.679 90.5278 108.904 91.4475C111.493 90.9661 113.808 90.625 116.142 92.2004C119.705 94.6045 119.017 99.2761 117.166 102.506C117.801 103.552 118.37 104.482 118.73 105.669C124.044 104.548 128.608 105.784 128.399 112.158C131.918 111.05 133.657 110.896 136.133 114.043C138.145 112.51 141.38 108.822 143.786 109.238C147.81 109.933 147.088 116.553 146.655 119.479C145.478 126.1 140.633 132.263 135.165 136.021C131.202 138.733 127.912 139.686 123.303 140.528C122.198 146.878 122.462 152.996 118.663 158.585C114.096 165.304 106.813 166.441 99.2305 165.339C96.9394 165.006 95.0873 163.94 93.2283 162.597C89.7068 165.099 85.8785 165.531 81.6704 164.869C79.2406 164.487 76.2276 163.529 74.7644 161.461C73.37 159.491 73.6762 157.9 74.0036 155.686C69.916 151.723 66.3441 147.508 64.8567 141.884C62.7996 144.558 60.9796 147.406 58.9628 150.11C55.6274 154.582 52.0952 158.693 48.2295 162.707C45.9189 165.106 43.1564 168.476 39.6624 168.945C37.6211 169.218 36.0985 168.448 34.532 167.231C31.9145 165.197 29.6071 162.549 27.3943 160.094C16.9394 148.503 2.22155 127.101 0.313766 111.566C-0.0103394 108.927 -0.214971 105.863 0.377994 103.246C1.37752 94.7508 5.69193 86.2474 11.8453 80.3064C14.5921 77.6545 18.8335 74.2302 22.5769 73.1471C23.1083 71.0783 24.7566 68.7063 25.5235 66.6077C25.9953 65.3165 27.3932 64.1224 28.4529 63.2607C28.3806 62.6 26.6733 60.6957 26.2015 59.9491C19.5815 49.4739 29.2015 42.1044 34.0646 34.3799C42.1451 21.5442 50.5014 11.5681 66.0729 8.33533C70.1052 7.49824 74.3622 7.17731 78.5772 6.92674Z" fill="#132221"/>
<path d="M22.5769 73.1472C23.5907 73.2981 24.3157 72.5723 25.2492 72.9985C24.8608 73.787 24.122 74.724 24.3241 75.3507C25.0496 75.1119 27.033 74.3997 27.6721 74.3716L27.8907 74.6669C29.0003 75.6889 29.8691 76.1439 31.1555 76.9195C36.0669 78.672 43.7852 79.226 48.0471 75.596C48.5356 75.1801 49.1822 74.4656 49.7345 74.2261L50.2652 74.4662C52.3509 75.1847 54.0882 75.6994 55.8759 77.0479C56.1692 78.0482 58.1435 79.5493 58.9623 80.3248C60.9106 82.1699 62.2864 83.7554 63.6137 86.1012C57.4197 90.0694 58.5569 96.1539 61.7003 101.624C62.994 105.315 67.8716 109.023 71.5466 110.004C70.9076 113.35 70.1344 117.158 68.8316 120.377C63.444 133.688 54.6688 145.973 44.4274 155.997C41.9929 158.38 38.8854 161.076 35.5268 160.606C31.5893 160.427 26.822 152.699 24.9566 152.064L24.8781 151.96L24.7017 151.937C24.8384 152.091 24.925 152.273 25.0233 152.454L24.8915 152.716C23.5219 151.275 18.2778 144.158 17.3411 142.302C16.5896 141.349 15.5147 139.722 14.8442 138.638C9.46428 129.943 3.71249 119.549 3.00623 109.215C2.76038 105.615 3.2386 102.35 4.0042 98.9007L3.73462 98.8855C2.71452 100.088 1.43397 102.634 0.377991 103.246C1.37752 94.7509 5.69193 86.2475 11.8453 80.3064C14.5921 77.6546 18.8335 74.2302 22.5769 73.1472Z" fill="#F63F46"/>
<path d="M22.5769 73.1472C23.5907 73.2981 24.3157 72.5723 25.2492 72.9985C24.8608 73.787 24.122 74.724 24.3241 75.3507C22.3852 76.3144 19.5855 77.7352 17.9371 79.1463C11.4012 83.4246 7.00038 90.2291 4.50135 97.4811C4.36728 97.8703 4.16826 98.5584 4.0042 98.9007L3.73462 98.8855C2.71452 100.088 1.43397 102.634 0.377991 103.246C1.37752 94.7509 5.69193 86.2475 11.8453 80.3064C14.5921 77.6546 18.8335 74.2302 22.5769 73.1472Z" fill="#132221"/>
<path d="M18.8042 108.149C18.7591 108.065 18.6409 107.819 18.636 107.738C18.1314 99.6747 25.1973 91.9967 32.6777 89.898C33.354 89.7083 34.6204 89.5315 35.2138 89.89C37.071 89.8439 39.0373 89.6332 40.8894 89.8148C41.7137 89.8957 43.2552 90.4538 43.9744 90.5205C45.0843 89.6883 47.062 90.9596 48.0114 91.7062C48.0884 91.8952 48.169 92.0548 48.2048 92.2532C49.433 93.1966 51.0074 94.2648 52.1085 95.312C55.0517 98.1115 57.336 102.156 57.8199 106.225C58.142 108.935 58.118 111.9 57.3772 114.562C57.1534 115.367 56.2745 117.37 56.1498 117.923C56.4052 118.801 55.8829 119.488 55.4228 120.319C53.0723 124.538 49.1482 127.661 44.5022 129.013C42.8295 129.488 36.2937 130.147 35.174 129.156C35.3206 128.908 35.2194 129.001 35.5028 128.886C35.1193 128.74 34.22 128.587 33.7451 128.471C26.0452 126.599 19.8947 119.539 19.1326 111.686C19.0239 110.566 18.9973 109.381 18.8234 108.269L18.8042 108.149Z" fill="#F63F46"/>
<path d="M56.1497 117.923C56.4052 118.801 55.8829 119.488 55.4228 120.319C53.0722 124.538 49.1482 127.661 44.5021 129.014C42.8295 129.489 36.2936 130.147 35.174 129.156C35.3205 128.908 35.2193 129.001 35.5027 128.886C44.3366 129.888 52.1885 125.975 56.1497 117.923Z" fill="#F63F46"/>
<path d="M27.0869 122.693C21.6578 118.064 19.5702 110.624 21.8021 103.858C24.0339 97.0916 30.1432 92.3397 37.2681 91.8279C44.3929 91.316 51.1223 95.1457 54.3037 101.523C58.0329 108.998 55.9692 118.057 49.3673 123.192C42.7655 128.328 33.4505 128.118 27.0869 122.693Z" fill="#FEFEFE"/>
<path d="M54.3038 101.523C58.033 108.998 55.9692 118.057 49.3673 123.192C42.7655 128.328 33.4505 128.118 27.0869 122.693C28.0586 122.696 32.4137 124.775 34.254 125.162C44.9422 127.4 55.5325 118.129 55.0168 107.355C54.9292 105.527 53.8748 103.283 54.3038 101.523Z" fill="#FEFEFE"/>
<path d="M61.7003 101.624C65.0886 105.839 69.2577 108.431 74.5988 109.524C74.4995 112.219 74.2097 114.801 73.4975 117.414C69.4218 132.364 54.7706 153.177 43.4692 163.671C42.1068 164.938 40.7112 166.009 38.9427 166.655C34.8209 164.983 30.1195 159.039 27.1737 155.646C26.8221 155.241 25.0788 153.105 24.8915 152.716L25.0233 152.454C24.925 152.273 24.8384 152.091 24.7018 151.938L24.8782 151.96L24.9566 152.064C26.822 152.699 31.5893 160.427 35.5268 160.606C38.8854 161.076 41.9929 158.38 44.4275 155.997C54.6688 145.973 63.444 133.688 68.8316 120.377C70.1344 117.158 70.9076 113.35 71.5466 110.004C67.8716 109.023 62.994 105.315 61.7003 101.624Z" fill="#F63F46"/>
<path d="M31.0606 64.5593C33.2889 63.3979 35.6992 62.9716 38.1901 63.2255C43.0738 63.7231 46.796 65.8054 47.6652 70.9307C47.1698 72.2791 47.0375 72.9042 45.8259 73.7674C44.9851 74.2042 44.3823 74.5618 43.4479 74.7802C41.1187 75.6915 35.1764 75.6311 32.7921 74.5269C30.5684 73.4973 29.3316 72.5384 28.3859 70.2959C28.1197 67.2345 28.9137 66.5578 31.0606 64.5593Z" fill="#FEFEFE"/>
<path d="M55.8759 77.0479C59.7283 78.5975 63.4854 81.8875 66.1041 85.0775C65.1964 85.4157 64.4981 85.6985 63.6137 86.1012C62.2865 83.7554 60.9107 82.1699 58.9623 80.3248C58.1435 79.5492 56.1692 78.0482 55.8759 77.0479Z" fill="#F63F46"/>
<path d="M73.8924 85.3528C89.6898 89.9815 97.9137 82.4316 110.147 98.7646C111.93 101.135 113.548 103.625 114.988 106.218C119.554 114.551 122.325 123.385 121.333 132.955C120.969 136.467 120.237 140.014 119.65 143.491C119.16 146.399 119.084 150.02 118.277 152.764C117.16 156.295 114.696 159.749 111.372 161.5C109.929 162.261 107.664 163.123 106.113 162.849C104.493 162.563 104.405 159.619 104.519 158.396C104.472 158.263 104.632 157.98 104.467 157.928C104.223 157.849 103.616 157.891 103.408 158.035C101.843 159.114 103.502 161.858 102.265 162.971C101.603 163.169 100.582 162.782 99.9655 162.502C98.0022 159.196 100.244 158.297 99.2167 157.079C98.7316 157.082 98.6642 157.171 98.306 157.509C96.8718 158.865 96.8822 160.198 97.169 162.085C92.3067 158.857 95.6628 157.835 95.9636 153.764C96.1031 151.875 94.6401 148.145 93.9962 146.242C96.2128 144.825 97.0793 144.612 98.2717 142.227C95.1951 142.889 92.4767 143.939 89.3649 144.027C87.7131 144.075 83.1436 142.849 81.9974 143.216C81.3959 145.124 88.6362 146.427 89.7585 146.621C91.3471 148.867 93.2082 151.763 92.7341 154.611C92.5506 155.697 91.9121 156.674 91.6872 157.745C91.6102 158.11 91.9735 159.571 91.8457 159.778C90.9659 161.193 88.8219 162.415 87.1725 162.088C86.595 161.976 86.0889 161.633 85.7715 161.139C84.7912 159.629 85.6731 158.177 85.2378 157.318C82.8523 157.376 83.5026 161.022 83.9619 162.471C83.093 162.335 82.1154 162.256 81.4037 161.757L81.3242 161.703C79.3095 160.285 81.7027 158.591 80.4638 157.109L80.1033 156.957C79.0144 157.515 78.6808 159.938 78.4839 161.102C77.6666 161.303 76.6449 159.602 76.4927 158.855C76.2278 157.557 76.9169 156.233 77.4067 155.061C72.1068 150.15 68.838 146.192 66.8741 139.147L66.7635 138.865C66.7529 138.107 69.0279 134.711 69.578 133.819C69.9444 133.07 70.5799 131.534 71.109 131.003C71.4395 130.312 71.7816 129.626 72.1349 128.945C72.3443 128.404 72.6009 127.838 72.8551 127.317C74.0014 124.963 74.8575 122.565 75.734 120.101C75.781 119.74 76.1938 118.463 76.3187 118.047C77.008 115.283 77.3183 113.062 77.4696 110.237C83.0326 110.319 84.4612 110.336 89.5622 108.04C90.3042 107.81 92.1776 106.546 92.3534 105.752C91.6304 105.031 89.3534 105.916 88.4335 106.196C81.9628 108.168 76.8351 107.755 70.675 105.186L70.2023 104.935C66.665 103.042 63.8408 100.471 62.5573 96.4922C60.9937 91.6445 63.9206 87.1632 69.2229 87.5292C69.8839 87.575 71.3045 87.815 71.8594 88.1468C72.258 88.3192 73.3094 88.4685 73.6678 88.6898C75.2363 89.6585 85.9083 91.8305 86.452 89.8242C85.5828 89.0299 81.6816 89.1198 80.2762 88.5852C78.0668 87.7446 76.0227 86.4716 73.7591 85.7978L73.8924 85.3528Z" fill="#69BA87"/>
<path d="M83.3495 118.643C88.5044 119.666 90.7749 118.935 94.6224 115.472C96.3461 119.396 96.9904 121.272 97.2074 125.539C92.6132 128.545 93.1591 128.659 87.2724 127.977C83.6174 130.739 79.1085 130.261 75.209 128.383C74.2322 128.721 73.0315 129.316 72.1349 128.945C72.3443 128.404 72.6009 127.838 72.8551 127.317C74.0014 124.963 74.8574 122.565 75.734 120.101C77.7452 120.118 81.7876 120.027 83.3495 118.643Z" fill="#C0E9BA"/>
<path d="M88.1652 129.808C91.6138 130.618 93.8899 130.027 96.8862 128.189C96.9895 128.126 97.0921 128.061 97.194 127.995C96.5812 136.344 89.3813 139.804 81.5745 139.511C78.9464 139.412 73.7135 137.988 71.784 136.077C70.9653 135.416 70.344 134.58 69.5779 133.819C69.9444 133.07 70.5799 131.534 71.109 131.003C72.7945 131.084 73.8436 130.976 75.4354 130.36C79.665 132.257 84.171 132.341 88.1652 129.808Z" fill="#C0E9BA"/>
<path d="M70.675 105.186L70.2023 104.935C66.665 103.042 63.8408 100.471 62.5573 96.492C60.9937 91.6443 63.9206 87.163 69.2229 87.529C69.8839 87.5748 71.3045 87.8148 71.8594 88.1466C75.3206 94.9638 76.1186 98.8738 70.675 105.186Z" fill="#FEFEFE"/>
<path d="M89.5622 108.04C91.2892 110.2 92.3579 111.409 93.8236 113.746C90.0745 117.115 88.3974 117.929 83.3977 116.609C80.8097 117.929 79.3325 118.447 76.3187 118.047C77.008 115.283 77.3183 113.062 77.4695 110.237C83.0326 110.319 84.4611 110.336 89.5622 108.04Z" fill="#C0E9BA"/>
<path d="M66.8741 139.147L66.7635 138.865C66.7529 138.107 69.0279 134.711 69.5779 133.819C70.344 134.58 70.9653 135.416 71.784 136.076C70.7493 137.591 70.7685 138.346 69.9991 139.882C69.8531 139.916 69.7248 139.946 69.614 139.972C68.7641 139.694 67.4681 138.376 66.8741 139.147Z" fill="#69BA87"/>
<path d="M62.9033 28.4319C63.4605 28.3374 66.367 28.3171 67.0247 28.3152C76.2804 28.3476 85.4155 30.4104 93.7819 34.3572C100.482 37.5113 108.167 43.7047 109.474 51.4935C110.373 57.8231 111.659 64.467 110.967 70.8781C110.466 75.515 108.31 78.8953 103.828 80.4448C104.546 78.7337 105.286 76.9718 105.964 75.2481C106.545 73.7699 107.819 66.3913 106.029 65.816C105.7 65.9165 105.247 66.3632 105.202 66.6756C103.809 76.2779 100.014 83.1291 88.8244 84.1253C83.1725 84.7507 70.6007 82.0885 65.1463 79.7919C64.7105 79.6085 62.0394 77.3132 61.2382 76.7676C57.7788 74.4121 54.3849 72.8359 50.4547 71.4644C50.5987 66.4453 46.3582 62.3188 41.6854 61.2137C41.6227 58.5667 41.7948 56.0036 42.5439 53.4494C42.8497 52.4069 44.0706 50.105 43.5239 49.1856L43.2033 49.1576C40.9083 50.1496 39.5169 54.6676 39.1416 56.9654C39.0233 57.6907 38.8849 60.1127 38.5824 60.4905C38.3121 60.4974 37.9554 60.5494 37.7974 60.3223C33.2712 53.8115 43.508 41.9067 46.3562 37.6864C50.6561 31.3145 56.3037 29.3498 62.9033 28.4319Z" fill="#FEFEFE"/>
<path d="M70.4515 55.7249C73.4188 55.6207 80.6901 57.8363 77.2508 62.4021C76.3484 63.5999 74.1339 63.589 72.6848 63.5535L72.1801 65.5068C71.9487 66.5007 71.7428 67.7717 70.6779 68.1975C69.0928 67.5801 70.3602 64.1919 70.7934 63.0591C69.3679 62.1448 68.0448 61.3913 67.5406 59.6597C66.8703 57.3574 68.4781 56.2749 70.4515 55.7249Z" fill="#132221"/>
<path d="M91.4798 55.1153C92.2786 55.0304 93.134 54.9746 93.8966 55.2709C94.8943 55.6537 95.6956 56.4208 96.1201 57.3991C97.2878 60.0447 95.7372 63.0848 93.1183 64.1486C87.1237 64.7681 86.6232 57.3674 91.4798 55.1153Z" fill="#132221"/>
<path d="M56.0157 45.6598C61.9421 45.0958 61.8459 52.6017 57.361 54.5845C56.5937 54.6439 55.6483 54.7006 54.9411 54.3984C54.0427 54.0209 53.3376 53.2944 52.9883 52.3868C51.9428 49.7313 53.3852 46.7262 56.0157 45.6598Z" fill="#132221"/>
<path d="M74.6199 9.88885C75.2406 9.78891 77.4535 9.78092 78.112 9.78572C84.7583 9.84184 91.3212 11.2664 97.3896 13.9699C113.14 20.956 122.9 33.9773 124.953 50.7678C125.443 53.1024 125.459 57.0474 126.017 59.2072C128.762 69.83 130.366 79.6212 117.719 83.8208C113.432 85.2441 101.041 87.3985 96.9624 85.5321L96.9305 85.3057C101.177 83.3117 105.263 84.3143 109.038 81.1701C115.173 76.0587 114.571 67.5459 113.91 60.3937C113.469 55.6252 112.998 51.0158 111.123 46.5389C110.186 44.3243 108.495 42.0495 106.973 40.2205C96.4893 28.4354 71.0293 21.8879 55.8119 26.9454C48.7221 29.3017 44.1518 35.0936 40.2322 41.1244C36.3424 47.1093 31.8268 53.1729 34.4119 60.5744C33.0064 60.9303 32.08 61.1553 30.7488 61.7014C29.0991 58.7635 27.3573 57.576 27.0489 53.8125C26.4737 46.7951 32.0596 42.1465 35.7011 36.8358C38.6347 32.5575 41.3203 28.2913 44.6858 24.2898C52.7055 14.7544 62.4109 10.909 74.6199 9.88885Z" fill="#69BA87"/>
<path d="M97.9767 21.4871C102.352 21.1929 101.211 27.5979 97.8741 28.6791C93.8156 28.7963 94.4045 22.8972 97.9767 21.4871Z" fill="#132221"/>
<path d="M67.7802 14.9514C72.6108 14.6677 71.0081 20.5325 68.2276 21.9208C64.3589 22.3693 64.9178 18.2887 66.4379 16.1246C66.7545 15.674 67.3337 15.2734 67.7802 14.9514Z" fill="#132221"/>
<path d="M122.733 117.154C128.294 119.659 134.811 118.916 139.636 115.136C140.518 114.446 142.346 112.419 143.225 112.195C144.876 113.177 143.536 120.317 142.741 121.951C140.383 128.198 135.584 133.225 129.442 135.881C127.37 136.788 125.896 137.25 123.708 137.719C124.073 135.135 124.596 132.869 124.549 130.266C124.603 124.918 124.129 122.309 122.733 117.154Z" fill="#69BA87"/>
<path d="M124.549 130.266C129.504 130.613 135.848 128.144 139.368 124.722C140.051 124.057 142.066 122.109 142.741 121.951C140.383 128.198 135.584 133.226 129.442 135.882C127.37 136.788 125.896 137.25 123.708 137.719C124.073 135.135 124.596 132.869 124.549 130.266Z" fill="#C0E9BA"/>
<path d="M89.3325 2.96804C89.8394 2.90983 90.4875 2.84411 90.9639 3.03184C93.0606 3.85759 94.943 8.51176 95.8828 10.5763C94.1814 9.91732 92.3276 9.1509 90.5877 8.64832C87.9994 7.95034 84.9453 7.72184 82.2598 7.49621C84.4169 5.52763 86.5708 3.94809 89.3325 2.96804Z" fill="#69BA87"/>
<path d="M120.886 107.878C126.672 107.337 126.539 111.602 124.443 115.629C123.632 115.583 122.692 115.051 121.96 114.683C121.111 112.418 120.387 110.406 119.208 108.276L120.886 107.878Z" fill="#69BA87"/>
<path d="M112.308 93.5327C117.991 93.5751 115.833 100.276 114.869 100.557L114.61 100.235C113.005 97.617 111.224 96.079 109.835 94.0796L110.01 93.8575C110.759 93.5972 111.518 93.5863 112.308 93.5327Z" fill="#69BA87"/>
<path d="M131 113.429C132.509 114.001 133.096 114.401 134.265 115.453C132.846 115.848 131.966 116.081 130.517 116.3C129.563 116.368 128.186 116.319 127.198 116.307C128.573 115.057 129.35 114.288 131 113.429Z" fill="#69BA87"/>
<path d="M73.7591 85.7975C72.6884 85.4112 70.0576 85.0792 69.6191 84.5693C70.5222 84.2989 72.8737 85.0749 73.8923 85.3525L73.7591 85.7975Z" fill="#69BA87"/>
</svg>
