<svg width="188" height="140" viewBox="0 0 188 140" fill="none" xmlns="http://www.w3.org/2000/svg">
<path d="M39.0927 12.38C43.4389 11.8702 46.952 16.9105 49.8009 19.0351L49.9015 19.1089C55.9159 19.8648 60.7159 21.2977 65.9507 24.4228C72.534 28.3529 77.9145 34.6342 80.6649 41.7967C81.8913 45.0449 82.8215 48.7864 84.3881 51.8712C88.3379 59.6488 93.1309 65.8903 87.3984 74.3474C83.5275 80.0579 78.4753 82.6986 71.8275 84.1665C74.8029 87.5097 78.0135 91.8095 80.4599 95.5744C81.2429 96.9024 81.8078 98.3339 82.528 99.694C84.1648 102.785 85.7526 106.98 83.0599 110.007C81.2316 112.062 78.4107 112.427 75.7932 112.57C75.6155 115.143 76.0964 118.68 75.808 121.504C75.6253 123.292 75.2148 125.909 75.2707 127.596C75.7224 129.273 76.753 130.272 77.212 132.026C78.0017 135.046 76.3963 137.264 73.1872 137.775C66.2972 138.873 57.6766 139.307 51.5664 135.411C51.5044 135.485 51.4412 135.558 51.3766 135.631C49.2822 137.967 45.4147 138.923 42.3867 139.089C36.6127 139.246 25.3761 140.381 22.5547 134.206C21.7262 134.077 19.9545 134.114 18.964 134.027C14.4648 133.635 11.3214 133.099 7.55705 130.519C3.8461 127.976 2.14569 124.917 1.18781 120.549C1.03463 119.814 1.06041 118.928 1.52585 118.295C3.59613 115.487 6.64119 119.052 9.03152 119.297C10.395 119.421 10.462 118.63 10.4986 117.523C10.6079 114.228 12.2555 112.909 15.2563 112.22C10.9764 108.365 12.1681 103.429 14.1936 98.6713C16.4232 93.4335 19.5687 89.1023 23.1231 84.7015C15.0232 83.2332 4.8166 79.5565 1.09961 71.5692C0.256385 69.7747 -0.112133 67.7939 0.0296358 65.8161C0.287396 62.2586 1.84443 59.2051 2.72592 55.7661C3.23526 53.6153 3.68084 51.4439 4.12789 49.2777C6.40142 38.2631 12.7935 28.2167 23.1008 23.1944C25.915 21.8232 29.3173 21.1562 32.1395 19.8419C32.5544 19.329 32.9697 18.4514 33.3587 17.8752C35.0567 15.3603 36.1001 13.342 39.0927 12.38Z" fill="#132221"/>
<path d="M17.4773 99.0455C17.9041 98.0366 19.2457 95.4931 19.717 94.717C20.4412 93.525 26.0118 85.1523 26.9868 85.004C29.0337 84.6924 35.8983 85.3663 38.5396 85.3442C46.0893 85.2812 53.5113 85.5722 61.0347 85.0251C63.4512 84.8493 66.2674 84.7429 68.588 84.2051C70.8344 86.6134 77.1701 94.5018 78.3941 97.3246C77.0638 99.829 76.0891 100.32 73.7164 101.761C72.1955 98.7476 71.5752 95.1199 70.206 92.0226C69.9046 91.3409 69.5114 90.7463 68.7021 90.8323C68.4249 91.038 68.3072 91.1292 68.2406 91.4899C68.0368 92.5949 71.0185 101.221 71.5485 103.434C73.7285 112.54 74.0033 119.732 71.8477 128.887C73.4447 130.883 73.8522 130.459 74.5852 133.248C74.3918 133.711 74.2562 134.16 73.8818 134.486L73.6427 134.512C73.0913 133.682 72.1356 131.331 70.9328 131.98C70.0495 133.19 70.5371 134.096 70.9017 135.436L68.2258 135.582C68.2327 134.806 68.3142 133.807 68.0067 133.122L67.9713 133.041C67.144 131.189 65.8315 132.063 65.5387 133.612C65.438 134.144 65.542 135.04 65.6149 135.595C63.5189 135.597 61.411 135.663 59.3439 135.29C57.7154 135.29 53.5344 133.605 52.5585 132.185C51.7435 130.999 52.1127 128.293 52.3547 126.921C54.0607 126.45 56.2446 126.316 58.1933 125.778C58.4356 125.325 58.5664 125.145 58.5742 124.63C57.9675 123.439 55.6427 124.122 54.5155 124.212C52.6639 124.361 50.3386 124.858 49.8511 126.938C49.0986 129.624 50.7334 133.146 47.7427 134.766C45.6418 135.975 43.905 136.023 41.6209 136.385C41.635 135.626 41.7243 134.605 41.4339 133.93L41.3976 133.845C40.7346 132.31 39.6602 132.404 39.0901 133.874C38.8098 134.597 38.9199 135.618 38.9245 136.398L36.186 136.369C36.3207 135.554 36.6475 133.872 35.9963 133.372C33.7309 131.633 33.5354 135.499 33.517 136.372C31.2793 136.113 24.591 135.679 25.2668 132.121C25.3941 131.451 25.7959 130.368 26.034 129.705C23.8025 123.717 23.4206 120.739 23.637 114.274C25.9913 113.398 28.3885 112.527 29.5298 110.012C30.0189 108.927 30.3722 107.786 30.5819 106.614C30.8917 104.933 31.9629 93.6217 31.5796 92.6779C31.4838 92.442 31.2903 92.2931 31.0894 92.1493C28.8287 91.4669 29.0408 95.0203 28.8534 96.4247C28.5357 98.8051 28.261 101.338 28.1525 103.733C24.9424 103.149 20.0203 101.148 17.4773 99.0455Z" fill="#69BA87"/>
<path d="M58.1933 125.779C57.9277 128.292 57.1678 130.459 58.1782 132.928C58.4675 133.635 59.2063 134.856 59.344 135.29C57.7154 135.29 53.5345 133.605 52.5586 132.185C51.7436 131 52.1127 128.293 52.3548 126.921C54.0607 126.45 56.2447 126.317 58.1933 125.779Z" fill="#69BA87"/>
<path d="M61.2388 99.7414C63.908 100.651 65.1145 100.962 67.826 99.6709C68.2214 101.656 69.2376 105.726 68.5523 107.601C68.2837 108.336 67.4633 108.855 66.7475 109.136C64.7024 109.94 63.5504 109.239 61.6987 108.397C57.4637 111.616 55.5256 111.032 50.9701 109.168C50.165 109.44 49.7013 109.698 48.955 110.091C46.5683 111.279 43.7613 110.973 41.5718 109.518C40.9503 107.125 40.8028 103.036 41.0908 100.594C41.2873 100.68 41.4868 100.759 41.6889 100.831C45.7879 102.309 47.2467 101.89 51.0112 100.126C54.5554 102.144 57.8386 101.644 61.2388 99.7414Z" fill="#C0E9BA"/>
<path d="M52.9633 88.1162C53.6158 88.0424 54.4517 88.1212 55.1151 88.1651C62.0876 88.6256 65.1401 91.2295 67.1395 97.8899C64.2933 98.966 63.6656 98.5365 60.8841 97.494C58.5989 98.7506 58.1164 99.7476 55.1493 99.5588C53.7281 99.2937 51.9041 98.4264 50.4857 97.8754C46.8865 100.178 45.3839 100.908 41.3767 98.3699C42.2519 91.2326 46.1655 88.5846 52.9633 88.1162Z" fill="#C0E9BA"/>
<path d="M61.8991 110.592C63.6294 111.204 65.6463 111.51 67.4321 110.89C67.7594 110.776 68.0719 110.71 68.4118 110.656C68.4257 111.12 68.142 111.907 67.975 112.36C65.1075 120.142 55.6581 121.807 48.6322 119.259C44.8685 117.467 43.5647 115.693 41.9777 111.953C42.1901 112.028 42.403 112.102 42.6165 112.174C46.2737 113.413 47.8066 112.787 51.0291 111.194C55.2928 113.148 57.8772 113.259 61.8991 110.592Z" fill="#C0E9BA"/>
<path d="M49.6196 37.3683C54.0617 36.6831 61.4474 38.1941 65.5398 39.9113C75.0438 43.8989 75.3278 52.2628 76.5151 61.2119C76.8256 63.5526 77.5223 65.5721 77.6201 68.344C77.8507 74.8777 73.2007 78.0226 67.609 79.9562C59.131 82.5701 44.7882 82.9566 36.6925 79.0162C32.8765 77.2675 30.1394 73.8323 29.2866 69.7278C28.7745 67.2627 28.9638 64.9262 29.1909 62.4606C29.2622 61.6861 28.6896 61.2419 27.9353 61.1804C24.5438 62.1016 27.1569 74.2789 25.9818 75.5154C25.8836 75.6187 25.7067 75.7373 25.5628 75.7518C24.8254 75.8263 24.0047 75.4023 23.445 74.951C21.8567 73.6701 21.0616 71.2623 20.8714 69.284C20.4293 64.6868 22.8017 57.6834 24.2297 53.2986C25.0082 50.9081 25.6569 48.0533 27.3029 46.0905C28.3204 44.8773 29.7595 43.7508 31.0614 42.8591C36.6921 39.0028 42.9592 37.8974 49.6196 37.3683Z" fill="#FEFEFE"/>
<path d="M58.9138 60.7059C61.2291 60.5352 64.8442 61.5419 63.6974 64.8718C63.3683 65.8275 61.8559 66.2961 60.9289 66.5848C60.9468 68.0918 61.5478 69.1222 60.6104 70.3669C58.5844 70.4141 59.0434 68.3238 59.0478 66.8371C58.0588 66.5685 57.1313 66.4145 56.3029 65.7932C55.1152 64.9023 54.8563 63.589 55.6869 62.3483C56.5051 61.1258 57.5915 60.9608 58.9138 60.7059Z" fill="#132221"/>
<path d="M41.4133 55.3194C46.1291 54.8736 47.4078 61.5494 43.7327 63.0674C39.1035 63.3586 37.619 57.155 41.4133 55.3194Z" fill="#132221"/>
<path d="M68.0509 55.0424C71.8922 54.8648 73.6156 60.8759 70.2149 62.3256C69.8749 62.3356 69.111 62.3689 68.7975 62.2589C66.86 61.5729 65.5661 58.9697 66.1977 57.0077C66.5167 56.0166 67.1617 55.4987 68.0509 55.0424Z" fill="#132221"/>
<path d="M41.51 21.8151C59.2545 20.6201 74.1206 28.7668 79.4065 46.228C80.2977 48.6819 80.9692 51.3101 82.0601 53.6783C83.4638 56.7253 85.2572 59.537 86.4701 62.6766C87.8533 66.2572 86.706 70.0679 84.6042 73.1108C82.053 76.8043 76.9417 80.2262 72.5028 81.1121C75.7387 79.2815 79.5585 77.7293 81.782 74.6743C83.3252 72.5638 83.9599 69.9237 83.5444 67.3424C82.8888 63.2874 80.3249 59.014 78.9415 55.1419C76.8654 49.331 75.9145 43.4036 70.4745 39.6574C62.4564 34.136 52.0411 33.7419 42.741 35.2758C40.5403 35.8544 38.7598 36.0521 36.477 36.9313C31.2693 38.9368 25.4951 42.1358 23.1264 47.5262C20.2461 54.0805 17.7569 61.7865 17.5903 69.0298C17.5645 70.1502 18.0658 72.2898 18.4688 73.3159C20.9007 79.5063 27.5211 81.038 32.8236 83.4173C24.5004 82.4996 14.6349 81.0599 8.03049 75.4493C5.7485 73.5107 3.49108 70.6451 3.21506 67.5405C2.84829 63.4172 4.55743 60.7588 5.61922 56.9425C6.22173 54.7766 6.5732 52.366 7.12524 50.1692C8.85988 43.2651 10.6069 38.3588 15.3871 32.8949C22.3749 24.9079 31.343 22.4963 41.51 21.8151Z" fill="#69BA87"/>
<path d="M35.4549 27.1145C38.626 26.906 39.9708 31.2256 37.2364 32.51C35.0465 32.8659 34.4368 31.0694 34.0532 29.3406C34.4179 28.1857 34.5398 27.8955 35.4549 27.1145Z" fill="#132221"/>
<path d="M56.0711 26.5714C59.3943 26.3702 60.3408 30.3079 58.0255 31.7544C55.6317 31.8983 55.3577 30.784 54.8152 28.7408C55.1053 27.6616 55.1641 27.1767 56.0711 26.5714Z" fill="#132221"/>
<path d="M20.9167 114.112C20.7783 116.6 20.8818 123.215 21.6206 125.631C21.7977 126.643 23.3347 130.699 22.225 131.151C20.732 131.759 17.1551 131.143 15.5669 130.808C11.4573 129.941 8.22204 128.032 5.9575 124.442C5.22101 123.28 4.62829 121.675 4.01343 120.418C7.48863 121.993 9.37941 122.886 13.2284 121.395C17.318 119.811 18.6915 117.521 20.9167 114.112Z" fill="#69BA87"/>
<path d="M5.95758 124.442C6.54023 124.346 9.06292 125.751 9.88991 126.023C11.7372 126.63 13.5462 126.947 15.4967 126.921C17.7421 126.89 19.4887 126.144 21.6207 125.631C21.7978 126.643 23.3348 130.699 22.2251 131.151C20.7321 131.759 17.1551 131.143 15.5669 130.808C11.4574 129.941 8.22211 128.032 5.95758 124.442Z" fill="#C0E9BA"/>
<path d="M16.5354 102.234C18.4544 102.945 20.3756 104.051 22.3672 104.835C24.0805 105.509 26.3328 105.852 27.8445 106.463C28.7101 107.545 26.7183 109.598 25.9083 110.269C22.6881 112.377 17.901 112.508 15.9711 108.46C15.0179 106.461 15.7377 104.186 16.5354 102.234Z" fill="#FEFEFE"/>
<path d="M79.5487 100.204C80.6497 100.932 81.7678 104.836 81.5537 106.218C81.3926 107.257 80.8175 108.187 79.9595 108.795C78.9246 109.532 77.7411 109.641 76.5242 109.445C76.3347 109.367 76.1528 109.272 75.9806 109.161C74.8454 108.423 74.4203 105.868 74.1235 104.563C76.581 103.626 78.037 102.279 79.5487 100.204Z" fill="#FEFEFE"/>
<path d="M39.6657 15.2986C39.7637 15.2889 39.8619 15.2814 39.9603 15.276C41.8978 15.1764 44.6488 17.7197 46.0213 18.9603C44.6866 18.9126 43.4496 18.9378 42.1183 18.9656C40.0417 19.1034 37.9883 19.2803 35.9069 19.3492C37.0311 17.7078 38.0285 16.4385 39.6657 15.2986Z" fill="#69BA87"/>
<path d="M78.1594 60.4641C78.7374 60.8187 79.7599 62.8689 80.0319 63.5484C81.1151 66.2528 81.6372 69.2221 80.4763 71.9796C80.1432 72.2717 80.2687 72.2493 79.9036 72.2757C79.7401 71.9925 79.6519 68.882 79.6439 68.3568C79.6152 66.4564 78.0425 61.9645 78.1594 60.4641Z" fill="#FEFEFE"/>
<path d="M14.9909 114.665C15.7915 114.608 16.7191 114.647 17.5307 114.66C16.5225 116.076 15.9933 116.713 14.5621 117.693C14.4596 117.751 14.3559 117.808 14.2509 117.862C13.8385 118.072 13.5109 118.208 13.0571 118.062C12.1908 117.232 12.9921 115.931 13.6741 115.234C13.968 114.934 14.5893 114.783 14.9909 114.665Z" fill="#69BA87"/>
<path d="M159.506 38.7454L159.702 39.3472C160.119 39.1382 159.931 39.1699 160.422 39.2543C161.007 39.4417 161.057 39.3475 161.344 39.7525L161.345 40.672L161.594 39.6772C161.521 41.652 161.545 43.3601 161.596 45.3389C162.901 45.859 164.186 46.1561 165.488 46.7171C166.526 47.1645 167.439 48.528 168.254 48.9452C172.307 51.0185 175.598 52.706 178.811 56.1053C179.582 56.9356 180.299 57.8139 180.959 58.7348C181.761 59.861 182.404 61.1507 183.534 61.9635C187.809 65.3363 189.104 72.2121 185.671 76.6005C185.34 77.0255 184.452 77.9244 183.96 78.1898C183.594 78.5245 183.208 78.9411 182.911 79.3385C179.486 83.931 174.714 86.5134 168.997 87.2061C170.512 87.82 173.016 88.2434 174.239 89.3192C176.091 90.9467 177.399 93.8586 179.156 95.7753C179.951 96.6411 180.75 98.1702 181.518 99.1196C182.837 100.751 184.384 102.201 185.192 104.145C186.67 107.6 187.229 111.385 187.878 115.081C188.292 117.432 187.63 120.533 186.21 122.469C184.992 124.07 182.077 124.339 180.131 124.602C177.316 124.984 177.295 122.453 176.726 121.974L176.471 122.007C175.11 123.4 177.802 127.686 178.324 129.179C178.92 130.882 179.877 135.745 177.642 136.457C172.581 138.066 165.888 138.105 160.706 137.023C158.114 136.481 159.314 132.924 159.936 131.382C159.268 129.04 158.547 128.599 157.308 126.639C156.807 125.844 156.961 122.631 155.782 122.434L155.525 122.626C154.033 125.576 157.542 131.779 156.013 135.024C155.587 135.925 152.479 136.466 151.365 136.492C146.293 136.61 139.583 137.584 135.062 134.951C133.092 133.793 136.734 130.076 137.674 129.118C137.412 126.556 136.932 125.491 136.385 123.26C135.675 120.352 137.263 114.978 138.306 112.196C137.004 109.182 137.187 106.505 137.357 103.296C130.971 103.501 126.072 101.586 122.454 96.0581C121.693 94.8957 120.968 93.252 120.183 92.1899C118.672 90.1454 115.913 88.5715 116.128 85.5853C116.261 83.9994 118.16 81.7992 119.025 80.4365C119.15 80.2396 120.187 79.3716 120.432 79.1625C119.507 77.7245 118.746 76.1253 118.976 74.3712C119.1 73.3694 119.561 72.2746 120.796 72.5677C123.366 73.1776 125.026 76.1052 126.455 78.1328C128.819 79.1333 130.384 79.3425 131.313 82.1785C132.35 85.3419 135.395 88.4215 137.481 91.0094C138.454 90.2827 140.089 88.6197 141.173 88.19C142.882 87.5119 144.146 87.424 145.927 86.5684C144.647 85.9977 143.119 85.5425 141.765 84.979C138.708 83.7074 135.77 81.6366 134.02 78.7768C133.196 77.4332 132.671 75.3588 131.791 74.1673L131.756 74.12C129.441 71.7 130.072 66.5472 131.448 63.7759C131.942 63.0439 132.119 62.8146 132.728 62.1685C133.065 61.6687 133.683 61.2087 134.039 60.6021C137.955 53.9134 143.774 49.8687 151.228 47.9169C151.813 47.7639 152.874 46.6679 153.483 46.3966C154.911 45.7567 156.487 45.6179 158.013 45.2023C158.77 43.3469 158.876 40.6825 159.506 38.7454Z" fill="#184556"/>
<path d="M183.013 62.0664L183.534 61.9639C187.808 65.3366 189.104 72.2124 185.671 76.6008C185.34 77.0258 184.452 77.9248 183.96 78.1902C183.495 78.2408 183.069 78.2359 182.687 78.4789C181.974 78.0276 180.354 78.2402 179.481 77.3593C176.166 74.013 176.114 67.4007 179.062 63.796C180.093 62.5362 181.397 62.4625 182.887 62.3276L183.013 62.0664Z" fill="#316289"/>
<path d="M182.339 64.9639C186.912 64.7706 187.281 74.0108 183.3 75.735C179.174 76.2851 178.028 67.0386 182.339 64.9639Z" fill="#90F1FD"/>
<path d="M160.771 45.0056C161.077 45.4293 161.086 45.322 161.147 45.7941L161.002 46.1237C161.439 46.3096 161.536 46.2898 161.991 46.2556C161.948 46.396 161.984 46.3727 161.898 46.4444C163.08 46.8467 167.091 48.1613 166.588 49.7499C164.824 51.5151 156.523 50.6621 154.249 49.9576C155.054 47.6843 157.198 47.4359 157.746 46.5362L157.102 46.3975L157.196 46.2708C158.296 46.0052 157.531 45.694 158.624 45.3478C158.506 45.88 158.33 46.4312 158.474 46.9494C158.62 47.1499 158.688 47.2567 158.872 47.4304C159.24 47.3017 160.13 47.3608 160.564 47.3684C160.69 46.7028 160.725 45.7051 160.771 45.0056Z" fill="#BAF0DF"/>
<path d="M160.771 45.0056C161.077 45.4293 161.086 45.322 161.147 45.7941L161.002 46.1237C161.439 46.3096 161.536 46.2898 161.991 46.2556C161.948 46.396 161.984 46.3727 161.898 46.4444L161.454 46.5319C161.334 47.0266 161.289 47.1615 161.073 47.6216C160.165 48.4067 157.817 48.0676 157.746 46.5362L157.102 46.3975L157.196 46.2708C158.296 46.0052 157.531 45.694 158.624 45.3478C158.506 45.88 158.33 46.4312 158.474 46.9494C158.62 47.1499 158.688 47.2567 158.872 47.4304C159.24 47.3017 160.13 47.3608 160.564 47.3684C160.69 46.7028 160.725 45.7051 160.771 45.0056Z" fill="#184556"/>
<path d="M182.687 78.479C175.554 80.2771 174.661 73.4481 175.164 68.2022C175.356 66.1951 176.403 63.8188 178.016 62.5865C179.618 61.3628 181.202 61.7838 183.013 62.0665L182.887 62.3277C181.397 62.4626 180.093 62.5363 179.062 63.7961C176.114 67.4008 176.166 74.0131 179.481 77.3594C180.354 78.2403 181.974 78.0277 182.687 78.479Z" fill="#E5EDF5"/>
<path d="M131.448 63.7761C131.676 64.1546 132.021 64.3662 132.377 64.6304C131.723 66.6389 130.763 69.9789 131.716 72.0124C131.889 72.148 131.893 72.1797 132.099 72.2462C132.037 72.6016 131.736 73.877 131.756 74.1202C129.44 71.7002 130.071 66.5475 131.448 63.7761Z" fill="#316289"/>
<path d="M157.101 46.3977L157.746 46.5364C157.198 47.4361 155.054 47.6845 154.249 49.9578C153.462 49.7072 152.51 49.591 152.624 48.6208C153.393 47.4988 155.778 46.992 157.007 46.4407L157.101 46.3977Z" fill="#BAF0DF"/>
<path d="M132.377 64.6307C132.493 64.3974 132.628 64.2226 132.777 64.011L132.947 64.0772C132.366 66.5498 131.673 69.7028 132.099 72.2466C131.893 72.18 131.889 72.1483 131.716 72.0127C130.763 69.9792 131.723 66.6392 132.377 64.6307Z" fill="#E5EDF5"/>
<path d="M132.728 62.1687C132.696 62.5592 132.633 62.7084 132.456 63.0578L132.535 63.3492L132.716 63.3729L133.091 63.0804C133.333 63.3857 133.307 63.6385 133.138 63.9879L132.947 64.0768L132.777 64.0106C132.628 64.2222 132.493 64.397 132.377 64.6303C132.021 64.3661 131.676 64.1545 131.448 63.7761C131.942 63.044 132.119 62.8147 132.728 62.1687Z" fill="#184556"/>
<path d="M150.764 49.7979C153.262 52.6336 164.817 53.182 167.721 51.0308C173.044 53.0795 176.704 55.6628 179.885 60.5132C176.709 61.5186 175.623 62.4938 174.534 65.7179C173.335 69.2667 173.515 73.2613 175.09 76.6658C176.008 78.6502 177.771 79.3794 179.711 79.9979C176.592 83.329 173.385 84.4916 169.006 85.3265C160.918 86.5483 149.276 86.4392 141.608 83.1506C132.053 79.053 131.422 69.7893 135.403 61.1329C138.822 53.6981 143.548 52.3585 150.764 49.7979Z" fill="#E5EDF5"/>
<path d="M147.614 54.9767C151.168 54.6 159.444 54.948 162.782 55.9931C164.363 56.4906 165.836 57.2843 167.122 58.3317C168.976 59.8626 170.07 62.3152 170.192 64.7053C170.749 75.574 168.154 80.7211 157.103 81.722C151.489 82.1316 142.48 81.681 137.757 77.9701C132.354 73.7235 134.791 63.5162 138.266 58.7385C140.555 55.5924 143.945 55.3169 147.614 54.9767Z" fill="#192A3D"/>
<path d="M158.726 63.5088C163.176 63.2588 163.45 67.5323 162.494 70.8732C162.137 72.124 161.136 72.846 159.981 73.3441C155.605 74.1198 154.913 68.4156 156.351 65.5275C156.942 64.3417 157.51 63.9174 158.726 63.5088Z" fill="#90F1FD"/>
<path d="M141.812 62.3081C147.39 61.9075 146.317 70.6223 142.396 71.9569C141.838 71.9722 141.02 72.0017 140.527 71.789C137.351 70.4168 138.548 64.7855 140.638 62.9538C140.982 62.6527 141.398 62.4743 141.812 62.3081Z" fill="#90F1FD"/>
<path d="M146.983 72.6411C148.167 72.6672 151.838 72.7873 152.768 73.2593L152.835 73.4729C152.694 74.0079 152.42 74.3092 152.089 74.7515C149.89 76.1287 147.292 75.4968 146.983 72.6411Z" fill="#90F1FD"/>
<path d="M165.448 87.8096L167.546 87.7876C165.812 88.966 164.469 89.9263 163.733 92.0095C163.305 95.094 163.539 96.9368 165.362 99.5808C166.764 101.611 168.353 101.379 168.997 102.778C170.016 104.751 170.265 105.052 170.245 107.243C169.361 107.565 168.792 107.79 167.866 107.965C163.641 108.902 160.082 109.341 155.713 109.282C150.096 109.345 143.654 109.205 138.609 106.439C138.21 101.946 140.305 90.1484 145.496 88.0765C145.794 87.9576 146.344 87.8297 146.642 87.9836C146.596 88.3219 146.57 88.4574 146.591 88.7951C147.148 89.4924 147.713 89.6641 148.571 89.8048C153.348 90.5883 161.414 90.5873 165.448 87.8096Z" fill="#E5EDF5"/>
<path d="M157.205 97.1196C156.479 96.756 156.169 96.3295 156.4 95.4819C156.734 95.097 156.563 95.2134 157.052 95.0466C157.506 95.0548 157.715 95.2762 158.068 95.5553C157.939 96.1891 157.566 96.5902 157.205 97.1196Z" fill="#FFF39C"/>
<path d="M147.711 92.9144C148.995 92.818 150.075 92.742 151.276 93.3067C152.293 93.7799 153.073 94.6464 153.436 95.7068C154.54 98.8421 152.885 101.686 149.813 102.716C148.912 102.942 147.747 102.87 146.876 102.533C145.686 102.061 144.734 101.131 144.234 99.9527C142.927 96.8585 144.83 94.097 147.711 92.9144Z" fill="#5D8499"/>
<path d="M148.814 94.5279C150.068 94.4786 151.411 95.3479 151.803 96.5705C152.063 97.3939 151.984 98.2872 151.581 99.0513C150.988 100.165 150.169 100.616 149.006 100.963C144.162 100.588 144.83 95.2832 148.814 94.5279Z" fill="#90F1FD"/>
<path d="M141.878 93.8118C142.397 93.8041 142.208 93.7441 142.616 94.0063C142.93 94.7224 142.778 95.0411 142.099 95.3967C141.594 95.1821 141.257 94.9928 141.055 94.5077C141.291 94.0313 141.328 94.1267 141.878 93.8118Z" fill="#FFF39C"/>
<path d="M139.049 109.11L138.908 108.604L139.083 108.5C140.004 108.763 141.406 109.492 142.133 109.618C148.676 110.749 155.628 110.803 162.249 110.563C164.358 110.486 167.04 109.924 169.042 109.385C169.3 109.316 170.059 109.109 170.363 109.089C170.363 109.089 170.599 109.364 170.596 109.399C170.607 109.419 170.618 109.44 170.629 109.46C171.088 111.021 171.417 111.282 171.535 112.983C169.512 112.786 167.561 112.539 165.543 112.961C160.933 114.112 157.602 116.018 156.373 120.89C155.939 120.765 155.343 120.652 154.904 120.593C151.003 120.065 147.543 118.692 144.368 116.324C142.361 114.828 139.446 111.757 139.049 109.11Z" fill="#5D8499"/>
<path d="M139.049 109.11L138.908 108.604L139.083 108.5C140.004 108.763 141.406 109.492 142.133 109.618C148.676 110.749 155.628 110.803 162.249 110.563C164.358 110.486 167.04 109.924 169.042 109.385C169.3 109.316 170.059 109.109 170.363 109.089C170.363 109.089 170.599 109.364 170.596 109.399C170.607 109.419 170.618 109.44 170.629 109.46C168.742 110.21 167.317 110.614 165.351 111.12C157.994 112.499 145.678 112.506 139.049 109.11Z" fill="#5D8499"/>
<path d="M158.82 126.405C158.51 125.109 157.708 122.002 157.994 120.776C159.063 116.208 165.498 113.755 169.761 114.34C170.543 114.447 170.963 114.58 171.426 115.221L172.301 117.522C171.854 118.975 171.708 119.403 172.361 120.858C174.817 122.769 174.55 123.607 175.123 126.706C174.149 126.737 173.409 126.832 172.512 126.409C171.1 125.795 169.838 125.046 168.357 124.525C164.583 123.359 161.898 124.028 158.82 126.405Z" fill="#E5EDF5"/>
<path d="M171.426 115.222L172.301 117.523C171.854 118.976 171.708 119.404 172.36 120.859C174.817 122.769 174.55 123.607 175.123 126.707C174.149 126.738 173.409 126.833 172.512 126.41C171.1 125.795 169.838 125.047 168.357 124.525C168.103 122.431 167.233 119.448 167.548 117.493C167.965 114.903 170.296 115.997 171.426 115.222Z" fill="#E5EDF5"/>
<path d="M172.36 120.859C174.817 122.769 174.55 123.607 175.123 126.707C174.149 126.738 173.409 126.832 172.512 126.41C172.899 125.448 172.057 122.653 172.36 120.859Z" fill="#E5EDF5"/>
<path d="M178.834 101.506C179.775 101.452 180.536 101.475 181.477 101.506C183.695 104.772 185.04 107.568 185.387 111.504C181.888 111.97 179.921 111.693 176.85 114.304C176.495 114.796 176.051 115.55 175.717 116.08C175.142 115.316 174.4 114.63 173.806 113.806C172.044 111.351 171.548 108.715 171.508 105.78C171.548 105.704 171.591 105.628 171.637 105.554C172.879 103.503 176.591 102.045 178.834 101.506Z" fill="#E5EDF5"/>
<path d="M131.479 86.3228C132.984 87.5977 133.782 88.7049 135.059 90.075C137.951 93.176 136.455 96.3816 133.014 98.4372C131.312 99.5059 129.061 100.377 127.279 98.9762C125.373 97.4776 124.021 95.4641 122.721 93.4529C122.665 93.2777 122.693 93.1616 122.711 92.9797C123.064 92.601 123.785 92.4332 124.3 92.2641C127.921 90.8654 129.192 89.2777 131.479 86.3228Z" fill="#E5EDF5"/>
<path d="M126.259 91.9646C127.591 94.0809 129.081 96.1073 131.199 97.4844C131.794 97.8716 132.62 98.1321 133.014 98.4371C131.312 99.5057 129.061 100.377 127.279 98.9761C125.373 97.4775 124.021 95.464 122.721 93.4528C122.665 93.2776 122.693 93.1614 122.711 92.9795C123.064 92.6008 123.785 92.433 124.3 92.264C124.409 92.5791 124.409 92.6381 124.632 92.8728L126.259 91.9646Z" fill="#E5EDF5"/>
<path d="M122.721 93.4527C122.665 93.2775 122.693 93.1614 122.711 92.9795C123.064 92.6008 123.785 92.4329 124.3 92.2639C124.409 92.579 124.409 92.6381 124.632 92.8727C123.943 93.1105 123.437 93.277 122.721 93.4527Z" fill="#CCDEF1"/>
<path d="M144.452 118.333C146.114 119.411 146.925 119.871 148.715 120.614C150.353 121.128 152.039 121.543 153.628 122.049C153.375 123.695 153.36 124.818 153.316 126.474C151.58 127.19 150.045 127.264 148.253 126.532C146.79 125.892 145.259 124.682 143.768 123.876C144.148 122.968 143.584 119.943 144.452 118.333Z" fill="#E5EDF5"/>
<path d="M144.452 118.333C146.114 119.411 146.925 119.871 148.715 120.614C148.17 121.548 148.556 125.106 148.253 126.532C146.79 125.892 145.259 124.682 143.768 123.876C144.148 122.968 143.584 119.943 144.452 118.333Z" fill="#E5EDF5"/>
<path d="M144.654 126.115C145.416 126.505 146.043 126.869 146.776 127.307C149.494 128.61 151.248 128.8 154.016 127.488C154.587 129.412 154.858 130.196 154.966 132.206C153.047 132.806 151.918 133.066 149.896 133.268C149.214 133.336 147.21 133.463 146.662 133.606C146.051 132.829 145.351 132.052 144.695 131.304L143.737 130.609C144.843 129.585 144.695 127.49 144.654 126.115Z" fill="#E5EDF5"/>
<path d="M144.654 126.115C145.416 126.505 146.043 126.869 146.776 127.307C146.27 128.804 146.562 129.057 145.704 130.694C145.478 130.824 144.866 131.163 144.695 131.304L143.737 130.609C144.843 129.585 144.695 127.49 144.654 126.115Z" fill="#E5EDF5"/>
<path d="M169.528 130.866C168.003 130.247 165.801 130.175 164.16 130.291C163.512 130.337 161.82 130.916 161.538 130.812C159.761 126.841 158.978 126.159 164.289 125.652C166.087 125.481 167.931 125.939 169.581 126.611C170.525 127 171.337 127.334 172.245 127.798C171.929 129.812 172.293 129.921 170.857 131.514C170.426 131.265 169.981 131.073 169.528 130.866Z" fill="#E5EDF5"/>
<path d="M169.581 126.611C170.525 127 171.337 127.334 172.245 127.798C171.929 129.812 172.293 129.921 170.857 131.514C170.426 131.265 169.981 131.072 169.528 130.866C169.981 129.313 169.507 128.142 169.581 126.611Z" fill="#E5EDF5"/>
<path d="M171.829 92.0867C174.538 92.0213 176.392 94.5526 177.881 96.4614C176.299 96.9926 174.103 98.3022 172.892 99.4416C172.026 100.28 171.088 101.332 170.219 102.22C169.194 98.9803 168.297 94.0835 171.829 92.0867Z" fill="#E5EDF5"/>
<path d="M139.375 113.448C141.214 115.802 142.029 116.557 144.452 118.333C143.584 119.943 144.148 122.968 143.768 123.875C141.711 122.886 139.864 122.621 137.616 122.545C137.454 119.155 137.967 116.584 139.375 113.448Z" fill="#E5EDF5"/>
<path d="M129.567 82.1567C131.074 83.5841 130.116 86.3475 128.753 87.5949C126.608 89.5585 125.085 90.9158 122.122 91.3158C121.104 90.8881 120.795 90.7118 119.976 89.9079L119.695 89.4378C120.134 88.8858 121.066 89.3599 122.414 88.2082C123.182 86.9168 124.842 84.2596 126.581 85.0416L126.696 84.9799C127.444 84.5836 128.407 84.241 128.634 83.5023C128.791 83.7351 128.894 83.9323 129.125 84.0899C129.368 83.6213 129.479 82.7019 129.567 82.1567Z" fill="#5D8499"/>
<path d="M128.634 83.5024C128.791 83.7352 128.894 83.9324 129.125 84.0901C128.732 84.8492 127.274 85.8258 126.581 85.0418L126.697 84.98C127.444 84.5837 128.407 84.2411 128.634 83.5024Z" fill="#E5EDF5"/>
<path d="M122.414 88.2085L122.641 88.4175C122.337 89.228 120.781 89.6963 119.976 89.9082L119.695 89.4381C120.134 88.8861 121.066 89.3602 122.414 88.2085Z" fill="#E5EDF5"/>
<path d="M169.398 89.0913C171.211 88.546 173.365 89.9896 174.753 91.0435C171.15 90.3526 169.024 90.8574 168.224 94.9456C167.93 96.4409 167.954 98.9061 168.247 100.387C167.51 99.8276 166.475 99.0621 166.139 98.1561C164.821 96.16 164.665 92.3344 166.378 90.5474C167.056 89.8397 168.403 89.1257 169.398 89.0913Z" fill="#5D8499"/>
<path d="M166.139 98.156C164.821 96.16 164.665 92.3344 166.378 90.5474C167.056 89.8396 168.403 89.1257 169.398 89.0913C169.227 89.5686 168.459 90.1782 168.046 90.522C166.212 92.0439 166.193 94.2852 166.16 96.4772C166.151 97.0114 166.416 97.7278 166.139 98.156Z" fill="#5D8499" fill-opacity="0.0666667"/>
<path d="M180.295 113.764C181.43 113.305 184.027 112.692 185.059 113.224C187.394 114.428 186.028 117.055 183.956 117.584C182.355 117.992 180.744 118.111 179.25 117.695C179.129 117.647 179.01 117.595 178.892 117.54C176.152 116.24 178.506 114.399 180.295 113.764Z" fill="#5D8499"/>
<path d="M180.295 113.764C180.05 114.326 179.86 114.559 179.494 115.055C179.497 115.598 179.649 117.452 179.25 117.695C179.129 117.647 179.01 117.595 178.892 117.54C176.152 116.24 178.506 114.399 180.295 113.764Z" fill="#5D8499"/>
<path d="M163.755 134.656C162.884 134.702 161.114 134.57 160.691 133.691C160.632 132.609 161.973 131.919 162.824 131.554C164.827 130.695 166.924 130.936 168.89 131.744C170.418 132.474 171.39 132.975 172.566 134.274C170.615 134.667 165.697 135.006 163.755 134.656Z" fill="#E5EDF5"/>
<path d="M168.89 131.744C170.418 132.474 171.39 132.975 172.566 134.274C170.615 134.667 165.698 135.006 163.755 134.656C164.422 134.566 165.482 134.662 166.181 134.551C166.176 134.552 166.459 133.773 166.566 133.667C167.266 132.978 168.154 132.418 168.89 131.744Z" fill="#E5EDF5"/>
<path d="M138.452 123.849C141.616 124.3 141.884 124.444 144.654 126.115C144.696 127.489 144.843 129.585 143.737 130.609C142.323 129.863 141.251 129.669 139.687 129.562L139.472 129.436C139.205 128.889 138.64 124.814 138.452 123.849Z" fill="#E5EDF5"/>
<path d="M172.245 127.798C173.876 128.256 174.629 128.207 176.289 127.886C176.937 129.907 177.196 130.751 177.475 132.852C175.887 133.642 175.467 133.803 173.738 134.067C172.777 133.12 171.951 132.309 170.857 131.514C172.293 129.921 171.929 129.812 172.245 127.798Z" fill="#E5EDF5"/>
<path d="M139.509 130.427C140.401 130.452 141.24 130.464 142.068 130.832C143.094 131.288 144.99 132.204 145.214 133.353C144.98 133.662 145.043 133.567 144.607 133.718C141.429 133.514 139.85 133.988 136.539 132.647C137.251 131.013 137.657 130.496 139.509 130.427Z" fill="#E5EDF5"/>
<path d="M128.634 83.5025C127.235 83.6394 122.54 83.7913 123.927 81.0782C124.241 80.4734 124.793 80.0258 125.449 79.8418C127.177 79.3442 129.126 80.4176 129.567 82.1569C129.48 82.7021 129.368 83.6215 129.125 84.0901C128.894 83.9325 128.791 83.7353 128.634 83.5025Z" fill="#E5EDF5"/>
<path d="M120.979 77.4327C120.454 76.6151 119.886 75.4445 120.562 74.5763C121.587 73.8959 122.745 74.8352 123.484 75.5234C124.081 76.3739 124.334 76.7806 124.798 77.7084L125.111 78.2661L125.022 78.4547C124.301 78.5639 123.288 79.3636 122.799 79.5451C122.704 79.5803 122.145 78.9201 121.983 78.7254C121.455 78.2275 121.36 78.0594 120.979 77.4327Z" fill="#E5EDF5"/>
<path d="M120.979 77.4327C120.454 76.6151 119.886 75.4445 120.562 74.5763C121.587 73.8959 122.745 74.8352 123.484 75.5234C123.266 76.2344 121.616 77.4158 120.979 77.4327Z" fill="#E5EDF5"/>
<path d="M124.798 77.7085L125.111 78.2662L125.022 78.4548C124.301 78.5639 123.288 79.3637 122.799 79.5452C122.704 79.5803 122.145 78.9201 121.983 78.7254C122.719 78.3608 124.002 77.8202 124.798 77.7085Z" fill="#E5EDF5"/>
<path d="M117.642 87.2707C116.447 84.6512 118.233 83.3373 120.712 84.7583C123.889 86.8063 119.469 89.7865 117.642 87.2707Z" fill="#E5EDF5"/>
<path d="M117.642 87.2707C116.447 84.6512 118.233 83.3373 120.712 84.7583C119.701 85.2224 118.73 85.0306 118.193 86.2572C118.094 86.4826 117.782 87.1208 117.642 87.2707Z" fill="#E5EDF5"/>
<path d="M173.965 120.83C171.508 119.266 173.42 117.691 174.979 116.575C174.778 117.073 174.336 117.683 174.355 118.146L174.667 118.26L176.294 116.984C176.923 117.669 177.365 118.143 178.066 118.757C176.782 120.59 176.216 120.926 173.965 120.83Z" fill="#E5EDF5"/>
<path d="M173.965 120.83C171.508 119.266 173.42 117.691 174.979 116.575C174.778 117.073 174.336 117.683 174.355 118.146L174.667 118.26C174.993 118.385 175.031 118.382 175.248 118.639C175.306 119.193 174.349 120.592 173.965 120.83Z" fill="#E5EDF5"/>
<path d="M179.891 123.353C179.423 123.304 178.974 123.299 178.813 122.747C178.477 121.605 178.497 120.449 178.986 119.354C179.327 119.244 179.798 119.407 180.201 119.487C180.814 119.475 181.853 119.403 182.405 119.57C182.576 119.807 182.793 120.05 182.694 120.358C182.184 121.943 181.35 122.828 179.891 123.353Z" fill="#E5EDF5"/>
<path d="M179.891 123.353C179.423 123.304 178.974 123.299 178.813 122.747C178.477 121.605 178.497 120.449 178.986 119.354C179.327 119.244 179.798 119.407 180.201 119.487C180.105 120.838 179.618 122.24 179.891 123.353Z" fill="#E5EDF5"/>
<path d="M150.025 87.5177C151.831 87.4711 154.543 87.7825 156.462 87.8434C158.218 87.8991 161.282 87.8089 162.857 88.0438C161.924 88.1351 161.239 88.264 160.32 88.4433C158.49 88.6532 149.471 89.5485 148.91 88.2223C149.123 87.8321 149.602 87.6972 150.025 87.5177Z" fill="#5B717F"/>
<path d="M122.172 80.7856C122.88 81.1705 122.485 82.159 122.723 82.8638C122.962 83.5799 123.966 84.2181 123.513 84.9674C122.246 85.3519 121.308 83.3926 119.901 83.4012C119.302 82.8869 119.23 82.0669 119.843 81.5114C120.643 80.786 121.135 80.7663 122.172 80.7856Z" fill="#E5EDF5"/>
<path d="M119.901 83.4012C119.302 82.8869 119.23 82.0669 119.843 81.5114C120.643 80.786 121.135 80.7663 122.172 80.7856C120.847 81.786 120.755 82.0409 119.901 83.4012Z" fill="#E5EDF5"/>
<path d="M176.622 98.5898C176.552 100.172 177.15 99.6159 177.508 100.61C175.695 101.231 174.374 101.917 172.672 102.791C172.005 103.425 171.541 103.833 170.815 104.399C171.912 102.033 173.268 100.71 175.425 99.3646C175.735 99.0256 176.211 98.8119 176.622 98.5898Z" fill="#5D8499"/>
<path d="M170.815 104.399C171.912 102.033 173.268 100.71 175.425 99.3647L175.511 99.729C174.77 100.771 173.924 100.831 172.672 102.791C172.005 103.425 171.541 103.833 170.815 104.399Z" fill="#5D8499"/>
<path d="M186.292 117.989L186.386 118.103C186.674 120.218 185.02 122.426 182.879 122.79L182.761 122.594C182.929 121.847 183.486 120.235 183.726 119.356C184.673 118.926 185.389 118.511 186.292 117.989Z" fill="#E5EDF5"/>
<path d="M178.894 97.7397C179.591 98.4713 179.904 99.1518 180.346 100.056C179.411 100.235 178.434 100.408 177.508 100.611C177.151 99.6164 176.552 100.172 176.622 98.5904C177.31 98.2166 178.143 97.983 178.894 97.7397Z" fill="#5D8499"/>
<path d="M141.86 89.5286L142.051 89.5605C142.045 89.9135 141.404 90.6106 141.12 90.9339C140.408 91.7469 139.64 94.2587 139.132 94.9006L139.006 94.7376C138.716 93.7217 138.572 93.2603 138.12 92.3125C139.44 91.0412 140.222 90.3389 141.86 89.5286Z" fill="#E5EDF5"/>
<path d="M138.315 95.9014L138.544 96.13C138.634 96.9734 137.947 100.395 137.551 101.152C136.859 101.792 135.89 101.702 134.946 101.742L134.834 101.651L134.839 101.456C137.399 100.463 137.598 98.1693 138.315 95.9014Z" fill="#5D8499"/>
<path d="M134.361 98.8666C135.013 98.9451 135.3 98.8623 135.953 98.7363C135.109 100.292 132.069 101.867 130.611 100.824C130.74 100.455 132.585 99.9285 133.052 99.6606C133.5 99.4029 133.927 99.1547 134.361 98.8666Z" fill="#5D8499"/>
<path d="M134.361 98.8664C134.977 98.3209 135.621 97.7968 136.133 97.1463C136.565 96.594 136.606 95.699 137.026 95.3745C137.438 96.6542 136.509 97.7251 135.953 98.7361C135.301 98.8621 135.013 98.9449 134.361 98.8664Z" fill="#5D8499"/>
<path d="M87.5486 0.100043C87.8652 0.0598215 88.2487 0.0534041 88.5721 0.0415767C94.9479 -0.199604 101.831 0.493826 106.583 5.19328C111.172 9.73166 111.254 18.2122 106.612 22.7404C102.039 27.2014 95.547 27.3335 89.5689 27.3697C89.3488 27.3613 88.4238 27.3105 88.1625 27.406C85.9143 28.2413 83.8598 32.5155 81.0379 30.9159C79.6399 30.1236 81.8646 26.604 80.7913 26.1652C75.9181 24.1735 72.3932 20.8344 71.7969 15.3802C71.4442 12.1531 72.056 8.62047 74.1272 6.01412C77.5918 1.73356 82.2625 0.706277 87.5486 0.100043Z" fill="#132221"/>
<path d="M87.3717 1.71031C88.0681 1.60483 88.85 1.67343 89.5713 1.62752C96.9763 1.02033 108.023 4.23306 108.011 13.3623C107.997 23.456 97.6474 25.1629 89.9291 25.191C88.8065 25.1443 87.6844 25.0879 86.5629 25.0217C85.4646 26.8341 84.2438 27.8039 82.5398 29C82.9204 27.5561 82.9636 26.049 83.4375 24.4666C81.0722 23.8809 79.3509 23.1997 77.4223 21.7188C72.8797 18.2308 71.9998 11.4159 75.6744 6.97096C78.5399 3.50455 83.0517 2.20751 87.3717 1.71031Z" fill="#FEFEFE"/>
<path d="M122.509 27.5684C122.56 27.5652 122.611 27.5622 122.662 27.5595C131.069 27.1315 141.685 30.1045 142.109 40.1946C142.477 48.978 135.346 52.9636 127.408 53.2937C127.61 55.192 128.472 57.9217 125.685 57.6049C124.405 56.778 122.177 54.4734 120.988 53.3185C116.787 52.7225 112.685 52.3358 109.331 49.4441C104.485 45.2659 104.103 37.4081 108.36 32.6643C112.13 28.4629 117.163 27.876 122.509 27.5684Z" fill="#172425"/>
<path d="M121.278 29.0435C125.783 28.3979 133.085 29.8258 136.628 32.8341C138.642 34.5526 139.893 36.998 140.11 39.6364C140.161 40.3261 140.151 41.0745 140.028 41.7556C138.686 49.24 131.794 50.9798 125.317 51.4333L125.705 54.5974C125.739 54.9163 125.78 54.7791 125.593 55.0259C124.79 54.8142 122.674 52.18 122.11 51.4372C120.996 51.1934 119.426 51.1061 118.229 50.8998C115.729 50.4429 112.731 49.4355 110.736 47.8199C106.668 44.525 105.917 37.9247 109.391 33.9366C112.361 30.5274 116.974 29.4556 121.278 29.0435Z" fill="#FEFEFE"/>
<path d="M159.506 38.7456L159.519 38.6319C159.746 36.6302 156.342 36.7908 156.712 32.922C156.822 31.7063 157.414 30.5852 158.355 29.8079C161.467 27.2416 166.675 29.8254 165.946 34.0148C165.528 36.417 163.811 37.4611 161.607 37.9996L161.593 39.6774L161.345 40.6722L161.344 39.7528C161.056 39.3477 161.007 39.442 160.421 39.2546C159.931 39.1701 160.119 39.1384 159.702 39.3475L159.506 38.7456Z" fill="#184556"/>
<path d="M160.839 31.041C162.117 30.7614 163.384 31.5532 163.695 32.8245C164.003 34.0957 163.241 35.381 161.976 35.7191C161.133 35.9446 160.234 35.6957 159.625 35.0685C159.017 34.4413 158.797 33.5342 159.05 32.698C159.302 31.8619 159.987 31.2279 160.839 31.041Z" fill="#90F1FD"/>
</svg>
