<svg width="122" height="24" viewBox="0 0 122 24" fill="none" xmlns="http://www.w3.org/2000/svg">
<path d="M2.97202 23.3562C2.02443 23.3562 1.29219 23.0977 0.77532 22.5809C0.258449 22.0425 1.36785e-05 21.2887 1.36785e-05 20.3196V3.03668C1.36785e-05 2.04601 0.258449 1.29224 0.77532 0.775365C1.29219 0.258494 2.02443 5.83584e-05 2.97202 5.83584e-05C3.94116 5.83584e-05 4.67339 0.258494 5.16872 0.775365C5.6856 1.29224 5.94403 2.04601 5.94403 3.03668V20.3196C5.94403 21.2887 5.69636 22.0425 5.20103 22.5809C4.70569 23.0977 3.96269 23.3562 2.97202 23.3562ZM12.8418 23.3562C11.9373 23.3562 11.2481 23.1193 10.7743 22.6455C10.3005 22.1717 10.0636 21.4717 10.0636 20.5457V2.93976C10.0636 1.99217 10.3005 1.2707 10.7743 0.775365C11.2481 0.258494 11.8727 5.83584e-05 12.648 5.83584e-05C13.3371 5.83584e-05 13.8755 0.129276 14.2632 0.387712C14.6508 0.646147 15.0816 1.07687 15.5554 1.67989L25.7959 14.4724H24.8913V2.77824C24.8913 1.87372 25.1175 1.18456 25.5697 0.710757C26.0435 0.236958 26.7327 5.83584e-05 27.6372 5.83584e-05C28.5417 5.83584e-05 29.2201 0.236958 29.6724 0.710757C30.1462 1.18456 30.3831 1.87372 30.3831 2.77824V20.6749C30.3831 21.4933 30.1677 22.1501 29.737 22.6455C29.3063 23.1193 28.7248 23.3562 27.9926 23.3562C27.2603 23.3562 26.6789 23.227 26.2481 22.9685C25.8389 22.6885 25.3974 22.2578 24.9236 21.6763L14.6831 8.85148H15.5877V20.5457C15.5877 21.4717 15.3508 22.1717 14.877 22.6455C14.4247 23.1193 13.7463 23.3562 12.8418 23.3562ZM44.6233 23.4208C42.965 23.4208 41.5005 23.2162 40.2299 22.807C38.9593 22.3763 37.8824 21.7409 36.9994 20.901C36.138 20.0611 35.4811 19.0166 35.0289 17.7675C34.5982 16.4969 34.3828 15.0324 34.3828 13.3741V3.00437C34.3828 2.0137 34.6412 1.2707 35.1581 0.775365C35.675 0.258494 36.4072 5.83584e-05 37.3548 5.83584e-05C38.3239 5.83584e-05 39.0562 0.258494 39.5515 0.775365C40.0684 1.2707 40.3268 2.0137 40.3268 3.00437V13.4387C40.3268 15.097 40.6929 16.3461 41.4252 17.186C42.1574 18.0259 43.2234 18.4459 44.6233 18.4459C46.0016 18.4459 47.0569 18.0259 47.7891 17.186C48.5214 16.3461 48.8875 15.097 48.8875 13.4387V3.00437C48.8875 2.0137 49.1351 1.2707 49.6305 0.775365C50.1474 0.258494 50.8796 5.83584e-05 51.8272 5.83584e-05C52.7748 5.83584e-05 53.4962 0.258494 53.9916 0.775365C54.4869 1.2707 54.7346 2.0137 54.7346 3.00437V13.3741C54.7346 15.5923 54.3469 17.4552 53.5716 18.9628C52.8179 20.4488 51.6872 21.5687 50.1797 22.3224C48.6721 23.0547 46.82 23.4208 44.6233 23.4208ZM61.6816 23.3562C60.734 23.3562 60.0017 23.0977 59.4849 22.5809C58.968 22.0425 58.7095 21.2995 58.7095 20.3519V3.29511C58.7095 2.32598 58.968 1.58298 59.4849 1.0661C60.0233 0.549234 60.7663 0.290798 61.7139 0.290798H69.6608C72.2451 0.290798 74.2372 0.958424 75.6371 2.29367C77.0585 3.60739 77.7692 5.4272 77.7692 7.75312C77.7692 10.079 77.0585 11.9096 75.6371 13.2449C74.2372 14.5586 72.2451 15.2155 69.6608 15.2155H64.6536V20.3519C64.6536 21.2995 64.4059 22.0425 63.9106 22.5809C63.4152 23.0977 62.6722 23.3562 61.6816 23.3562ZM64.6536 10.6605H68.627C69.7469 10.6605 70.6083 10.4236 71.2114 9.94983C71.8144 9.45449 72.1159 8.72226 72.1159 7.75312C72.1159 6.76245 71.8144 6.03022 71.2114 5.55642C70.6083 5.08262 69.7469 4.84573 68.627 4.84573H64.6536V10.6605ZM83.5446 23.0654C82.597 23.0654 81.854 22.807 81.3156 22.2901C80.7987 21.7517 80.5403 21.0087 80.5403 20.0611V3.26281C80.5403 2.29367 80.7987 1.55067 81.3156 1.0338C81.8325 0.51693 82.5647 0.258494 83.5123 0.258494C84.4814 0.258494 85.2137 0.51693 85.709 1.0338C86.2259 1.55067 86.4843 2.29367 86.4843 3.26281V18.1229H94.3666C95.185 18.1229 95.8095 18.3382 96.2402 18.7689C96.6925 19.1781 96.9186 19.7811 96.9186 20.578C96.9186 21.3748 96.6925 21.9886 96.2402 22.4193C95.8095 22.8501 95.185 23.0654 94.3666 23.0654H83.5446ZM100.219 23.3562C99.5516 23.3562 98.9917 23.2054 98.5394 22.9039C98.0871 22.5809 97.8072 22.1501 97.6995 21.6117C97.5918 21.0518 97.6887 20.4272 97.9902 19.7381L106.034 2.42289C106.422 1.58298 106.895 0.969192 107.455 0.581538C108.037 0.193885 108.694 5.83584e-05 109.426 5.83584e-05C110.158 5.83584e-05 110.794 0.193885 111.332 0.581538C111.892 0.969192 112.376 1.58298 112.786 2.42289L120.829 19.7381C121.174 20.4272 121.293 21.0518 121.185 21.6117C121.099 22.1717 120.829 22.6024 120.377 22.9039C119.946 23.2054 119.408 23.3562 118.762 23.3562C117.901 23.3562 117.233 23.1623 116.759 22.7747C116.307 22.387 115.898 21.7625 115.532 20.901L113.787 16.7984L116.048 18.4459H102.739L105.033 16.7984L103.288 20.901C102.901 21.7625 102.502 22.387 102.093 22.7747C101.684 23.1623 101.059 23.3562 100.219 23.3562ZM109.361 6.49325L105.614 15.4416L104.71 13.891H114.11L113.206 15.4416L109.426 6.49325H109.361Z" fill="#4B4B4B"/>
</svg>
