<svg width="122" height="24" viewBox="0 0 122 24" fill="none" xmlns="http://www.w3.org/2000/svg">
<path d="M2.97202 23.3561C2.02443 23.3561 1.29219 23.0977 0.77532 22.5808C0.258449 22.0424 1.36785e-05 21.2886 1.36785e-05 20.3195V3.03662C1.36785e-05 2.04595 0.258449 1.29218 0.77532 0.775305C1.29219 0.258435 2.02443 -7.69391e-07 2.97202 -7.69391e-07C3.94116 -7.69391e-07 4.67339 0.258435 5.16872 0.775305C5.6856 1.29218 5.94403 2.04595 5.94403 3.03662V20.3195C5.94403 21.2886 5.69636 22.0424 5.20103 22.5808C4.70569 23.0977 3.96269 23.3561 2.97202 23.3561ZM12.8418 23.3561C11.9373 23.3561 11.2481 23.1192 10.7743 22.6454C10.3005 22.1716 10.0636 21.4717 10.0636 20.5456V2.9397C10.0636 1.99211 10.3005 1.27064 10.7743 0.775305C11.2481 0.258435 11.8727 -7.69391e-07 12.648 -7.69391e-07C13.3371 -7.69391e-07 13.8755 0.129217 14.2632 0.387653C14.6508 0.646088 15.0816 1.07681 15.5554 1.67983L25.7959 14.4724H24.8913V2.77818C24.8913 1.87366 25.1175 1.1845 25.5697 0.710697C26.0435 0.236899 26.7327 -7.69391e-07 27.6372 -7.69391e-07C28.5417 -7.69391e-07 29.2201 0.236899 29.6724 0.710697C30.1462 1.1845 30.3831 1.87366 30.3831 2.77818V20.6748C30.3831 21.4932 30.1677 22.1501 29.737 22.6454C29.3063 23.1192 28.7248 23.3561 27.9926 23.3561C27.2603 23.3561 26.6789 23.2269 26.2481 22.9685C25.8389 22.6885 25.3974 22.2578 24.9236 21.6763L14.6831 8.85142H15.5877V20.5456C15.5877 21.4717 15.3508 22.1716 14.877 22.6454C14.4247 23.1192 13.7463 23.3561 12.8418 23.3561ZM44.6233 23.4207C42.965 23.4207 41.5005 23.2161 40.2299 22.8069C38.9593 22.3762 37.8824 21.7409 36.9994 20.901C36.138 20.0611 35.4811 19.0165 35.0289 17.7674C34.5982 16.4968 34.3828 15.0323 34.3828 13.374V3.00431C34.3828 2.01364 34.6412 1.27064 35.1581 0.775305C35.675 0.258435 36.4072 -7.69391e-07 37.3548 -7.69391e-07C38.3239 -7.69391e-07 39.0562 0.258435 39.5515 0.775305C40.0684 1.27064 40.3268 2.01364 40.3268 3.00431V13.4386C40.3268 15.0969 40.6929 16.346 41.4252 17.186C42.1574 18.0259 43.2234 18.4458 44.6233 18.4458C46.0016 18.4458 47.0569 18.0259 47.7891 17.186C48.5214 16.346 48.8875 15.0969 48.8875 13.4386V3.00431C48.8875 2.01364 49.1351 1.27064 49.6305 0.775305C50.1474 0.258435 50.8796 -7.69391e-07 51.8272 -7.69391e-07C52.7748 -7.69391e-07 53.4962 0.258435 53.9916 0.775305C54.4869 1.27064 54.7346 2.01364 54.7346 3.00431V13.374C54.7346 15.5923 54.3469 17.4552 53.5716 18.9627C52.8179 20.4487 51.6872 21.5686 50.1797 22.3224C48.6721 23.0546 46.82 23.4207 44.6233 23.4207ZM61.6816 23.3561C60.734 23.3561 60.0017 23.0977 59.4849 22.5808C58.968 22.0424 58.7095 21.2994 58.7095 20.3518V3.29505C58.7095 2.32592 58.968 1.58292 59.4849 1.06605C60.0233 0.549175 60.7663 0.290739 61.7139 0.290739H69.6608C72.2451 0.290739 74.2372 0.958365 75.6371 2.29362C77.0585 3.60733 77.7692 5.42715 77.7692 7.75307C77.7692 10.079 77.0585 11.9096 75.6371 13.2448C74.2372 14.5585 72.2451 15.2154 69.6608 15.2154H64.6536V20.3518C64.6536 21.2994 64.4059 22.0424 63.9106 22.5808C63.4152 23.0977 62.6722 23.3561 61.6816 23.3561ZM64.6536 10.6605H68.627C69.7469 10.6605 70.6083 10.4236 71.2114 9.94977C71.8144 9.45443 72.1159 8.7222 72.1159 7.75307C72.1159 6.7624 71.8144 6.03016 71.2114 5.55636C70.6083 5.08257 69.7469 4.84567 68.627 4.84567H64.6536V10.6605ZM83.5446 23.0654C82.597 23.0654 81.854 22.8069 81.3156 22.2901C80.7987 21.7517 80.5403 21.0087 80.5403 20.0611V3.26275C80.5403 2.29361 80.7987 1.55061 81.3156 1.03374C81.8325 0.516871 82.5647 0.258435 83.5123 0.258435C84.4814 0.258435 85.2137 0.516871 85.709 1.03374C86.2259 1.55061 86.4843 2.29361 86.4843 3.26275V18.1228H94.3666C95.185 18.1228 95.8095 18.3382 96.2402 18.7689C96.6925 19.1781 96.9186 19.7811 96.9186 20.5779C96.9186 21.3748 96.6925 21.9886 96.2402 22.4193C95.8095 22.85 95.185 23.0654 94.3666 23.0654H83.5446ZM100.219 23.3561C99.5516 23.3561 98.9917 23.2054 98.5394 22.9038C98.0871 22.5808 97.8072 22.1501 97.6995 21.6117C97.5918 21.0517 97.6887 20.4272 97.9902 19.738L106.034 2.42283C106.422 1.58292 106.895 0.969133 107.455 0.581479C108.037 0.193826 108.694 -7.69391e-07 109.426 -7.69391e-07C110.158 -7.69391e-07 110.794 0.193826 111.332 0.581479C111.892 0.969133 112.376 1.58292 112.786 2.42283L120.829 19.738C121.174 20.4272 121.293 21.0517 121.185 21.6117C121.099 22.1716 120.829 22.6023 120.377 22.9038C119.946 23.2054 119.408 23.3561 118.762 23.3561C117.901 23.3561 117.233 23.1623 116.759 22.7746C116.307 22.387 115.898 21.7624 115.532 20.901L113.787 16.7983L116.048 18.4458H102.739L105.033 16.7983L103.288 20.901C102.901 21.7624 102.502 22.387 102.093 22.7746C101.684 23.1623 101.059 23.3561 100.219 23.3561ZM109.361 6.49319L105.614 15.4415L104.71 13.8909H114.11L113.206 15.4415L109.426 6.49319H109.361Z" fill="white"/>
</svg>
